<svg class="main-svg" xmlns="http://www.w3.org/2000/svg" xmlns:xlink="http://www.w3.org/1999/xlink" width="700" height="500" style="" viewBox="0 0 700 500"><rect x="0" y="0" width="700" height="500" style="fill: rgb(255, 255, 255); fill-opacity: 1;"/><defs id="defs-46f80d"><g class="clips"><clipPath id="clip46f80dxyplot" class="plotclip"><rect width="540" height="360"/></clipPath><clipPath class="axesclip" id="clip46f80dx"><rect x="80" y="0" width="540" height="500"/></clipPath><clipPath class="axesclip" id="clip46f80dy"><rect x="0" y="60" width="700" height="360"/></clipPath><clipPath class="axesclip" id="clip46f80dxy"><rect x="80" y="60" width="540" height="360"/></clipPath></g><g class="gradients"/><g class="patterns"/></defs><g class="bglayer"><rect class="bg" x="80" y="60" width="540" height="360" style="fill: rgb(229, 236, 246); fill-opacity: 1; stroke-width: 0;"/></g><g class="layer-below"><g class="imagelayer"/><g class="shapelayer"/></g><g class="cartesianlayer"><g class="subplot xy"><g class="layer-subplot"><g class="shapelayer"/><g class="imagelayer"/></g><g class="minor-gridlayer"><g class="x"/><g class="y"/></g><g class="gridlayer"><g class="x"/><g class="y"><path class="ygrid crisp" transform="translate(0,393.74)" d="M80,0h540" style="stroke: rgb(255, 255, 255); stroke-opacity: 1; stroke-width: 1px;"/><path class="ygrid crisp" transform="translate(0,340.16)" d="M80,0h540" style="stroke: rgb(255, 255, 255); stroke-opacity: 1; stroke-width: 1px;"/><path class="ygrid crisp" transform="translate(0,286.57)" d="M80,0h540" style="stroke: rgb(255, 255, 255); stroke-opacity: 1; stroke-width: 1px;"/><path class="ygrid crisp" transform="translate(0,232.99)" d="M80,0h540" style="stroke: rgb(255, 255, 255); stroke-opacity: 1; stroke-width: 1px;"/><path class="ygrid crisp" transform="translate(0,179.41)" d="M80,0h540" style="stroke: rgb(255, 255, 255); stroke-opacity: 1; stroke-width: 1px;"/><path class="ygrid crisp" transform="translate(0,125.82)" d="M80,0h540" style="stroke: rgb(255, 255, 255); stroke-opacity: 1; stroke-width: 1px;"/><path class="ygrid crisp" transform="translate(0,72.24)" d="M80,0h540" style="stroke: rgb(255, 255, 255); stroke-opacity: 1; stroke-width: 1px;"/></g></g><g class="zerolinelayer"/><g class="layer-between"><g class="shapelayer"/><g class="imagelayer"/></g><path class="xlines-below"/><path class="ylines-below"/><g class="overlines-below"/><g class="xaxislayer-below"/><g class="yaxislayer-below"/><g class="overaxes-below"/><g class="plot" transform="translate(80,60)" clip-path="url(#clip46f80dxyplot)"><g class="violinlayer mlayer"><g class="trace violins" style="opacity: 1;"><path class="violin" d="M276.33,18Q278.28,22.2 279.53,24.23C280.84,26.36 282.42,28.42 284.06,30.46C285.76,32.58 287.73,34.61 289.57,36.69C291.41,38.77 293.43,40.79 295.11,42.92C296.71,44.95 298.36,46.99 299.44,49.15C300.45,51.16 301.26,53.28 301.53,55.38C301.8,57.43 301.53,59.57 301.12,61.62C300.7,63.73 299.74,65.78 299,67.85C298.25,69.93 297.24,71.98 296.66,74.08C296.1,76.13 295.59,78.23 295.54,80.31C295.49,82.38 295.84,84.49 296.33,86.54C296.83,88.64 297.8,90.7 298.55,92.77C299.3,94.85 300.32,96.89 300.84,99C301.35,101.05 301.79,103.16 301.69,105.23C301.58,107.32 301,109.44 300.19,111.46C299.33,113.6 297.89,115.65 296.56,117.69C295.18,119.8 293.41,121.81 292.04,123.92C290.71,125.96 289.17,128 288.43,130.15C287.74,132.16 287.2,134.36 287.58,136.38C287.98,138.53 289.33,140.71 291.02,142.62C293.09,144.95 296.33,146.93 299.67,148.85C303.66,151.15 308.6,153.11 313.6,155.08C319.22,157.29 325.54,159.29 331.8,161.31C338.4,163.44 345.48,165.45 352.25,167.54C358.94,169.6 365.86,171.6 372.17,173.77C377.98,175.77 383.88,177.71 388.75,180C392.86,181.93 397.15,183.79 399.69,186.23C401.63,188.09 403.54,190.37 403.57,192.46C403.6,194.53 401.79,196.83 399.92,198.69C397.47,201.13 393.24,202.99 389.2,204.92C384.4,207.21 378.57,209.15 372.82,211.15C366.56,213.32 359.68,215.32 353.02,217.38C346.27,219.47 339.2,221.49 332.58,223.62C326.27,225.65 319.89,227.65 314.19,229.85C309.08,231.82 304.04,233.79 299.9,236.08C296.41,238.01 293,239.97 290.76,242.31C288.94,244.21 287.36,246.38 286.89,248.54C286.45,250.54 286.92,252.79 287.69,254.77C288.54,256.96 290.36,259.01 292.1,261C294,263.18 296.46,265.18 298.77,267.23C301.14,269.34 303.79,271.35 306.15,273.46C308.44,275.51 310.84,277.52 312.76,279.69C314.53,281.69 316.28,283.74 317.35,285.92C318.33,287.91 319.07,290.06 319.15,292.15C319.23,294.22 318.69,296.38 317.85,298.38C316.93,300.55 315.32,302.63 313.65,304.62C311.82,306.8 309.48,308.82 307.19,310.85C304.78,312.98 302.07,315 299.51,317.08C296.94,319.16 294.25,321.19 291.8,323.31C289.44,325.35 287.1,327.39 285.07,329.54C283.17,331.55 281.39,333.62 279.93,335.77Q278.56,337.79 276.48,342L268.52,342Q266.44,337.79 265.07,335.77C263.61,333.62 261.83,331.55 259.93,329.54C257.9,327.39 255.56,325.35 253.2,323.31C250.75,321.19 248.06,319.16 245.49,317.08C242.93,315 240.22,312.98 237.81,310.85C235.52,308.82 233.18,306.8 231.35,304.62C229.68,302.63 228.07,300.55 227.15,298.38C226.31,296.38 225.77,294.22 225.85,292.15C225.93,290.06 226.67,287.91 227.65,285.92C228.72,283.74 230.47,281.69 232.24,279.69C234.16,277.52 236.56,275.51 238.85,273.46C241.21,271.35 243.86,269.34 246.23,267.23C248.54,265.18 251,263.18 252.9,261C254.64,259.01 256.46,256.96 257.31,254.77C258.08,252.79 258.55,250.54 258.11,248.54C257.64,246.38 256.06,244.21 254.24,242.31C252,239.97 248.59,238.01 245.1,236.08C240.96,233.79 235.92,231.82 230.81,229.85C225.11,227.65 218.73,225.65 212.42,223.62C205.8,221.49 198.73,219.47 191.98,217.38C185.32,215.32 178.44,213.32 172.18,211.15C166.43,209.15 160.6,207.21 155.8,204.92C151.76,202.99 147.53,201.13 145.08,198.69C143.21,196.83 141.39,194.53 141.42,192.46C141.45,190.37 143.37,188.09 145.31,186.23C147.85,183.79 152.14,181.93 156.25,180C161.12,177.71 167.02,175.77 172.83,173.77C179.14,171.6 186.06,169.6 192.75,167.54C199.52,165.45 206.6,163.44 213.2,161.31C219.46,159.29 225.78,157.29 231.4,155.08C236.4,153.11 241.34,151.15 245.33,148.85C248.67,146.93 251.91,144.95 253.98,142.62C255.67,140.71 257.02,138.53 257.42,136.38C257.8,134.36 257.26,132.16 256.57,130.15C255.83,128 254.29,125.96 252.96,123.92C251.59,121.81 249.82,119.8 248.44,117.69C247.11,115.65 245.67,113.6 244.81,111.46C244,109.44 243.42,107.32 243.31,105.23C243.21,103.16 243.65,101.05 244.16,99C244.68,96.89 245.7,94.85 246.45,92.77C247.2,90.7 248.17,88.64 248.67,86.54C249.16,84.49 249.51,82.38 249.46,80.31C249.41,78.23 248.9,76.13 248.34,74.08C247.76,71.98 246.75,69.93 246,67.85C245.26,65.78 244.3,63.73 243.88,61.62C243.47,59.57 243.2,57.43 243.47,55.38C243.74,53.28 244.55,51.16 245.56,49.15C246.64,46.99 248.29,44.95 249.89,42.92C251.57,40.79 253.59,38.77 255.43,36.69C257.27,34.61 259.24,32.58 260.94,30.46C262.58,28.42 264.16,26.36 265.47,24.23Q266.72,22.2 268.67,18Z" style="vector-effect: none; stroke-width: 2px; stroke: rgb(99, 110, 250); stroke-opacity: 1; fill: rgb(99, 110, 250); fill-opacity: 0.5;"/><path class="box" d="M239.73,192.64H305.27M239.73,173.97H305.27V211.97H239.73ZM272.5,173.97V173.97M272.5,211.97V211.97" style="vector-effect: non-scaling-stroke; stroke-width: 2px; stroke: rgb(99, 110, 250); stroke-opacity: 1; fill: rgb(99, 110, 250); fill-opacity: 0.5;"/><g class="points"><path class="point" transform="translate(92.71,55.64)" d="M5,0A5,5 0 1,1 0,-5A5,5 0 0,1 5,0Z" style="opacity: 1; stroke-width: 0px; fill: rgb(99, 110, 250); fill-opacity: 1;"/><path class="point" transform="translate(54.39,106.1)" d="M5,0A5,5 0 1,1 0,-5A5,5 0 0,1 5,0Z" style="opacity: 1; stroke-width: 0px; fill: rgb(99, 110, 250); fill-opacity: 1;"/><path class="point" transform="translate(103.73,173.97)" d="M5,0A5,5 0 1,1 0,-5A5,5 0 0,1 5,0Z" style="opacity: 1; stroke-width: 0px; fill: rgb(99, 110, 250); fill-opacity: 1;"/><path class="point" transform="translate(48.84,176.87)" d="M5,0A5,5 0 1,1 0,-5A5,5 0 0,1 5,0Z" style="opacity: 1; stroke-width: 0px; fill: rgb(99, 110, 250); fill-opacity: 1;"/><path class="point" transform="translate(67.94,192.59)" d="M5,0A5,5 0 1,1 0,-5A5,5 0 0,1 5,0Z" style="opacity: 1; stroke-width: 0px; fill: rgb(99, 110, 250); fill-opacity: 1;"/><path class="point" transform="translate(92.84,192.68)" d="M5,0A5,5 0 1,1 0,-5A5,5 0 0,1 5,0Z" style="opacity: 1; stroke-width: 0px; fill: rgb(99, 110, 250); fill-opacity: 1;"/><path class="point" transform="translate(74.62,207.6)" d="M5,0A5,5 0 1,1 0,-5A5,5 0 0,1 5,0Z" style="opacity: 1; stroke-width: 0px; fill: rgb(99, 110, 250); fill-opacity: 1;"/><path class="point" transform="translate(87.29,211.97)" d="M5,0A5,5 0 1,1 0,-5A5,5 0 0,1 5,0Z" style="opacity: 1; stroke-width: 0px; fill: rgb(99, 110, 250); fill-opacity: 1;"/><path class="point" transform="translate(64.14,281)" d="M5,0A5,5 0 1,1 0,-5A5,5 0 0,1 5,0Z" style="opacity: 1; stroke-width: 0px; fill: rgb(99, 110, 250); fill-opacity: 1;"/><path class="point" transform="translate(49.58,304.36)" d="M5,0A5,5 0 1,1 0,-5A5,5 0 0,1 5,0Z" style="opacity: 1; stroke-width: 0px; fill: rgb(99, 110, 250); fill-opacity: 1;"/></g></g></g></g><g class="overplot"/><path class="xlines-above crisp" d="M0,0" style="fill: none;"/><path class="ylines-above crisp" d="M0,0" style="fill: none;"/><g class="overlines-above"/><g class="xaxislayer-above"><g class="xtick"><text text-anchor="middle" x="0" y="433" transform="translate(352.5,0)" style="font-family: 'Open Sans', verdana, arial, sans-serif; font-size: 12px; fill: rgb(42, 63, 95); fill-opacity: 1; white-space: pre; opacity: 1;">sim_config_10</text></g></g><g class="yaxislayer-above"><g class="ytick"><text text-anchor="end" x="79" y="4.199999999999999" transform="translate(0,393.74)" style="font-family: 'Open Sans', verdana, arial, sans-serif; font-size: 12px; fill: rgb(42, 63, 95); fill-opacity: 1; white-space: pre; opacity: 1;">3.8</text></g><g class="ytick"><text text-anchor="end" x="79" y="4.199999999999999" style="font-family: 'Open Sans', verdana, arial, sans-serif; font-size: 12px; fill: rgb(42, 63, 95); fill-opacity: 1; white-space: pre; opacity: 1;" transform="translate(0,340.16)">3.78</text></g><g class="ytick"><text text-anchor="end" x="79" y="4.199999999999999" style="font-family: 'Open Sans', verdana, arial, sans-serif; font-size: 12px; fill: rgb(42, 63, 95); fill-opacity: 1; white-space: pre; opacity: 1;" transform="translate(0,286.57)">3.76</text></g><g class="ytick"><text text-anchor="end" x="79" y="4.199999999999999" style="font-family: 'Open Sans', verdana, arial, sans-serif; font-size: 12px; fill: rgb(42, 63, 95); fill-opacity: 1; white-space: pre; opacity: 1;" transform="translate(0,232.99)">3.74</text></g><g class="ytick"><text text-anchor="end" x="79" y="4.199999999999999" style="font-family: 'Open Sans', verdana, arial, sans-serif; font-size: 12px; fill: rgb(42, 63, 95); fill-opacity: 1; white-space: pre; opacity: 1;" transform="translate(0,179.41)">3.72</text></g><g class="ytick"><text text-anchor="end" x="79" y="4.199999999999999" style="font-family: 'Open Sans', verdana, arial, sans-serif; font-size: 12px; fill: rgb(42, 63, 95); fill-opacity: 1; white-space: pre; opacity: 1;" transform="translate(0,125.82)">3.7</text></g><g class="ytick"><text text-anchor="end" x="79" y="4.199999999999999" style="font-family: 'Open Sans', verdana, arial, sans-serif; font-size: 12px; fill: rgb(42, 63, 95); fill-opacity: 1; white-space: pre; opacity: 1;" transform="translate(0,72.24)">3.68</text></g></g><g class="overaxes-above"/></g></g><g class="polarlayer"/><g class="smithlayer"/><g class="ternarylayer"/><g class="geolayer"/><g class="funnelarealayer"/><g class="pielayer"/><g class="iciclelayer"/><g class="treemaplayer"/><g class="sunburstlayer"/><g class="glimages"/><defs id="topdefs-46f80d"><g class="clips"/></defs><g class="layer-above"><g class="imagelayer"/><g class="shapelayer"/></g><g class="infolayer"><g class="g-gtitle"/><g class="g-xtitle"><text class="xtitle" x="350" y="460.3" text-anchor="middle" style="font-family: 'Open Sans', verdana, arial, sans-serif; font-size: 14px; fill: rgb(42, 63, 95); opacity: 1; white-space: pre;">sim_config</text></g><g class="g-ytitle"><text class="ytitle" transform="rotate(-90,36.240625,240)" x="36.240625" y="240" text-anchor="middle" style="font-family: 'Open Sans', verdana, arial, sans-serif; font-size: 14px; fill: rgb(42, 63, 95); opacity: 1; white-space: pre;">exec_time_minutes</text></g></g></svg>