<svg class="main-svg" xmlns="http://www.w3.org/2000/svg" xmlns:xlink="http://www.w3.org/1999/xlink" width="700" height="500" style="" viewBox="0 0 700 500"><rect x="0" y="0" width="700" height="500" style="fill: rgb(255, 255, 255); fill-opacity: 1;"/><defs id="defs-6764b9"><g class="clips"><clipPath id="clip6764b9xyplot" class="plotclip"><rect width="540" height="360"/></clipPath><clipPath class="axesclip" id="clip6764b9x"><rect x="80" y="0" width="540" height="500"/></clipPath><clipPath class="axesclip" id="clip6764b9y"><rect x="0" y="60" width="700" height="360"/></clipPath><clipPath class="axesclip" id="clip6764b9xy"><rect x="80" y="60" width="540" height="360"/></clipPath></g><g class="gradients"/><g class="patterns"/></defs><g class="bglayer"><rect class="bg" x="80" y="60" width="540" height="360" style="fill: rgb(229, 236, 246); fill-opacity: 1; stroke-width: 0;"/></g><g class="layer-below"><g class="imagelayer"/><g class="shapelayer"/></g><g class="cartesianlayer"><g class="subplot xy"><g class="layer-subplot"><g class="shapelayer"/><g class="imagelayer"/></g><g class="minor-gridlayer"><g class="x"/><g class="y"/></g><g class="gridlayer"><g class="x"/><g class="y"><path class="ygrid crisp" transform="translate(0,386.49)" d="M80,0h540" style="stroke: rgb(255, 255, 255); stroke-opacity: 1; stroke-width: 1px;"/><path class="ygrid crisp" transform="translate(0,341.41)" d="M80,0h540" style="stroke: rgb(255, 255, 255); stroke-opacity: 1; stroke-width: 1px;"/><path class="ygrid crisp" transform="translate(0,296.32)" d="M80,0h540" style="stroke: rgb(255, 255, 255); stroke-opacity: 1; stroke-width: 1px;"/><path class="ygrid crisp" transform="translate(0,251.23)" d="M80,0h540" style="stroke: rgb(255, 255, 255); stroke-opacity: 1; stroke-width: 1px;"/><path class="ygrid crisp" transform="translate(0,206.15)" d="M80,0h540" style="stroke: rgb(255, 255, 255); stroke-opacity: 1; stroke-width: 1px;"/><path class="ygrid crisp" transform="translate(0,161.06)" d="M80,0h540" style="stroke: rgb(255, 255, 255); stroke-opacity: 1; stroke-width: 1px;"/><path class="ygrid crisp" transform="translate(0,115.97999999999999)" d="M80,0h540" style="stroke: rgb(255, 255, 255); stroke-opacity: 1; stroke-width: 1px;"/><path class="ygrid crisp" transform="translate(0,70.89)" d="M80,0h540" style="stroke: rgb(255, 255, 255); stroke-opacity: 1; stroke-width: 1px;"/></g></g><g class="zerolinelayer"/><g class="layer-between"><g class="shapelayer"/><g class="imagelayer"/></g><path class="xlines-below"/><path class="ylines-below"/><g class="overlines-below"/><g class="xaxislayer-below"/><g class="yaxislayer-below"/><g class="overaxes-below"/><g class="plot" transform="translate(80,60)" clip-path="url(#clip6764b9xyplot)"><g class="violinlayer mlayer"><g class="trace violins" style="opacity: 1;"><path class="violin" d="M276.98,18Q279.44,25.05 281.21,28.45C283.07,32.02 285.35,35.53 287.97,38.9C290.77,42.51 294.11,45.97 297.65,49.35C301.43,52.96 305.71,56.39 310.04,59.81C314.55,63.37 319.45,66.79 324.22,70.26C329.03,73.76 334.04,77.19 338.79,80.71C343.43,84.16 348.06,87.61 352.4,91.16C356.57,94.58 360.56,98.07 364.37,101.61C368.05,105.04 371.5,108.54 374.91,112.06C378.25,115.51 381.49,119 384.63,122.52C387.71,125.97 390.87,129.41 393.58,132.97C396.18,136.38 398.95,139.8 400.63,143.42C402.19,146.78 403.61,150.39 403.57,153.87C403.53,157.36 402.27,161.05 400.35,164.32C398.14,168.08 394.24,171.47 390.37,174.77C386,178.49 380.46,181.82 375.19,185.23C369.68,188.79 363.57,192.14 357.99,195.68C352.57,199.11 346.99,202.49 342.15,206.13C337.69,209.48 333.41,212.91 329.91,216.58C326.74,219.91 324,223.41 321.83,227.03C319.81,230.4 318.37,233.94 317.11,237.48C315.88,240.92 315.16,244.44 314.31,247.94C313.46,251.41 312.87,254.92 312.01,258.39C311.15,261.88 310.28,265.38 309.15,268.84C308,272.35 306.67,275.84 305.16,279.29C303.62,282.81 301.8,286.28 299.96,289.74C298.09,293.25 295.99,296.71 294,300.19C292.01,303.68 289.91,307.14 288.02,310.65C286.16,314.11 284.31,317.58 282.74,321.1C281.2,324.55 279.81,328.03 278.65,331.55Q277.52,335 275.85,342L269.15,342Q267.48,335 266.35,331.55C265.19,328.03 263.8,324.55 262.26,321.1C260.69,317.58 258.84,314.11 256.98,310.65C255.09,307.14 252.99,303.68 251,300.19C249.01,296.71 246.91,293.25 245.04,289.74C243.2,286.28 241.38,282.81 239.84,279.29C238.33,275.84 237,272.35 235.85,268.84C234.72,265.38 233.85,261.88 232.99,258.39C232.13,254.92 231.54,251.41 230.69,247.94C229.84,244.44 229.12,240.92 227.89,237.48C226.63,233.94 225.19,230.4 223.17,227.03C221,223.41 218.26,219.91 215.09,216.58C211.59,212.91 207.31,209.48 202.85,206.13C198.01,202.49 192.43,199.11 187.01,195.68C181.43,192.14 175.32,188.79 169.81,185.23C164.54,181.82 159,178.49 154.63,174.77C150.76,171.47 146.86,168.08 144.65,164.32C142.73,161.05 141.46,157.36 141.42,153.87C141.38,150.39 142.81,146.78 144.37,143.42C146.05,139.8 148.82,136.38 151.42,132.97C154.13,129.41 157.29,125.97 160.37,122.52C163.51,119 166.75,115.51 170.09,112.06C173.5,108.54 176.95,105.04 180.63,101.61C184.44,98.07 188.43,94.58 192.6,91.16C196.94,87.61 201.57,84.16 206.21,80.71C210.96,77.19 215.97,73.76 220.78,70.26C225.55,66.79 230.45,63.37 234.96,59.81C239.29,56.39 243.57,52.96 247.35,49.35C250.89,45.97 254.23,42.51 257.03,38.9C259.65,35.53 261.93,32.02 263.79,28.45Q265.56,25.05 268.02,18Z" style="vector-effect: none; stroke-width: 2px; stroke: rgb(99, 110, 250); stroke-opacity: 1; fill: rgb(99, 110, 250); fill-opacity: 0.5;"/><path class="box" d="M239.73,159.2H305.27M239.73,108.61H305.27V173.69H239.73ZM272.5,108.61V82.46M272.5,173.69V231.89" style="vector-effect: non-scaling-stroke; stroke-width: 2px; stroke: rgb(99, 110, 250); stroke-opacity: 1; fill: rgb(99, 110, 250); fill-opacity: 0.5;"/><g class="points"><path class="point" transform="translate(93.64,82.46)" d="M5,0A5,5 0 1,1 0,-5A5,5 0 0,1 5,0Z" style="opacity: 1; stroke-width: 0px; fill: rgb(99, 110, 250); fill-opacity: 1;"/><path class="point" transform="translate(52.06,103.43)" d="M5,0A5,5 0 1,1 0,-5A5,5 0 0,1 5,0Z" style="opacity: 1; stroke-width: 0px; fill: rgb(99, 110, 250); fill-opacity: 1;"/><path class="point" transform="translate(106.38,108.61)" d="M5,0A5,5 0 1,1 0,-5A5,5 0 0,1 5,0Z" style="opacity: 1; stroke-width: 0px; fill: rgb(99, 110, 250); fill-opacity: 1;"/><path class="point" transform="translate(48.11,148.74)" d="M5,0A5,5 0 1,1 0,-5A5,5 0 0,1 5,0Z" style="opacity: 1; stroke-width: 0px; fill: rgb(99, 110, 250); fill-opacity: 1;"/><path class="point" transform="translate(68.38,149.87)" d="M5,0A5,5 0 1,1 0,-5A5,5 0 0,1 5,0Z" style="opacity: 1; stroke-width: 0px; fill: rgb(99, 110, 250); fill-opacity: 1;"/><path class="point" transform="translate(91.89,168.54)" d="M5,0A5,5 0 1,1 0,-5A5,5 0 0,1 5,0Z" style="opacity: 1; stroke-width: 0px; fill: rgb(99, 110, 250); fill-opacity: 1;"/><path class="point" transform="translate(74.75,168.95)" d="M5,0A5,5 0 1,1 0,-5A5,5 0 0,1 5,0Z" style="opacity: 1; stroke-width: 0px; fill: rgb(99, 110, 250); fill-opacity: 1;"/><path class="point" transform="translate(84.26,173.69)" d="M5,0A5,5 0 1,1 0,-5A5,5 0 0,1 5,0Z" style="opacity: 1; stroke-width: 0px; fill: rgb(99, 110, 250); fill-opacity: 1;"/><path class="point" transform="translate(66.11,231.89)" d="M5,0A5,5 0 1,1 0,-5A5,5 0 0,1 5,0Z" style="opacity: 1; stroke-width: 0px; fill: rgb(99, 110, 250); fill-opacity: 1;"/><path class="point" transform="translate(55.3,277.54)" d="M5,0A5,5 0 1,1 0,-5A5,5 0 0,1 5,0Z" style="opacity: 1; stroke-width: 0px; fill: rgb(99, 110, 250); fill-opacity: 1;"/></g></g></g></g><g class="overplot"/><path class="xlines-above crisp" d="M0,0" style="fill: none;"/><path class="ylines-above crisp" d="M0,0" style="fill: none;"/><g class="overlines-above"/><g class="xaxislayer-above"><g class="xtick"><text text-anchor="middle" x="0" y="433" transform="translate(352.5,0)" style="font-family: 'Open Sans', verdana, arial, sans-serif; font-size: 12px; fill: rgb(42, 63, 95); fill-opacity: 1; white-space: pre; opacity: 1;">sim_config_5</text></g></g><g class="yaxislayer-above"><g class="ytick"><text text-anchor="end" x="79" y="4.199999999999999" transform="translate(0,386.49)" style="font-family: 'Open Sans', verdana, arial, sans-serif; font-size: 12px; fill: rgb(42, 63, 95); fill-opacity: 1; white-space: pre; opacity: 1;">6.52</text></g><g class="ytick"><text text-anchor="end" x="79" y="4.199999999999999" style="font-family: 'Open Sans', verdana, arial, sans-serif; font-size: 12px; fill: rgb(42, 63, 95); fill-opacity: 1; white-space: pre; opacity: 1;" transform="translate(0,341.41)">6.5</text></g><g class="ytick"><text text-anchor="end" x="79" y="4.199999999999999" style="font-family: 'Open Sans', verdana, arial, sans-serif; font-size: 12px; fill: rgb(42, 63, 95); fill-opacity: 1; white-space: pre; opacity: 1;" transform="translate(0,296.32)">6.48</text></g><g class="ytick"><text text-anchor="end" x="79" y="4.199999999999999" style="font-family: 'Open Sans', verdana, arial, sans-serif; font-size: 12px; fill: rgb(42, 63, 95); fill-opacity: 1; white-space: pre; opacity: 1;" transform="translate(0,251.23)">6.46</text></g><g class="ytick"><text text-anchor="end" x="79" y="4.199999999999999" style="font-family: 'Open Sans', verdana, arial, sans-serif; font-size: 12px; fill: rgb(42, 63, 95); fill-opacity: 1; white-space: pre; opacity: 1;" transform="translate(0,206.15)">6.44</text></g><g class="ytick"><text text-anchor="end" x="79" y="4.199999999999999" style="font-family: 'Open Sans', verdana, arial, sans-serif; font-size: 12px; fill: rgb(42, 63, 95); fill-opacity: 1; white-space: pre; opacity: 1;" transform="translate(0,161.06)">6.42</text></g><g class="ytick"><text text-anchor="end" x="79" y="4.199999999999999" style="font-family: 'Open Sans', verdana, arial, sans-serif; font-size: 12px; fill: rgb(42, 63, 95); fill-opacity: 1; white-space: pre; opacity: 1;" transform="translate(0,115.97999999999999)">6.4</text></g><g class="ytick"><text text-anchor="end" x="79" y="4.199999999999999" style="font-family: 'Open Sans', verdana, arial, sans-serif; font-size: 12px; fill: rgb(42, 63, 95); fill-opacity: 1; white-space: pre; opacity: 1;" transform="translate(0,70.89)">6.38</text></g></g><g class="overaxes-above"/></g></g><g class="polarlayer"/><g class="smithlayer"/><g class="ternarylayer"/><g class="geolayer"/><g class="funnelarealayer"/><g class="pielayer"/><g class="iciclelayer"/><g class="treemaplayer"/><g class="sunburstlayer"/><g class="glimages"/><defs id="topdefs-6764b9"><g class="clips"/></defs><g class="layer-above"><g class="imagelayer"/><g class="shapelayer"/></g><g class="infolayer"><g class="g-gtitle"/><g class="g-xtitle"><text class="xtitle" x="350" y="460.3" text-anchor="middle" style="font-family: 'Open Sans', verdana, arial, sans-serif; font-size: 14px; fill: rgb(42, 63, 95); opacity: 1; white-space: pre;">sim_config</text></g><g class="g-ytitle"><text class="ytitle" transform="rotate(-90,36.240625,240)" x="36.240625" y="240" text-anchor="middle" style="font-family: 'Open Sans', verdana, arial, sans-serif; font-size: 14px; fill: rgb(42, 63, 95); opacity: 1; white-space: pre;">exec_time_minutes</text></g></g></svg>