<svg class="main-svg" xmlns="http://www.w3.org/2000/svg" xmlns:xlink="http://www.w3.org/1999/xlink" width="700" height="500" style="" viewBox="0 0 700 500"><rect x="0" y="0" width="700" height="500" style="fill: rgb(255, 255, 255); fill-opacity: 1;"/><defs id="defs-6e15df"><g class="clips"><clipPath id="clip6e15dfxyplot" class="plotclip"><rect width="540" height="360"/></clipPath><clipPath class="axesclip" id="clip6e15dfx"><rect x="80" y="0" width="540" height="500"/></clipPath><clipPath class="axesclip" id="clip6e15dfy"><rect x="0" y="60" width="700" height="360"/></clipPath><clipPath class="axesclip" id="clip6e15dfxy"><rect x="80" y="60" width="540" height="360"/></clipPath></g><g class="gradients"/><g class="patterns"/></defs><g class="bglayer"><rect class="bg" x="80" y="60" width="540" height="360" style="fill: rgb(229, 236, 246); fill-opacity: 1; stroke-width: 0;"/></g><g class="layer-below"><g class="imagelayer"/><g class="shapelayer"/></g><g class="cartesianlayer"><g class="subplot xy"><g class="layer-subplot"><g class="shapelayer"/><g class="imagelayer"/></g><g class="minor-gridlayer"><g class="x"/><g class="y"/></g><g class="gridlayer"><g class="x"/><g class="y"><path class="ygrid crisp" transform="translate(0,408.67)" d="M80,0h540" style="stroke: rgb(255, 255, 255); stroke-opacity: 1; stroke-width: 1px;"/><path class="ygrid crisp" transform="translate(0,349.29)" d="M80,0h540" style="stroke: rgb(255, 255, 255); stroke-opacity: 1; stroke-width: 1px;"/><path class="ygrid crisp" transform="translate(0,289.90999999999997)" d="M80,0h540" style="stroke: rgb(255, 255, 255); stroke-opacity: 1; stroke-width: 1px;"/><path class="ygrid crisp" transform="translate(0,230.52)" d="M80,0h540" style="stroke: rgb(255, 255, 255); stroke-opacity: 1; stroke-width: 1px;"/><path class="ygrid crisp" transform="translate(0,171.14)" d="M80,0h540" style="stroke: rgb(255, 255, 255); stroke-opacity: 1; stroke-width: 1px;"/><path class="ygrid crisp" transform="translate(0,111.75999999999999)" d="M80,0h540" style="stroke: rgb(255, 255, 255); stroke-opacity: 1; stroke-width: 1px;"/></g></g><g class="zerolinelayer"/><g class="layer-between"><g class="shapelayer"/><g class="imagelayer"/></g><path class="xlines-below"/><path class="ylines-below"/><g class="overlines-below"/><g class="xaxislayer-below"/><g class="yaxislayer-below"/><g class="overaxes-below"/><g class="plot" transform="translate(80,60)" clip-path="url(#clip6e15dfxyplot)"><g class="violinlayer mlayer"><g class="trace violins" style="opacity: 1;"><path class="violin" d="M276.52,18Q278.8,23.77 280.43,26.53C282.16,29.46 284.29,32.31 286.72,35.05C289.35,38.02 292.48,40.83 295.77,43.58C299.31,46.53 303.32,49.33 307.35,52.11C311.57,55.02 316.14,57.8 320.58,60.63C325.06,63.48 329.71,66.29 334.14,69.16C338.48,71.97 342.79,74.79 346.92,77.68C350.93,80.48 354.77,83.34 358.58,86.21C362.33,89.03 365.93,91.9 369.61,94.74C373.3,97.58 377.02,100.41 380.69,103.26C384.33,106.09 388.19,108.85 391.53,111.79C394.66,114.55 398.16,117.25 400.2,120.32C401.97,122.99 403.75,126.04 403.57,128.84C403.38,131.73 401.28,134.8 398.85,137.37C395.73,140.66 390.37,143.24 385.24,145.89C379.21,149 371.81,151.66 364.7,154.42C357.16,157.35 348.89,160.07 341.17,162.95C333.63,165.76 325.87,168.49 318.89,171.47C312.5,174.2 306.23,176.94 300.85,180C296.13,182.68 291.72,185.46 288.15,188.53C285.04,191.2 282.38,194.06 280.32,197.05C278.45,199.77 277.12,202.67 276.09,205.58C275.1,208.37 274.58,211.25 274.18,214.11C273.78,216.93 273.68,219.79 273.68,222.63C273.68,225.47 273.86,228.33 274.18,231.16C274.5,234.01 274.96,236.86 275.6,239.68C276.25,242.54 277.09,245.39 278.06,248.21C279.05,251.08 280.27,253.92 281.52,256.74C282.79,259.6 284.29,262.42 285.65,265.26C287.01,268.1 288.51,270.91 289.69,273.79C290.84,276.6 291.99,279.44 292.65,282.32C293.3,285.13 293.7,288 293.67,290.84C293.64,293.68 293.15,296.56 292.44,299.37C291.72,302.25 290.51,305.08 289.33,307.89C288.12,310.76 286.6,313.58 285.24,316.42C283.87,319.26 282.39,322.09 281.14,324.95C279.91,327.77 278.73,330.6 277.76,333.47Q276.81,336.29 275.37,342L269.63,342Q268.19,336.29 267.24,333.47C266.27,330.6 265.09,327.77 263.86,324.95C262.61,322.09 261.13,319.26 259.76,316.42C258.4,313.58 256.88,310.76 255.67,307.89C254.49,305.08 253.28,302.25 252.56,299.37C251.85,296.56 251.36,293.68 251.33,290.84C251.3,288 251.7,285.13 252.35,282.32C253.01,279.44 254.16,276.6 255.31,273.79C256.49,270.91 257.99,268.1 259.35,265.26C260.71,262.42 262.21,259.6 263.48,256.74C264.73,253.92 265.95,251.08 266.94,248.21C267.91,245.39 268.75,242.54 269.4,239.68C270.04,236.86 270.5,234.01 270.82,231.16C271.14,228.33 271.32,225.47 271.32,222.63C271.32,219.79 271.22,216.93 270.82,214.11C270.42,211.25 269.9,208.37 268.91,205.58C267.88,202.67 266.55,199.77 264.68,197.05C262.62,194.06 259.96,191.2 256.85,188.53C253.28,185.46 248.87,182.68 244.15,180C238.77,176.94 232.5,174.2 226.11,171.47C219.13,168.49 211.37,165.76 203.83,162.95C196.11,160.07 187.84,157.35 180.3,154.42C173.19,151.66 165.79,149 159.76,145.89C154.63,143.24 149.27,140.66 146.15,137.37C143.72,134.8 141.61,131.73 141.42,128.84C141.24,126.04 143.03,122.99 144.8,120.32C146.84,117.25 150.34,114.55 153.47,111.79C156.81,108.85 160.67,106.09 164.31,103.26C167.98,100.41 171.7,97.58 175.39,94.74C179.07,91.9 182.67,89.03 186.42,86.21C190.23,83.34 194.07,80.48 198.08,77.68C202.21,74.79 206.52,71.97 210.86,69.16C215.29,66.29 219.94,63.48 224.42,60.63C228.86,57.8 233.43,55.02 237.65,52.11C241.68,49.33 245.69,46.53 249.23,43.58C252.52,40.83 255.65,38.02 258.28,35.05C260.71,32.31 262.84,29.46 264.57,26.53Q266.2,23.77 268.48,18Z" style="vector-effect: none; stroke-width: 2px; stroke: rgb(99, 110, 250); stroke-opacity: 1; fill: rgb(99, 110, 250); fill-opacity: 0.5;"/><path class="box" d="M239.73,132.22H305.27M239.73,89.47H305.27V141.52H239.73ZM272.5,89.47V69.57M272.5,141.52V143.65" style="vector-effect: non-scaling-stroke; stroke-width: 2px; stroke: rgb(99, 110, 250); stroke-opacity: 1; fill: rgb(99, 110, 250); fill-opacity: 0.5;"/><g class="points"><path class="point" transform="translate(93.37,69.57)" d="M5,0A5,5 0 1,1 0,-5A5,5 0 0,1 5,0Z" style="opacity: 1; stroke-width: 0px; fill: rgb(99, 110, 250); fill-opacity: 1;"/><path class="point" transform="translate(52.94,85.65)" d="M5,0A5,5 0 1,1 0,-5A5,5 0 0,1 5,0Z" style="opacity: 1; stroke-width: 0px; fill: rgb(99, 110, 250); fill-opacity: 1;"/><path class="point" transform="translate(104.83,89.47)" d="M5,0A5,5 0 1,1 0,-5A5,5 0 0,1 5,0Z" style="opacity: 1; stroke-width: 0px; fill: rgb(99, 110, 250); fill-opacity: 1;"/><path class="point" transform="translate(42.63,115.94)" d="M5,0A5,5 0 1,1 0,-5A5,5 0 0,1 5,0Z" style="opacity: 1; stroke-width: 0px; fill: rgb(99, 110, 250); fill-opacity: 1;"/><path class="point" transform="translate(69.94,131.78)" d="M5,0A5,5 0 1,1 0,-5A5,5 0 0,1 5,0Z" style="opacity: 1; stroke-width: 0px; fill: rgb(99, 110, 250); fill-opacity: 1;"/><path class="point" transform="translate(88.57,132.67)" d="M5,0A5,5 0 1,1 0,-5A5,5 0 0,1 5,0Z" style="opacity: 1; stroke-width: 0px; fill: rgb(99, 110, 250); fill-opacity: 1;"/><path class="point" transform="translate(75.01,135.88)" d="M5,0A5,5 0 1,1 0,-5A5,5 0 0,1 5,0Z" style="opacity: 1; stroke-width: 0px; fill: rgb(99, 110, 250); fill-opacity: 1;"/><path class="point" transform="translate(82.36,141.52)" d="M5,0A5,5 0 1,1 0,-5A5,5 0 0,1 5,0Z" style="opacity: 1; stroke-width: 0px; fill: rgb(99, 110, 250); fill-opacity: 1;"/><path class="point" transform="translate(68.81,143.65)" d="M5,0A5,5 0 1,1 0,-5A5,5 0 0,1 5,0Z" style="opacity: 1; stroke-width: 0px; fill: rgb(99, 110, 250); fill-opacity: 1;"/><path class="point" transform="translate(60.32,290.43)" d="M5,0A5,5 0 1,1 0,-5A5,5 0 0,1 5,0Z" style="opacity: 1; stroke-width: 0px; fill: rgb(99, 110, 250); fill-opacity: 1;"/></g></g></g></g><g class="overplot"/><path class="xlines-above crisp" d="M0,0" style="fill: none;"/><path class="ylines-above crisp" d="M0,0" style="fill: none;"/><g class="overlines-above"/><g class="xaxislayer-above"><g class="xtick"><text text-anchor="middle" x="0" y="433" transform="translate(352.5,0)" style="font-family: 'Open Sans', verdana, arial, sans-serif; font-size: 12px; fill: rgb(42, 63, 95); fill-opacity: 1; white-space: pre; opacity: 1;">sim_config_11</text></g></g><g class="yaxislayer-above"><g class="ytick"><text text-anchor="end" x="79" y="4.199999999999999" transform="translate(0,408.67)" style="font-family: 'Open Sans', verdana, arial, sans-serif; font-size: 12px; fill: rgb(42, 63, 95); fill-opacity: 1; white-space: pre; opacity: 1;">3.78</text></g><g class="ytick"><text text-anchor="end" x="79" y="4.199999999999999" style="font-family: 'Open Sans', verdana, arial, sans-serif; font-size: 12px; fill: rgb(42, 63, 95); fill-opacity: 1; white-space: pre; opacity: 1;" transform="translate(0,349.29)">3.76</text></g><g class="ytick"><text text-anchor="end" x="79" y="4.199999999999999" style="font-family: 'Open Sans', verdana, arial, sans-serif; font-size: 12px; fill: rgb(42, 63, 95); fill-opacity: 1; white-space: pre; opacity: 1;" transform="translate(0,289.90999999999997)">3.74</text></g><g class="ytick"><text text-anchor="end" x="79" y="4.199999999999999" style="font-family: 'Open Sans', verdana, arial, sans-serif; font-size: 12px; fill: rgb(42, 63, 95); fill-opacity: 1; white-space: pre; opacity: 1;" transform="translate(0,230.52)">3.72</text></g><g class="ytick"><text text-anchor="end" x="79" y="4.199999999999999" style="font-family: 'Open Sans', verdana, arial, sans-serif; font-size: 12px; fill: rgb(42, 63, 95); fill-opacity: 1; white-space: pre; opacity: 1;" transform="translate(0,171.14)">3.7</text></g><g class="ytick"><text text-anchor="end" x="79" y="4.199999999999999" style="font-family: 'Open Sans', verdana, arial, sans-serif; font-size: 12px; fill: rgb(42, 63, 95); fill-opacity: 1; white-space: pre; opacity: 1;" transform="translate(0,111.75999999999999)">3.68</text></g></g><g class="overaxes-above"/></g></g><g class="polarlayer"/><g class="smithlayer"/><g class="ternarylayer"/><g class="geolayer"/><g class="funnelarealayer"/><g class="pielayer"/><g class="iciclelayer"/><g class="treemaplayer"/><g class="sunburstlayer"/><g class="glimages"/><defs id="topdefs-6e15df"><g class="clips"/></defs><g class="layer-above"><g class="imagelayer"/><g class="shapelayer"/></g><g class="infolayer"><g class="g-gtitle"/><g class="g-xtitle"><text class="xtitle" x="350" y="460.3" text-anchor="middle" style="font-family: 'Open Sans', verdana, arial, sans-serif; font-size: 14px; fill: rgb(42, 63, 95); opacity: 1; white-space: pre;">sim_config</text></g><g class="g-ytitle"><text class="ytitle" transform="rotate(-90,36.240625,240)" x="36.240625" y="240" text-anchor="middle" style="font-family: 'Open Sans', verdana, arial, sans-serif; font-size: 14px; fill: rgb(42, 63, 95); opacity: 1; white-space: pre;">exec_time_minutes</text></g></g></svg>