<svg class="main-svg" xmlns="http://www.w3.org/2000/svg" xmlns:xlink="http://www.w3.org/1999/xlink" width="700" height="500" style="" viewBox="0 0 700 500"><rect x="0" y="0" width="700" height="500" style="fill: rgb(255, 255, 255); fill-opacity: 1;"/><defs id="defs-7ccab1"><g class="clips"><clipPath id="clip7ccab1xyplot" class="plotclip"><rect width="540" height="360"/></clipPath><clipPath class="axesclip" id="clip7ccab1x"><rect x="80" y="0" width="540" height="500"/></clipPath><clipPath class="axesclip" id="clip7ccab1y"><rect x="0" y="60" width="700" height="360"/></clipPath><clipPath class="axesclip" id="clip7ccab1xy"><rect x="80" y="60" width="540" height="360"/></clipPath></g><g class="gradients"/><g class="patterns"/></defs><g class="bglayer"><rect class="bg" x="80" y="60" width="540" height="360" style="fill: rgb(229, 236, 246); fill-opacity: 1; stroke-width: 0;"/></g><g class="layer-below"><g class="imagelayer"/><g class="shapelayer"/></g><g class="cartesianlayer"><g class="subplot xy"><g class="layer-subplot"><g class="shapelayer"/><g class="imagelayer"/></g><g class="minor-gridlayer"><g class="x"/><g class="y"/></g><g class="gridlayer"><g class="x"/><g class="y"><path class="ygrid crisp" transform="translate(0,406.47)" d="M80,0h540" style="stroke: rgb(255, 255, 255); stroke-opacity: 1; stroke-width: 1px;"/><path class="ygrid crisp" transform="translate(0,369.17)" d="M80,0h540" style="stroke: rgb(255, 255, 255); stroke-opacity: 1; stroke-width: 1px;"/><path class="ygrid crisp" transform="translate(0,331.88)" d="M80,0h540" style="stroke: rgb(255, 255, 255); stroke-opacity: 1; stroke-width: 1px;"/><path class="ygrid crisp" transform="translate(0,294.58000000000004)" d="M80,0h540" style="stroke: rgb(255, 255, 255); stroke-opacity: 1; stroke-width: 1px;"/><path class="ygrid crisp" transform="translate(0,257.28)" d="M80,0h540" style="stroke: rgb(255, 255, 255); stroke-opacity: 1; stroke-width: 1px;"/><path class="ygrid crisp" transform="translate(0,219.98)" d="M80,0h540" style="stroke: rgb(255, 255, 255); stroke-opacity: 1; stroke-width: 1px;"/><path class="ygrid crisp" transform="translate(0,182.69)" d="M80,0h540" style="stroke: rgb(255, 255, 255); stroke-opacity: 1; stroke-width: 1px;"/><path class="ygrid crisp" transform="translate(0,145.39)" d="M80,0h540" style="stroke: rgb(255, 255, 255); stroke-opacity: 1; stroke-width: 1px;"/><path class="ygrid crisp" transform="translate(0,108.09)" d="M80,0h540" style="stroke: rgb(255, 255, 255); stroke-opacity: 1; stroke-width: 1px;"/><path class="ygrid crisp" transform="translate(0,70.78999999999999)" d="M80,0h540" style="stroke: rgb(255, 255, 255); stroke-opacity: 1; stroke-width: 1px;"/></g></g><g class="zerolinelayer"/><g class="layer-between"><g class="shapelayer"/><g class="imagelayer"/></g><path class="xlines-below"/><path class="ylines-below"/><g class="overlines-below"/><g class="xaxislayer-below"/><g class="yaxislayer-below"/><g class="overaxes-below"/><g class="plot" transform="translate(80,60)" clip-path="url(#clip7ccab1xyplot)"><g class="violinlayer mlayer"><g class="trace violins" style="opacity: 1;"><path class="violin" d="M275.66,18Q277.22,23.72 278.25,26.53C279.3,29.4 280.59,32.24 281.94,35.05C283.32,37.92 284.93,40.74 286.46,43.58C288,46.43 289.7,49.24 291.16,52.11C292.6,54.93 294.04,57.75 295.17,60.63C296.27,63.44 297.18,66.29 297.88,69.16C298.57,71.98 298.91,74.84 299.36,77.68C299.81,80.52 299.97,83.39 300.6,86.21C301.24,89.08 301.91,91.99 303.21,94.74C304.6,97.69 306.52,100.57 308.88,103.26C311.54,106.29 315,109.09 318.68,111.79C322.82,114.82 327.7,117.58 332.66,120.32C338.01,123.28 343.95,126.03 349.76,128.84C355.72,131.72 362.06,134.48 367.99,137.37C373.72,140.17 379.66,142.88 384.77,145.89C389.36,148.6 394.1,151.27 397.36,154.42C400.08,157.05 402.81,159.95 403.57,162.95C404.26,165.66 403.68,168.81 402.42,171.47C400.96,174.56 397.62,177.33 394.47,180C390.84,183.07 386.14,185.78 381.59,188.53C376.73,191.47 371.36,194.23 366.16,197.05C360.89,199.91 355.44,202.71 350.2,205.58C345.07,208.4 339.93,211.21 335.05,214.11C330.35,216.9 325.73,219.7 321.42,222.63C317.35,225.4 313.36,228.2 309.84,231.16C306.58,233.9 303.43,236.7 300.91,239.68C298.6,242.41 296.52,245.25 295.12,248.21C293.82,250.96 292.99,253.87 292.61,256.74C292.24,259.55 292.5,262.43 292.81,265.26C293.12,268.12 293.93,270.95 294.48,273.79C295.02,276.63 295.78,279.47 296.08,282.32C296.38,285.15 296.54,288.01 296.28,290.84C296.01,293.7 295.34,296.57 294.46,299.37C293.56,302.25 292.21,305.08 290.88,307.89C289.52,310.76 287.86,313.57 286.36,316.42C284.87,319.26 283.27,322.08 281.91,324.95C280.57,327.77 279.29,330.6 278.24,333.47Q277.21,336.28 275.65,342L269.35,342Q267.79,336.28 266.76,333.47C265.71,330.6 264.43,327.77 263.09,324.95C261.73,322.08 260.13,319.26 258.64,316.42C257.14,313.57 255.48,310.76 254.12,307.89C252.79,305.08 251.44,302.25 250.54,299.37C249.66,296.57 248.99,293.7 248.72,290.84C248.46,288.01 248.62,285.15 248.92,282.32C249.22,279.47 249.98,276.63 250.52,273.79C251.07,270.95 251.88,268.12 252.19,265.26C252.5,262.43 252.76,259.55 252.39,256.74C252.01,253.87 251.18,250.96 249.88,248.21C248.48,245.25 246.4,242.41 244.09,239.68C241.57,236.7 238.42,233.9 235.16,231.16C231.64,228.2 227.65,225.4 223.58,222.63C219.27,219.7 214.65,216.9 209.95,214.11C205.07,211.21 199.93,208.4 194.8,205.58C189.56,202.71 184.11,199.91 178.84,197.05C173.64,194.23 168.27,191.47 163.41,188.53C158.86,185.78 154.16,183.07 150.53,180C147.38,177.33 144.05,174.56 142.58,171.47C141.32,168.81 140.74,165.66 141.42,162.95C142.18,159.95 144.92,157.05 147.64,154.42C150.9,151.27 155.64,148.6 160.23,145.89C165.34,142.88 171.28,140.17 177.01,137.37C182.94,134.48 189.28,131.72 195.24,128.84C201.05,126.03 206.99,123.28 212.34,120.32C217.3,117.58 222.18,114.82 226.32,111.79C230,109.09 233.46,106.29 236.12,103.26C238.48,100.57 240.4,97.69 241.79,94.74C243.09,91.99 243.76,89.08 244.4,86.21C245.03,83.39 245.19,80.52 245.64,77.68C246.09,74.84 246.43,71.98 247.12,69.16C247.82,66.29 248.73,63.44 249.83,60.63C250.96,57.75 252.4,54.93 253.84,52.11C255.3,49.24 257,46.43 258.54,43.58C260.07,40.74 261.68,37.92 263.06,35.05C264.41,32.24 265.7,29.4 266.75,26.53Q267.78,23.72 269.34,18Z" style="vector-effect: none; stroke-width: 2px; stroke: rgb(99, 110, 250); stroke-opacity: 1; fill: rgb(99, 110, 250); fill-opacity: 0.5;"/><path class="box" d="M239.73,166.91H305.27M239.73,143.79H305.27V196.5H239.73ZM272.5,143.79V70.22M272.5,196.5V217.86" style="vector-effect: non-scaling-stroke; stroke-width: 2px; stroke: rgb(99, 110, 250); stroke-opacity: 1; fill: rgb(99, 110, 250); fill-opacity: 0.5;"/><g class="points"><path class="point" transform="translate(95.19,70.22)" d="M5,0A5,5 0 1,1 0,-5A5,5 0 0,1 5,0Z" style="opacity: 1; stroke-width: 0px; fill: rgb(99, 110, 250); fill-opacity: 1;"/><path class="point" transform="translate(50.82,129.43)" d="M5,0A5,5 0 1,1 0,-5A5,5 0 0,1 5,0Z" style="opacity: 1; stroke-width: 0px; fill: rgb(99, 110, 250); fill-opacity: 1;"/><path class="point" transform="translate(105.88,143.79)" d="M5,0A5,5 0 1,1 0,-5A5,5 0 0,1 5,0Z" style="opacity: 1; stroke-width: 0px; fill: rgb(99, 110, 250); fill-opacity: 1;"/><path class="point" transform="translate(43.54,161.91)" d="M5,0A5,5 0 1,1 0,-5A5,5 0 0,1 5,0Z" style="opacity: 1; stroke-width: 0px; fill: rgb(99, 110, 250); fill-opacity: 1;"/><path class="point" transform="translate(67.69,166.08)" d="M5,0A5,5 0 1,1 0,-5A5,5 0 0,1 5,0Z" style="opacity: 1; stroke-width: 0px; fill: rgb(99, 110, 250); fill-opacity: 1;"/><path class="point" transform="translate(93.35,167.75)" d="M5,0A5,5 0 1,1 0,-5A5,5 0 0,1 5,0Z" style="opacity: 1; stroke-width: 0px; fill: rgb(99, 110, 250); fill-opacity: 1;"/><path class="point" transform="translate(74.52,174.96)" d="M5,0A5,5 0 1,1 0,-5A5,5 0 0,1 5,0Z" style="opacity: 1; stroke-width: 0px; fill: rgb(99, 110, 250); fill-opacity: 1;"/><path class="point" transform="translate(86.32,196.5)" d="M5,0A5,5 0 1,1 0,-5A5,5 0 0,1 5,0Z" style="opacity: 1; stroke-width: 0px; fill: rgb(99, 110, 250); fill-opacity: 1;"/><path class="point" transform="translate(64.53,217.86)" d="M5,0A5,5 0 1,1 0,-5A5,5 0 0,1 5,0Z" style="opacity: 1; stroke-width: 0px; fill: rgb(99, 110, 250); fill-opacity: 1;"/><path class="point" transform="translate(51.68,289.78)" d="M5,0A5,5 0 1,1 0,-5A5,5 0 0,1 5,0Z" style="opacity: 1; stroke-width: 0px; fill: rgb(99, 110, 250); fill-opacity: 1;"/></g></g></g></g><g class="overplot"/><path class="xlines-above crisp" d="M0,0" style="fill: none;"/><path class="ylines-above crisp" d="M0,0" style="fill: none;"/><g class="overlines-above"/><g class="xaxislayer-above"><g class="xtick"><text text-anchor="middle" x="0" y="433" transform="translate(352.5,0)" style="font-family: 'Open Sans', verdana, arial, sans-serif; font-size: 12px; fill: rgb(42, 63, 95); fill-opacity: 1; white-space: pre; opacity: 1;">sim_config_1</text></g></g><g class="yaxislayer-above"><g class="ytick"><text text-anchor="end" x="79" y="4.199999999999999" transform="translate(0,406.47)" style="font-family: 'Open Sans', verdana, arial, sans-serif; font-size: 12px; fill: rgb(42, 63, 95); fill-opacity: 1; white-space: pre; opacity: 1;">6.6</text></g><g class="ytick"><text text-anchor="end" x="79" y="4.199999999999999" style="font-family: 'Open Sans', verdana, arial, sans-serif; font-size: 12px; fill: rgb(42, 63, 95); fill-opacity: 1; white-space: pre; opacity: 1;" transform="translate(0,369.17)">6.58</text></g><g class="ytick"><text text-anchor="end" x="79" y="4.199999999999999" style="font-family: 'Open Sans', verdana, arial, sans-serif; font-size: 12px; fill: rgb(42, 63, 95); fill-opacity: 1; white-space: pre; opacity: 1;" transform="translate(0,331.88)">6.56</text></g><g class="ytick"><text text-anchor="end" x="79" y="4.199999999999999" style="font-family: 'Open Sans', verdana, arial, sans-serif; font-size: 12px; fill: rgb(42, 63, 95); fill-opacity: 1; white-space: pre; opacity: 1;" transform="translate(0,294.58000000000004)">6.54</text></g><g class="ytick"><text text-anchor="end" x="79" y="4.199999999999999" style="font-family: 'Open Sans', verdana, arial, sans-serif; font-size: 12px; fill: rgb(42, 63, 95); fill-opacity: 1; white-space: pre; opacity: 1;" transform="translate(0,257.28)">6.52</text></g><g class="ytick"><text text-anchor="end" x="79" y="4.199999999999999" style="font-family: 'Open Sans', verdana, arial, sans-serif; font-size: 12px; fill: rgb(42, 63, 95); fill-opacity: 1; white-space: pre; opacity: 1;" transform="translate(0,219.98)">6.5</text></g><g class="ytick"><text text-anchor="end" x="79" y="4.199999999999999" style="font-family: 'Open Sans', verdana, arial, sans-serif; font-size: 12px; fill: rgb(42, 63, 95); fill-opacity: 1; white-space: pre; opacity: 1;" transform="translate(0,182.69)">6.48</text></g><g class="ytick"><text text-anchor="end" x="79" y="4.199999999999999" style="font-family: 'Open Sans', verdana, arial, sans-serif; font-size: 12px; fill: rgb(42, 63, 95); fill-opacity: 1; white-space: pre; opacity: 1;" transform="translate(0,145.39)">6.46</text></g><g class="ytick"><text text-anchor="end" x="79" y="4.199999999999999" style="font-family: 'Open Sans', verdana, arial, sans-serif; font-size: 12px; fill: rgb(42, 63, 95); fill-opacity: 1; white-space: pre; opacity: 1;" transform="translate(0,108.09)">6.44</text></g><g class="ytick"><text text-anchor="end" x="79" y="4.199999999999999" style="font-family: 'Open Sans', verdana, arial, sans-serif; font-size: 12px; fill: rgb(42, 63, 95); fill-opacity: 1; white-space: pre; opacity: 1;" transform="translate(0,70.78999999999999)">6.42</text></g></g><g class="overaxes-above"/></g></g><g class="polarlayer"/><g class="smithlayer"/><g class="ternarylayer"/><g class="geolayer"/><g class="funnelarealayer"/><g class="pielayer"/><g class="iciclelayer"/><g class="treemaplayer"/><g class="sunburstlayer"/><g class="glimages"/><defs id="topdefs-7ccab1"><g class="clips"/></defs><g class="layer-above"><g class="imagelayer"/><g class="shapelayer"/></g><g class="infolayer"><g class="g-gtitle"/><g class="g-xtitle"><text class="xtitle" x="350" y="460.3" text-anchor="middle" style="font-family: 'Open Sans', verdana, arial, sans-serif; font-size: 14px; fill: rgb(42, 63, 95); opacity: 1; white-space: pre;">sim_config</text></g><g class="g-ytitle"><text class="ytitle" transform="rotate(-90,36.240625,240)" x="36.240625" y="240" text-anchor="middle" style="font-family: 'Open Sans', verdana, arial, sans-serif; font-size: 14px; fill: rgb(42, 63, 95); opacity: 1; white-space: pre;">exec_time_minutes</text></g></g></svg>