<svg class="main-svg" xmlns="http://www.w3.org/2000/svg" xmlns:xlink="http://www.w3.org/1999/xlink" width="700" height="500" style="" viewBox="0 0 700 500"><rect x="0" y="0" width="700" height="500" style="fill: rgb(255, 255, 255); fill-opacity: 1;"/><defs id="defs-3c16b6"><g class="clips"><clipPath id="clip3c16b6xyplot" class="plotclip"><rect width="540" height="360"/></clipPath><clipPath class="axesclip" id="clip3c16b6x"><rect x="80" y="0" width="540" height="500"/></clipPath><clipPath class="axesclip" id="clip3c16b6y"><rect x="0" y="60" width="700" height="360"/></clipPath><clipPath class="axesclip" id="clip3c16b6xy"><rect x="80" y="60" width="540" height="360"/></clipPath></g><g class="gradients"/><g class="patterns"/></defs><g class="bglayer"><rect class="bg" x="80" y="60" width="540" height="360" style="fill: rgb(229, 236, 246); fill-opacity: 1; stroke-width: 0;"/></g><g class="layer-below"><g class="imagelayer"/><g class="shapelayer"/></g><g class="cartesianlayer"><g class="subplot xy"><g class="layer-subplot"><g class="shapelayer"/><g class="imagelayer"/></g><g class="minor-gridlayer"><g class="x"/><g class="y"/></g><g class="gridlayer"><g class="x"/><g class="y"><path class="ygrid crisp" transform="translate(0,414.63)" d="M80,0h540" style="stroke: rgb(255, 255, 255); stroke-opacity: 1; stroke-width: 1px;"/><path class="ygrid crisp" transform="translate(0,354.38)" d="M80,0h540" style="stroke: rgb(255, 255, 255); stroke-opacity: 1; stroke-width: 1px;"/><path class="ygrid crisp" transform="translate(0,294.13)" d="M80,0h540" style="stroke: rgb(255, 255, 255); stroke-opacity: 1; stroke-width: 1px;"/><path class="ygrid crisp" transform="translate(0,233.87)" d="M80,0h540" style="stroke: rgb(255, 255, 255); stroke-opacity: 1; stroke-width: 1px;"/><path class="ygrid crisp" transform="translate(0,173.62)" d="M80,0h540" style="stroke: rgb(255, 255, 255); stroke-opacity: 1; stroke-width: 1px;"/><path class="ygrid crisp" transform="translate(0,113.37)" d="M80,0h540" style="stroke: rgb(255, 255, 255); stroke-opacity: 1; stroke-width: 1px;"/></g></g><g class="zerolinelayer"/><g class="layer-between"><g class="shapelayer"/><g class="imagelayer"/></g><path class="xlines-below"/><path class="ylines-below"/><g class="overlines-below"/><g class="xaxislayer-below"/><g class="yaxislayer-below"/><g class="overaxes-below"/><g class="plot" transform="translate(80,60)" clip-path="url(#clip3c16b6xyplot)"><g class="violinlayer mlayer"><g class="trace violins" style="opacity: 1;"><path class="violin" d="M277.45,18Q280.27,23.95 282.26,26.76C284.41,29.8 287.06,32.73 290.05,35.51C293.36,38.59 297.28,41.47 301.42,44.27C305.97,47.34 311.11,50.2 316.35,53.03C321.95,56.05 328.05,58.9 334.08,61.78C340.28,64.74 346.81,67.6 353.07,70.54C359.23,73.44 365.55,76.28 371.35,79.3C376.79,82.13 382.25,84.94 386.89,88.05C391.02,90.82 395.11,93.63 397.99,96.81C400.46,99.54 402.71,102.52 403.57,105.57C404.36,108.37 404.23,111.51 403.41,114.32C402.52,117.36 400.31,120.31 398.05,123.08C395.52,126.18 392.09,129.02 388.68,131.84C385.01,134.87 380.83,137.72 376.68,140.59C372.38,143.56 367.8,146.45 363.29,149.35C358.73,152.29 354.03,155.18 349.45,158.11C344.92,161.01 340.33,163.9 335.96,166.86C331.72,169.74 327.48,172.62 323.59,175.62C319.89,178.47 316.29,181.35 313.12,184.38C310.17,187.21 307.41,190.11 305.1,193.14C302.94,195.96 301.11,198.9 299.57,201.89C298.1,204.75 297.01,207.7 296,210.65C295.01,213.54 294.3,216.48 293.54,219.41C292.78,222.32 292.13,225.24 291.45,228.16C290.78,231.08 290.08,233.99 289.49,236.92C288.9,239.83 288.3,242.75 287.9,245.68C287.51,248.59 287.21,251.51 287.12,254.43C287.03,257.35 287.16,260.27 287.34,263.19C287.52,266.11 287.93,269.03 288.21,271.95C288.49,274.87 288.89,277.78 289.01,280.7C289.13,283.62 289.18,286.55 288.95,289.46C288.72,292.39 288.24,295.32 287.61,298.22C286.97,301.16 286.04,304.07 285.11,306.97C284.17,309.9 283.02,312.81 281.99,315.73C280.96,318.65 279.86,321.56 278.93,324.49C278.01,327.39 277.13,330.31 276.41,333.24Q275.7,336.14 274.64,342L270.36,342Q269.3,336.14 268.59,333.24C267.87,330.31 266.99,327.39 266.07,324.49C265.14,321.56 264.04,318.65 263.01,315.73C261.98,312.81 260.83,309.9 259.89,306.97C258.96,304.07 258.03,301.16 257.39,298.22C256.76,295.32 256.28,292.39 256.05,289.46C255.82,286.55 255.87,283.62 255.99,280.7C256.11,277.78 256.51,274.87 256.79,271.95C257.07,269.03 257.48,266.11 257.66,263.19C257.84,260.27 257.97,257.35 257.88,254.43C257.79,251.51 257.49,248.59 257.1,245.68C256.7,242.75 256.1,239.83 255.51,236.92C254.92,233.99 254.22,231.08 253.55,228.16C252.87,225.24 252.22,222.32 251.46,219.41C250.7,216.48 249.99,213.54 249,210.65C247.99,207.7 246.9,204.75 245.43,201.89C243.89,198.9 242.06,195.96 239.9,193.14C237.59,190.11 234.83,187.21 231.88,184.38C228.71,181.35 225.11,178.47 221.41,175.62C217.52,172.62 213.28,169.74 209.04,166.86C204.67,163.9 200.08,161.01 195.55,158.11C190.97,155.18 186.27,152.29 181.71,149.35C177.2,146.45 172.62,143.56 168.32,140.59C164.17,137.72 159.99,134.87 156.32,131.84C152.91,129.02 149.48,126.18 146.95,123.08C144.69,120.31 142.48,117.36 141.59,114.32C140.77,111.51 140.63,108.37 141.42,105.57C142.28,102.52 144.54,99.54 147.01,96.81C149.89,93.63 153.98,90.82 158.11,88.05C162.75,84.94 168.21,82.13 173.65,79.3C179.45,76.28 185.77,73.44 191.93,70.54C198.19,67.6 204.72,64.74 210.92,61.78C216.95,58.9 223.05,56.05 228.65,53.03C233.89,50.2 239.03,47.34 243.58,44.27C247.72,41.47 251.64,38.59 254.95,35.51C257.94,32.73 260.59,29.8 262.74,26.76Q264.73,23.95 267.55,18Z" style="vector-effect: none; stroke-width: 2px; stroke: rgb(99, 110, 250); stroke-opacity: 1; fill: rgb(99, 110, 250); fill-opacity: 0.5;"/><path class="box" d="M239.73,117.04H305.27M239.73,96.03H305.27V154.3H239.73ZM272.5,96.03V71.23M272.5,154.3V222.22" style="vector-effect: non-scaling-stroke; stroke-width: 2px; stroke: rgb(99, 110, 250); stroke-opacity: 1; fill: rgb(99, 110, 250); fill-opacity: 0.5;"/><g class="points"><path class="point" transform="translate(94.93,71.23)" d="M5,0A5,5 0 1,1 0,-5A5,5 0 0,1 5,0Z" style="opacity: 1; stroke-width: 0px; fill: rgb(99, 110, 250); fill-opacity: 1;"/><path class="point" transform="translate(51.27,74.02)" d="M5,0A5,5 0 1,1 0,-5A5,5 0 0,1 5,0Z" style="opacity: 1; stroke-width: 0px; fill: rgb(99, 110, 250); fill-opacity: 1;"/><path class="point" transform="translate(106.38,85.93)" d="M5,0A5,5 0 1,1 0,-5A5,5 0 0,1 5,0Z" style="opacity: 1; stroke-width: 0px; fill: rgb(99, 110, 250); fill-opacity: 1;"/><path class="point" transform="translate(42.77,94.22)" d="M5,0A5,5 0 1,1 0,-5A5,5 0 0,1 5,0Z" style="opacity: 1; stroke-width: 0px; fill: rgb(99, 110, 250); fill-opacity: 1;"/><path class="point" transform="translate(66.59,101.45)" d="M5,0A5,5 0 1,1 0,-5A5,5 0 0,1 5,0Z" style="opacity: 1; stroke-width: 0px; fill: rgb(99, 110, 250); fill-opacity: 1;"/><path class="point" transform="translate(95.1,108.8)" d="M5,0A5,5 0 1,1 0,-5A5,5 0 0,1 5,0Z" style="opacity: 1; stroke-width: 0px; fill: rgb(99, 110, 250); fill-opacity: 1;"/><path class="point" transform="translate(74.59,111.92)" d="M5,0A5,5 0 1,1 0,-5A5,5 0 0,1 5,0Z" style="opacity: 1; stroke-width: 0px; fill: rgb(99, 110, 250); fill-opacity: 1;"/><path class="point" transform="translate(85.82,117.04)" d="M5,0A5,5 0 1,1 0,-5A5,5 0 0,1 5,0Z" style="opacity: 1; stroke-width: 0px; fill: rgb(99, 110, 250); fill-opacity: 1;"/><path class="point" transform="translate(66.92,124.03)" d="M5,0A5,5 0 1,1 0,-5A5,5 0 0,1 5,0Z" style="opacity: 1; stroke-width: 0px; fill: rgb(99, 110, 250); fill-opacity: 1;"/><path class="point" transform="translate(58.85,135.19)" d="M5,0A5,5 0 1,1 0,-5A5,5 0 0,1 5,0Z" style="opacity: 1; stroke-width: 0px; fill: rgb(99, 110, 250); fill-opacity: 1;"/><path class="point" transform="translate(81.9,146.78)" d="M5,0A5,5 0 1,1 0,-5A5,5 0 0,1 5,0Z" style="opacity: 1; stroke-width: 0px; fill: rgb(99, 110, 250); fill-opacity: 1;"/><path class="point" transform="translate(68.85,156.8)" d="M5,0A5,5 0 1,1 0,-5A5,5 0 0,1 5,0Z" style="opacity: 1; stroke-width: 0px; fill: rgb(99, 110, 250); fill-opacity: 1;"/><path class="point" transform="translate(88.76,172.17)" d="M5,0A5,5 0 1,1 0,-5A5,5 0 0,1 5,0Z" style="opacity: 1; stroke-width: 0px; fill: rgb(99, 110, 250); fill-opacity: 1;"/><path class="point" transform="translate(57.2,222.22)" d="M5,0A5,5 0 1,1 0,-5A5,5 0 0,1 5,0Z" style="opacity: 1; stroke-width: 0px; fill: rgb(99, 110, 250); fill-opacity: 1;"/><path class="point" transform="translate(65.39,288.77)" d="M5,0A5,5 0 1,1 0,-5A5,5 0 0,1 5,0Z" style="opacity: 1; stroke-width: 0px; fill: rgb(99, 110, 250); fill-opacity: 1;"/></g></g></g></g><g class="overplot"/><path class="xlines-above crisp" d="M0,0" style="fill: none;"/><path class="ylines-above crisp" d="M0,0" style="fill: none;"/><g class="overlines-above"/><g class="xaxislayer-above"><g class="xtick"><text text-anchor="middle" x="0" y="433" transform="translate(352.5,0)" style="font-family: 'Open Sans', verdana, arial, sans-serif; font-size: 12px; fill: rgb(42, 63, 95); fill-opacity: 1; white-space: pre; opacity: 1;">sim_config_3</text></g></g><g class="yaxislayer-above"><g class="ytick"><text text-anchor="end" x="79" y="4.199999999999999" transform="translate(0,414.63)" style="font-family: 'Open Sans', verdana, arial, sans-serif; font-size: 12px; fill: rgb(42, 63, 95); fill-opacity: 1; white-space: pre; opacity: 1;">9.35</text></g><g class="ytick"><text text-anchor="end" x="79" y="4.199999999999999" style="font-family: 'Open Sans', verdana, arial, sans-serif; font-size: 12px; fill: rgb(42, 63, 95); fill-opacity: 1; white-space: pre; opacity: 1;" transform="translate(0,354.38)">9.3</text></g><g class="ytick"><text text-anchor="end" x="79" y="4.199999999999999" style="font-family: 'Open Sans', verdana, arial, sans-serif; font-size: 12px; fill: rgb(42, 63, 95); fill-opacity: 1; white-space: pre; opacity: 1;" transform="translate(0,294.13)">9.25</text></g><g class="ytick"><text text-anchor="end" x="79" y="4.199999999999999" style="font-family: 'Open Sans', verdana, arial, sans-serif; font-size: 12px; fill: rgb(42, 63, 95); fill-opacity: 1; white-space: pre; opacity: 1;" transform="translate(0,233.87)">9.2</text></g><g class="ytick"><text text-anchor="end" x="79" y="4.199999999999999" style="font-family: 'Open Sans', verdana, arial, sans-serif; font-size: 12px; fill: rgb(42, 63, 95); fill-opacity: 1; white-space: pre; opacity: 1;" transform="translate(0,173.62)">9.15</text></g><g class="ytick"><text text-anchor="end" x="79" y="4.199999999999999" style="font-family: 'Open Sans', verdana, arial, sans-serif; font-size: 12px; fill: rgb(42, 63, 95); fill-opacity: 1; white-space: pre; opacity: 1;" transform="translate(0,113.37)">9.1</text></g></g><g class="overaxes-above"/></g></g><g class="polarlayer"/><g class="smithlayer"/><g class="ternarylayer"/><g class="geolayer"/><g class="funnelarealayer"/><g class="pielayer"/><g class="iciclelayer"/><g class="treemaplayer"/><g class="sunburstlayer"/><g class="glimages"/><defs id="topdefs-3c16b6"><g class="clips"/></defs><g class="layer-above"><g class="imagelayer"/><g class="shapelayer"/></g><g class="infolayer"><g class="g-gtitle"/><g class="g-xtitle"><text class="xtitle" x="350" y="460.3" text-anchor="middle" style="font-family: 'Open Sans', verdana, arial, sans-serif; font-size: 14px; fill: rgb(42, 63, 95); opacity: 1; white-space: pre;">sim_config</text></g><g class="g-ytitle"><text class="ytitle" transform="rotate(-90,36.240625,240)" x="36.240625" y="240" text-anchor="middle" style="font-family: 'Open Sans', verdana, arial, sans-serif; font-size: 14px; fill: rgb(42, 63, 95); opacity: 1; white-space: pre;">exec_time_minutes</text></g></g></svg>