<svg class="main-svg" xmlns="http://www.w3.org/2000/svg" xmlns:xlink="http://www.w3.org/1999/xlink" width="700" height="500" style="" viewBox="0 0 700 500"><rect x="0" y="0" width="700" height="500" style="fill: rgb(255, 255, 255); fill-opacity: 1;"/><defs id="defs-d088ca"><g class="clips"><clipPath id="clipd088caxyplot" class="plotclip"><rect width="540" height="360"/></clipPath><clipPath class="axesclip" id="clipd088cax"><rect x="80" y="0" width="540" height="500"/></clipPath><clipPath class="axesclip" id="clipd088cay"><rect x="0" y="60" width="700" height="360"/></clipPath><clipPath class="axesclip" id="clipd088caxy"><rect x="80" y="60" width="540" height="360"/></clipPath></g><g class="gradients"/><g class="patterns"/></defs><g class="bglayer"><rect class="bg" x="80" y="60" width="540" height="360" style="fill: rgb(229, 236, 246); fill-opacity: 1; stroke-width: 0;"/></g><g class="layer-below"><g class="imagelayer"/><g class="shapelayer"/></g><g class="cartesianlayer"><g class="subplot xy"><g class="layer-subplot"><g class="shapelayer"/><g class="imagelayer"/></g><g class="minor-gridlayer"><g class="x"/><g class="y"/></g><g class="gridlayer"><g class="x"/><g class="y"><path class="ygrid crisp" transform="translate(0,360.27)" d="M80,0h540" style="stroke: rgb(255, 255, 255); stroke-opacity: 1; stroke-width: 1px;"/><path class="ygrid crisp" transform="translate(0,276.53999999999996)" d="M80,0h540" style="stroke: rgb(255, 255, 255); stroke-opacity: 1; stroke-width: 1px;"/><path class="ygrid crisp" transform="translate(0,192.8)" d="M80,0h540" style="stroke: rgb(255, 255, 255); stroke-opacity: 1; stroke-width: 1px;"/><path class="ygrid crisp" transform="translate(0,109.07)" d="M80,0h540" style="stroke: rgb(255, 255, 255); stroke-opacity: 1; stroke-width: 1px;"/></g></g><g class="zerolinelayer"/><g class="layer-between"><g class="shapelayer"/><g class="imagelayer"/></g><path class="xlines-below"/><path class="ylines-below"/><g class="overlines-below"/><g class="xaxislayer-below"/><g class="yaxislayer-below"/><g class="overaxes-below"/><g class="plot" transform="translate(80,60)" clip-path="url(#clipd088caxyplot)"><g class="violinlayer mlayer"><g class="trace violins" style="opacity: 1;"><path class="violin" d="M275.64,18Q277.22,25.75 278.35,29.57C279.5,33.46 280.87,37.33 282.51,41.14C284.19,45.05 286.14,48.92 288.34,52.71C290.62,56.64 293.2,60.51 296.02,64.29C298.96,68.23 302.18,72.09 305.67,75.86C309.34,79.82 313.33,83.67 317.58,87.43C322.07,91.4 326.94,95.23 332,99C337.32,102.96 343.05,106.76 348.79,110.57C354.68,114.48 360.96,118.25 366.89,122.14C372.7,125.96 378.81,129.68 384.02,133.71C388.82,137.42 393.79,141.12 397.14,145.29C400.06,148.91 402.78,152.87 403.57,156.86C404.31,160.6 403.61,164.74 402.22,168.43C400.69,172.49 397.34,176.29 394.21,180C390.82,184.02 386.41,187.73 382.43,191.57C378.41,195.45 374.03,199.2 370.19,203.14C366.5,206.92 362.91,210.75 359.77,214.71C356.78,218.48 354.2,222.38 351.72,226.29C349.31,230.1 347.31,234.01 345.08,237.86C342.84,241.72 340.74,245.62 338.31,249.43C335.82,253.34 333.16,257.2 330.29,261C327.33,264.92 324.06,268.75 320.78,272.57C317.44,276.46 313.84,280.28 310.41,284.14C306.99,287.99 303.45,291.8 300.23,295.71C297.09,299.52 294,303.36 291.3,307.29C288.7,311.08 286.29,314.93 284.25,318.86C282.29,322.65 280.62,326.52 279.24,330.43Q277.9,334.24 276.04,342L268.96,342Q267.1,334.24 265.76,330.43C264.38,326.52 262.71,322.65 260.75,318.86C258.71,314.93 256.3,311.08 253.7,307.29C251,303.36 247.91,299.52 244.77,295.71C241.55,291.8 238.01,287.99 234.59,284.14C231.16,280.28 227.56,276.46 224.22,272.57C220.94,268.75 217.67,264.92 214.71,261C211.84,257.2 209.18,253.34 206.69,249.43C204.26,245.62 202.16,241.72 199.92,237.86C197.69,234.01 195.69,230.1 193.28,226.29C190.8,222.38 188.22,218.48 185.23,214.71C182.09,210.75 178.5,206.92 174.81,203.14C170.97,199.2 166.59,195.45 162.57,191.57C158.59,187.73 154.18,184.02 150.79,180C147.66,176.29 144.31,172.49 142.78,168.43C141.39,164.74 140.68,160.6 141.42,156.86C142.21,152.87 144.94,148.91 147.86,145.29C151.21,141.12 156.18,137.42 160.98,133.71C166.19,129.68 172.3,125.96 178.11,122.14C184.04,118.25 190.32,114.48 196.21,110.57C201.95,106.76 207.68,102.96 213,99C218.06,95.23 222.93,91.4 227.42,87.43C231.67,83.67 235.66,79.82 239.33,75.86C242.82,72.09 246.04,68.23 248.98,64.29C251.8,60.51 254.38,56.64 256.66,52.71C258.86,48.92 260.81,45.05 262.49,41.14C264.13,37.33 265.5,33.46 266.65,29.57Q267.78,25.75 269.36,18Z" style="vector-effect: none; stroke-width: 2px; stroke: rgb(99, 110, 250); stroke-opacity: 1; fill: rgb(99, 110, 250); fill-opacity: 0.5;"/><path class="box" d="M239.73,168.46H305.27M239.73,145.28H305.27V226.98H239.73ZM272.5,145.28V89.98M272.5,226.98V270.02" style="vector-effect: non-scaling-stroke; stroke-width: 2px; stroke: rgb(99, 110, 250); stroke-opacity: 1; fill: rgb(99, 110, 250); fill-opacity: 0.5;"/><g class="points"><path class="point" transform="translate(94.59,89.98)" d="M5,0A5,5 0 1,1 0,-5A5,5 0 0,1 5,0Z" style="opacity: 1; stroke-width: 0px; fill: rgb(99, 110, 250); fill-opacity: 1;"/><path class="point" transform="translate(50.82,136.68)" d="M5,0A5,5 0 1,1 0,-5A5,5 0 0,1 5,0Z" style="opacity: 1; stroke-width: 0px; fill: rgb(99, 110, 250); fill-opacity: 1;"/><path class="point" transform="translate(101.88,145.28)" d="M5,0A5,5 0 1,1 0,-5A5,5 0 0,1 5,0Z" style="opacity: 1; stroke-width: 0px; fill: rgb(99, 110, 250); fill-opacity: 1;"/><path class="point" transform="translate(47.02,155.83)" d="M5,0A5,5 0 1,1 0,-5A5,5 0 0,1 5,0Z" style="opacity: 1; stroke-width: 0px; fill: rgb(99, 110, 250); fill-opacity: 1;"/><path class="point" transform="translate(67.72,162.33)" d="M5,0A5,5 0 1,1 0,-5A5,5 0 0,1 5,0Z" style="opacity: 1; stroke-width: 0px; fill: rgb(99, 110, 250); fill-opacity: 1;"/><path class="point" transform="translate(93.29,174.59)" d="M5,0A5,5 0 1,1 0,-5A5,5 0 0,1 5,0Z" style="opacity: 1; stroke-width: 0px; fill: rgb(99, 110, 250); fill-opacity: 1;"/><path class="point" transform="translate(74.54,175.28)" d="M5,0A5,5 0 1,1 0,-5A5,5 0 0,1 5,0Z" style="opacity: 1; stroke-width: 0px; fill: rgb(99, 110, 250); fill-opacity: 1;"/><path class="point" transform="translate(86.07,226.98)" d="M5,0A5,5 0 1,1 0,-5A5,5 0 0,1 5,0Z" style="opacity: 1; stroke-width: 0px; fill: rgb(99, 110, 250); fill-opacity: 1;"/><path class="point" transform="translate(65.04,240.99)" d="M5,0A5,5 0 1,1 0,-5A5,5 0 0,1 5,0Z" style="opacity: 1; stroke-width: 0px; fill: rgb(99, 110, 250); fill-opacity: 1;"/><path class="point" transform="translate(52.47,270.02)" d="M5,0A5,5 0 1,1 0,-5A5,5 0 0,1 5,0Z" style="opacity: 1; stroke-width: 0px; fill: rgb(99, 110, 250); fill-opacity: 1;"/></g></g></g></g><g class="overplot"/><path class="xlines-above crisp" d="M0,0" style="fill: none;"/><path class="ylines-above crisp" d="M0,0" style="fill: none;"/><g class="overlines-above"/><g class="xaxislayer-above"><g class="xtick"><text text-anchor="middle" x="0" y="433" transform="translate(352.5,0)" style="font-family: 'Open Sans', verdana, arial, sans-serif; font-size: 12px; fill: rgb(42, 63, 95); fill-opacity: 1; white-space: pre; opacity: 1;">sim_config_6</text></g></g><g class="yaxislayer-above"><g class="ytick"><text text-anchor="end" x="79" y="4.199999999999999" transform="translate(0,360.27)" style="font-family: 'Open Sans', verdana, arial, sans-serif; font-size: 12px; fill: rgb(42, 63, 95); fill-opacity: 1; white-space: pre; opacity: 1;">6.65</text></g><g class="ytick"><text text-anchor="end" x="79" y="4.199999999999999" style="font-family: 'Open Sans', verdana, arial, sans-serif; font-size: 12px; fill: rgb(42, 63, 95); fill-opacity: 1; white-space: pre; opacity: 1;" transform="translate(0,276.53999999999996)">6.6</text></g><g class="ytick"><text text-anchor="end" x="79" y="4.199999999999999" style="font-family: 'Open Sans', verdana, arial, sans-serif; font-size: 12px; fill: rgb(42, 63, 95); fill-opacity: 1; white-space: pre; opacity: 1;" transform="translate(0,192.8)">6.55</text></g><g class="ytick"><text text-anchor="end" x="79" y="4.199999999999999" style="font-family: 'Open Sans', verdana, arial, sans-serif; font-size: 12px; fill: rgb(42, 63, 95); fill-opacity: 1; white-space: pre; opacity: 1;" transform="translate(0,109.07)">6.5</text></g></g><g class="overaxes-above"/></g></g><g class="polarlayer"/><g class="smithlayer"/><g class="ternarylayer"/><g class="geolayer"/><g class="funnelarealayer"/><g class="pielayer"/><g class="iciclelayer"/><g class="treemaplayer"/><g class="sunburstlayer"/><g class="glimages"/><defs id="topdefs-d088ca"><g class="clips"/></defs><g class="layer-above"><g class="imagelayer"/><g class="shapelayer"/></g><g class="infolayer"><g class="g-gtitle"/><g class="g-xtitle"><text class="xtitle" x="350" y="460.3" text-anchor="middle" style="font-family: 'Open Sans', verdana, arial, sans-serif; font-size: 14px; fill: rgb(42, 63, 95); opacity: 1; white-space: pre;">sim_config</text></g><g class="g-ytitle"><text class="ytitle" transform="rotate(-90,36.240625,240)" x="36.240625" y="240" text-anchor="middle" style="font-family: 'Open Sans', verdana, arial, sans-serif; font-size: 14px; fill: rgb(42, 63, 95); opacity: 1; white-space: pre;">exec_time_minutes</text></g></g></svg>