<svg class="main-svg" xmlns="http://www.w3.org/2000/svg" xmlns:xlink="http://www.w3.org/1999/xlink" width="700" height="500" style="" viewBox="0 0 700 500"><rect x="0" y="0" width="700" height="500" style="fill: rgb(255, 255, 255); fill-opacity: 1;"/><defs id="defs-6e3617"><g class="clips"><clipPath id="clip6e3617xyplot" class="plotclip"><rect width="540" height="360"/></clipPath><clipPath class="axesclip" id="clip6e3617x"><rect x="80" y="0" width="540" height="500"/></clipPath><clipPath class="axesclip" id="clip6e3617y"><rect x="0" y="60" width="700" height="360"/></clipPath><clipPath class="axesclip" id="clip6e3617xy"><rect x="80" y="60" width="540" height="360"/></clipPath></g><g class="gradients"/><g class="patterns"/></defs><g class="bglayer"><rect class="bg" x="80" y="60" width="540" height="360" style="fill: rgb(229, 236, 246); fill-opacity: 1; stroke-width: 0;"/></g><g class="layer-below"><g class="imagelayer"/><g class="shapelayer"/></g><g class="cartesianlayer"><g class="subplot xy"><g class="layer-subplot"><g class="shapelayer"/><g class="imagelayer"/></g><g class="minor-gridlayer"><g class="x"/><g class="y"/></g><g class="gridlayer"><g class="x"/><g class="y"><path class="ygrid crisp" transform="translate(0,380.27)" d="M80,0h540" style="stroke: rgb(255, 255, 255); stroke-opacity: 1; stroke-width: 1px;"/><path class="ygrid crisp" transform="translate(0,296.01)" d="M80,0h540" style="stroke: rgb(255, 255, 255); stroke-opacity: 1; stroke-width: 1px;"/><path class="ygrid crisp" transform="translate(0,211.76)" d="M80,0h540" style="stroke: rgb(255, 255, 255); stroke-opacity: 1; stroke-width: 1px;"/><path class="ygrid crisp" transform="translate(0,127.51)" d="M80,0h540" style="stroke: rgb(255, 255, 255); stroke-opacity: 1; stroke-width: 1px;"/></g></g><g class="zerolinelayer"/><g class="layer-between"><g class="shapelayer"/><g class="imagelayer"/></g><path class="xlines-below"/><path class="ylines-below"/><g class="overlines-below"/><g class="xaxislayer-below"/><g class="yaxislayer-below"/><g class="overaxes-below"/><g class="plot" transform="translate(80,60)" clip-path="url(#clip6e3617xyplot)"><g class="violinlayer mlayer"><g class="trace violins" style="opacity: 1;"><path class="violin" d="M275.5,18Q276.97,23.87 277.94,26.76C278.93,29.7 280.13,32.62 281.41,35.51C282.71,38.45 284.22,41.36 285.67,44.27C287.12,47.2 288.72,50.09 290.11,53.03C291.48,55.93 292.85,58.83 293.97,61.78C295.06,64.67 295.97,67.6 296.76,70.54C297.54,73.44 297.99,76.39 298.69,79.3C299.39,82.22 299.88,85.19 300.97,88.05C302.1,91.03 303.46,94.03 305.44,96.81C307.64,99.9 310.57,102.82 313.86,105.57C317.61,108.71 322.26,111.53 327.02,114.32C332.27,117.4 338.27,120.21 344.13,123.08C350.22,126.06 356.79,128.88 362.92,131.84C368.87,134.72 375.03,137.52 380.41,140.59C385.29,143.38 390.2,146.16 393.94,149.35C397.14,152.08 400.26,154.96 401.84,158.11C403.21,160.85 403.94,164 403.57,166.86C403.18,169.85 401.36,172.89 399.28,175.62C396.86,178.8 393.17,181.62 389.41,184.38C385.14,187.51 379.97,190.33 374.77,193.14C369.13,196.19 362.87,199.01 356.73,201.89C350.4,204.85 343.69,207.69 337.34,210.65C331.15,213.53 324.8,216.37 319.08,219.41C313.79,222.22 308.54,225.04 304.14,228.16C300.26,230.92 296.55,233.77 293.86,236.92C291.52,239.67 289.58,242.64 288.51,245.68C287.52,248.5 287.28,251.52 287.37,254.43C287.46,257.36 288.31,260.29 289.05,263.19C289.8,266.13 291,269.02 291.85,271.95C292.69,274.86 293.65,277.76 294.12,280.7C294.59,283.6 294.85,286.55 294.69,289.46C294.53,292.39 293.93,295.34 293.13,298.22C292.31,301.18 291.05,304.08 289.8,306.97C288.53,309.92 286.97,312.81 285.57,315.73C284.17,318.65 282.66,321.55 281.38,324.49C280.12,327.39 278.93,330.3 277.94,333.24Q276.97,336.13 275.49,342L269.51,342Q268.03,336.13 267.06,333.24C266.07,330.3 264.88,327.39 263.62,324.49C262.34,321.55 260.83,318.65 259.43,315.73C258.03,312.81 256.47,309.92 255.2,306.97C253.95,304.08 252.69,301.18 251.87,298.22C251.07,295.34 250.47,292.39 250.31,289.46C250.15,286.55 250.41,283.6 250.88,280.7C251.35,277.76 252.31,274.86 253.15,271.95C254,269.02 255.2,266.13 255.95,263.19C256.69,260.29 257.54,257.36 257.63,254.43C257.72,251.52 257.48,248.5 256.49,245.68C255.42,242.64 253.48,239.67 251.14,236.92C248.45,233.77 244.74,230.92 240.86,228.16C236.46,225.04 231.21,222.22 225.92,219.41C220.2,216.37 213.85,213.53 207.66,210.65C201.31,207.69 194.6,204.85 188.27,201.89C182.13,199.01 175.87,196.19 170.23,193.14C165.03,190.33 159.86,187.51 155.59,184.38C151.83,181.62 148.14,178.8 145.72,175.62C143.64,172.89 141.81,169.85 141.42,166.86C141.05,164 141.78,160.85 143.16,158.11C144.74,154.96 147.86,152.08 151.06,149.35C154.8,146.16 159.71,143.38 164.59,140.59C169.97,137.52 176.13,134.72 182.08,131.84C188.21,128.88 194.78,126.06 200.87,123.08C206.73,120.21 212.73,117.4 217.98,114.32C222.74,111.53 227.39,108.71 231.14,105.57C234.43,102.82 237.36,99.9 239.56,96.81C241.54,94.03 242.9,91.03 244.03,88.05C245.12,85.19 245.61,82.22 246.31,79.3C247.01,76.39 247.46,73.44 248.24,70.54C249.03,67.6 249.94,64.67 251.03,61.78C252.15,58.83 253.52,55.93 254.89,53.03C256.28,50.09 257.88,47.2 259.33,44.27C260.78,41.36 262.29,38.45 263.59,35.51C264.87,32.62 266.07,29.7 267.06,26.76Q268.03,23.87 269.5,18Z" style="vector-effect: none; stroke-width: 2px; stroke: rgb(99, 110, 250); stroke-opacity: 1; fill: rgb(99, 110, 250); fill-opacity: 0.5;"/><path class="box" d="M239.73,162.95H305.27M239.73,139.38H305.27V193.83H239.73ZM272.5,139.38V71.95M272.5,193.83V194.25" style="vector-effect: non-scaling-stroke; stroke-width: 2px; stroke: rgb(99, 110, 250); stroke-opacity: 1; fill: rgb(99, 110, 250); fill-opacity: 0.5;"/><g class="points"><path class="point" transform="translate(93.85,71.95)" d="M5,0A5,5 0 1,1 0,-5A5,5 0 0,1 5,0Z" style="opacity: 1; stroke-width: 0px; fill: rgb(99, 110, 250); fill-opacity: 1;"/><path class="point" transform="translate(53.39,138.84)" d="M5,0A5,5 0 1,1 0,-5A5,5 0 0,1 5,0Z" style="opacity: 1; stroke-width: 0px; fill: rgb(99, 110, 250); fill-opacity: 1;"/><path class="point" transform="translate(104.46,139.38)" d="M5,0A5,5 0 1,1 0,-5A5,5 0 0,1 5,0Z" style="opacity: 1; stroke-width: 0px; fill: rgb(99, 110, 250); fill-opacity: 1;"/><path class="point" transform="translate(42.63,151.9)" d="M5,0A5,5 0 1,1 0,-5A5,5 0 0,1 5,0Z" style="opacity: 1; stroke-width: 0px; fill: rgb(99, 110, 250); fill-opacity: 1;"/><path class="point" transform="translate(68.16,155.33)" d="M5,0A5,5 0 1,1 0,-5A5,5 0 0,1 5,0Z" style="opacity: 1; stroke-width: 0px; fill: rgb(99, 110, 250); fill-opacity: 1;"/><path class="point" transform="translate(92.36,170.58)" d="M5,0A5,5 0 1,1 0,-5A5,5 0 0,1 5,0Z" style="opacity: 1; stroke-width: 0px; fill: rgb(99, 110, 250); fill-opacity: 1;"/><path class="point" transform="translate(74.56,185.8)" d="M5,0A5,5 0 1,1 0,-5A5,5 0 0,1 5,0Z" style="opacity: 1; stroke-width: 0px; fill: rgb(99, 110, 250); fill-opacity: 1;"/><path class="point" transform="translate(85.56,193.83)" d="M5,0A5,5 0 1,1 0,-5A5,5 0 0,1 5,0Z" style="opacity: 1; stroke-width: 0px; fill: rgb(99, 110, 250); fill-opacity: 1;"/><path class="point" transform="translate(65.59,194.25)" d="M5,0A5,5 0 1,1 0,-5A5,5 0 0,1 5,0Z" style="opacity: 1; stroke-width: 0px; fill: rgb(99, 110, 250); fill-opacity: 1;"/><path class="point" transform="translate(54.01,288.05)" d="M5,0A5,5 0 1,1 0,-5A5,5 0 0,1 5,0Z" style="opacity: 1; stroke-width: 0px; fill: rgb(99, 110, 250); fill-opacity: 1;"/></g></g></g></g><g class="overplot"/><path class="xlines-above crisp" d="M0,0" style="fill: none;"/><path class="ylines-above crisp" d="M0,0" style="fill: none;"/><g class="overlines-above"/><g class="xaxislayer-above"><g class="xtick"><text text-anchor="middle" x="0" y="433" transform="translate(352.5,0)" style="font-family: 'Open Sans', verdana, arial, sans-serif; font-size: 12px; fill: rgb(42, 63, 95); fill-opacity: 1; white-space: pre; opacity: 1;">sim_config_8</text></g></g><g class="yaxislayer-above"><g class="ytick"><text text-anchor="end" x="79" y="4.199999999999999" transform="translate(0,380.27)" style="font-family: 'Open Sans', verdana, arial, sans-serif; font-size: 12px; fill: rgb(42, 63, 95); fill-opacity: 1; white-space: pre; opacity: 1;">5.1</text></g><g class="ytick"><text text-anchor="end" x="79" y="4.199999999999999" style="font-family: 'Open Sans', verdana, arial, sans-serif; font-size: 12px; fill: rgb(42, 63, 95); fill-opacity: 1; white-space: pre; opacity: 1;" transform="translate(0,296.01)">5.05</text></g><g class="ytick"><text text-anchor="end" x="79" y="4.199999999999999" style="font-family: 'Open Sans', verdana, arial, sans-serif; font-size: 12px; fill: rgb(42, 63, 95); fill-opacity: 1; white-space: pre; opacity: 1;" transform="translate(0,211.76)">5</text></g><g class="ytick"><text text-anchor="end" x="79" y="4.199999999999999" style="font-family: 'Open Sans', verdana, arial, sans-serif; font-size: 12px; fill: rgb(42, 63, 95); fill-opacity: 1; white-space: pre; opacity: 1;" transform="translate(0,127.51)">4.95</text></g></g><g class="overaxes-above"/></g></g><g class="polarlayer"/><g class="smithlayer"/><g class="ternarylayer"/><g class="geolayer"/><g class="funnelarealayer"/><g class="pielayer"/><g class="iciclelayer"/><g class="treemaplayer"/><g class="sunburstlayer"/><g class="glimages"/><defs id="topdefs-6e3617"><g class="clips"/></defs><g class="layer-above"><g class="imagelayer"/><g class="shapelayer"/></g><g class="infolayer"><g class="g-gtitle"/><g class="g-xtitle"><text class="xtitle" x="350" y="460.3" text-anchor="middle" style="font-family: 'Open Sans', verdana, arial, sans-serif; font-size: 14px; fill: rgb(42, 63, 95); opacity: 1; white-space: pre;">sim_config</text></g><g class="g-ytitle"><text class="ytitle" transform="rotate(-90,36.240625,240)" x="36.240625" y="240" text-anchor="middle" style="font-family: 'Open Sans', verdana, arial, sans-serif; font-size: 14px; fill: rgb(42, 63, 95); opacity: 1; white-space: pre;">exec_time_minutes</text></g></g></svg>