<svg class="main-svg" xmlns="http://www.w3.org/2000/svg" xmlns:xlink="http://www.w3.org/1999/xlink" width="700" height="500" style="" viewBox="0 0 700 500"><rect x="0" y="0" width="700" height="500" style="fill: rgb(255, 255, 255); fill-opacity: 1;"/><defs id="defs-a13c65"><g class="clips"><clipPath id="clipa13c65xyplot" class="plotclip"><rect width="540" height="360"/></clipPath><clipPath class="axesclip" id="clipa13c65x"><rect x="80" y="0" width="540" height="500"/></clipPath><clipPath class="axesclip" id="clipa13c65y"><rect x="0" y="60" width="700" height="360"/></clipPath><clipPath class="axesclip" id="clipa13c65xy"><rect x="80" y="60" width="540" height="360"/></clipPath></g><g class="gradients"/><g class="patterns"/></defs><g class="bglayer"><rect class="bg" x="80" y="60" width="540" height="360" style="fill: rgb(229, 236, 246); fill-opacity: 1; stroke-width: 0;"/></g><g class="layer-below"><g class="imagelayer"/><g class="shapelayer"/></g><g class="cartesianlayer"><g class="subplot xy"><g class="layer-subplot"><g class="shapelayer"/><g class="imagelayer"/></g><g class="minor-gridlayer"><g class="x"/><g class="y"/></g><g class="gridlayer"><g class="x"/><g class="y"><path class="ygrid crisp" transform="translate(0,397.19)" d="M80,0h540" style="stroke: rgb(255, 255, 255); stroke-opacity: 1; stroke-width: 1px;"/><path class="ygrid crisp" transform="translate(0,352.46)" d="M80,0h540" style="stroke: rgb(255, 255, 255); stroke-opacity: 1; stroke-width: 1px;"/><path class="ygrid crisp" transform="translate(0,307.74)" d="M80,0h540" style="stroke: rgb(255, 255, 255); stroke-opacity: 1; stroke-width: 1px;"/><path class="ygrid crisp" transform="translate(0,263.01)" d="M80,0h540" style="stroke: rgb(255, 255, 255); stroke-opacity: 1; stroke-width: 1px;"/><path class="ygrid crisp" transform="translate(0,218.29)" d="M80,0h540" style="stroke: rgb(255, 255, 255); stroke-opacity: 1; stroke-width: 1px;"/><path class="ygrid crisp" transform="translate(0,173.56)" d="M80,0h540" style="stroke: rgb(255, 255, 255); stroke-opacity: 1; stroke-width: 1px;"/><path class="ygrid crisp" transform="translate(0,128.84)" d="M80,0h540" style="stroke: rgb(255, 255, 255); stroke-opacity: 1; stroke-width: 1px;"/><path class="ygrid crisp" transform="translate(0,84.11)" d="M80,0h540" style="stroke: rgb(255, 255, 255); stroke-opacity: 1; stroke-width: 1px;"/></g></g><g class="zerolinelayer"/><g class="layer-between"><g class="shapelayer"/><g class="imagelayer"/></g><path class="xlines-below"/><path class="ylines-below"/><g class="overlines-below"/><g class="xaxislayer-below"/><g class="yaxislayer-below"/><g class="overaxes-below"/><g class="plot" transform="translate(80,60)" clip-path="url(#clipa13c65xyplot)"><g class="violinlayer mlayer"><g class="trace violins" style="opacity: 1;"><path class="violin" d="M275.33,18Q276.88,23.31 278.02,25.9C279.2,28.58 280.64,31.23 282.33,33.8C284.12,36.51 286.24,39.15 288.55,41.71C291.01,44.43 293.81,47.04 296.73,49.61C299.8,52.32 303.16,54.92 306.57,57.51C310.1,60.19 313.82,62.8 317.55,65.41C321.35,68.07 325.26,70.7 329.17,73.32C333.12,75.97 337.11,78.6 341.12,81.22C345.16,83.86 349.24,86.49 353.33,89.12C357.44,91.76 361.61,94.37 365.71,97.02C369.77,99.64 373.92,102.24 377.81,104.93C381.55,107.52 385.34,110.09 388.64,112.83C391.69,115.37 394.69,117.95 396.99,120.73C399.06,123.24 400.91,125.89 402.01,128.63C403.03,131.17 403.55,133.9 403.57,136.54C403.59,139.17 403,141.87 402.13,144.44C401.21,147.14 399.78,149.8 398.08,152.34C396.25,155.08 393.96,157.72 391.37,160.24C388.51,163.02 385.14,165.63 381.52,168.15C377.51,170.93 372.95,173.51 368.25,176.05C363.17,178.79 357.58,181.36 352.03,183.95C346.27,186.63 340.16,189.2 334.3,191.85C328.5,194.47 322.55,197.05 317.03,199.76C311.82,202.32 306.64,204.89 302.04,207.66C297.86,210.18 293.86,212.76 290.49,215.56C287.48,218.06 284.75,220.68 282.61,223.46C280.67,225.98 279.12,228.65 278,231.37C276.94,233.93 276.3,236.61 275.95,239.27C275.6,241.88 275.64,244.55 275.87,247.17C276.1,249.81 276.65,252.46 277.32,255.07C278.01,257.73 278.98,260.36 279.98,262.98C281,265.64 282.24,268.25 283.38,270.88C284.52,273.51 285.8,276.12 286.8,278.78C287.79,281.39 288.78,284.02 289.36,286.68C289.93,289.29 290.31,291.95 290.3,294.59C290.29,297.22 289.9,299.88 289.32,302.49C288.72,305.15 287.73,307.78 286.73,310.39C285.72,313.05 284.43,315.66 283.28,318.29C282.13,320.93 280.87,323.55 279.81,326.2C278.76,328.82 277.75,331.45 276.93,334.1Q276.12,336.71 274.91,342L270.09,342Q268.88,336.71 268.07,334.1C267.25,331.45 266.24,328.82 265.19,326.2C264.13,323.55 262.87,320.93 261.72,318.29C260.57,315.66 259.28,313.05 258.27,310.39C257.27,307.78 256.28,305.15 255.68,302.49C255.1,299.88 254.71,297.22 254.7,294.59C254.69,291.95 255.07,289.29 255.64,286.68C256.22,284.02 257.21,281.39 258.2,278.78C259.2,276.12 260.48,273.51 261.62,270.88C262.76,268.25 264,265.64 265.02,262.98C266.02,260.36 266.99,257.73 267.68,255.07C268.35,252.46 268.9,249.81 269.13,247.17C269.36,244.55 269.4,241.88 269.05,239.27C268.7,236.61 268.06,233.93 267,231.37C265.88,228.65 264.33,225.98 262.39,223.46C260.25,220.68 257.52,218.06 254.51,215.56C251.14,212.76 247.14,210.18 242.96,207.66C238.36,204.89 233.18,202.32 227.97,199.76C222.45,197.05 216.5,194.47 210.7,191.85C204.84,189.2 198.73,186.63 192.97,183.95C187.42,181.36 181.83,178.79 176.75,176.05C172.05,173.51 167.49,170.93 163.48,168.15C159.86,165.63 156.49,163.02 153.63,160.24C151.04,157.72 148.75,155.08 146.92,152.34C145.22,149.8 143.79,147.14 142.87,144.44C142,141.87 141.41,139.17 141.43,136.54C141.45,133.9 141.97,131.17 142.99,128.63C144.09,125.89 145.94,123.24 148.01,120.73C150.31,117.95 153.31,115.37 156.36,112.83C159.66,110.09 163.45,107.52 167.19,104.93C171.08,102.24 175.23,99.64 179.29,97.02C183.39,94.37 187.56,91.76 191.67,89.12C195.76,86.49 199.84,83.86 203.88,81.22C207.89,78.6 211.88,75.97 215.83,73.32C219.74,70.7 223.65,68.07 227.45,65.41C231.18,62.8 234.9,60.19 238.43,57.51C241.84,54.92 245.2,52.32 248.27,49.61C251.19,47.04 253.99,44.43 256.45,41.71C258.76,39.15 260.88,36.51 262.67,33.8C264.36,31.23 265.8,28.58 266.98,25.9Q268.12,23.31 269.67,18Z" style="vector-effect: none; stroke-width: 2px; stroke: rgb(99, 110, 250); stroke-opacity: 1; fill: rgb(99, 110, 250); fill-opacity: 0.5;"/><path class="box" d="M239.73,129.89H305.27M239.73,115.29H305.27V167.27H239.73ZM272.5,115.29V65.49M272.5,167.27V183.89" style="vector-effect: non-scaling-stroke; stroke-width: 2px; stroke: rgb(99, 110, 250); stroke-opacity: 1; fill: rgb(99, 110, 250); fill-opacity: 0.5;"/><g class="points"><path class="point" transform="translate(91.86,65.49)" d="M5,0A5,5 0 1,1 0,-5A5,5 0 0,1 5,0Z" style="opacity: 1; stroke-width: 0px; fill: rgb(99, 110, 250); fill-opacity: 1;"/><path class="point" transform="translate(55.09,88.11)" d="M5,0A5,5 0 1,1 0,-5A5,5 0 0,1 5,0Z" style="opacity: 1; stroke-width: 0px; fill: rgb(99, 110, 250); fill-opacity: 1;"/><path class="point" transform="translate(102.61,89.79)" d="M5,0A5,5 0 1,1 0,-5A5,5 0 0,1 5,0Z" style="opacity: 1; stroke-width: 0px; fill: rgb(99, 110, 250); fill-opacity: 1;"/><path class="point" transform="translate(48.57,113.23)" d="M5,0A5,5 0 1,1 0,-5A5,5 0 0,1 5,0Z" style="opacity: 1; stroke-width: 0px; fill: rgb(99, 110, 250); fill-opacity: 1;"/><path class="point" transform="translate(67.75,121.47)" d="M5,0A5,5 0 1,1 0,-5A5,5 0 0,1 5,0Z" style="opacity: 1; stroke-width: 0px; fill: rgb(99, 110, 250); fill-opacity: 1;"/><path class="point" transform="translate(93.71,123.14)" d="M5,0A5,5 0 1,1 0,-5A5,5 0 0,1 5,0Z" style="opacity: 1; stroke-width: 0px; fill: rgb(99, 110, 250); fill-opacity: 1;"/><path class="point" transform="translate(74.52,127.09)" d="M5,0A5,5 0 1,1 0,-5A5,5 0 0,1 5,0Z" style="opacity: 1; stroke-width: 0px; fill: rgb(99, 110, 250); fill-opacity: 1;"/><path class="point" transform="translate(86.02,129.89)" d="M5,0A5,5 0 1,1 0,-5A5,5 0 0,1 5,0Z" style="opacity: 1; stroke-width: 0px; fill: rgb(99, 110, 250); fill-opacity: 1;"/><path class="point" transform="translate(63.34,149.27)" d="M5,0A5,5 0 1,1 0,-5A5,5 0 0,1 5,0Z" style="opacity: 1; stroke-width: 0px; fill: rgb(99, 110, 250); fill-opacity: 1;"/><path class="point" transform="translate(57.47,155.53)" d="M5,0A5,5 0 1,1 0,-5A5,5 0 0,1 5,0Z" style="opacity: 1; stroke-width: 0px; fill: rgb(99, 110, 250); fill-opacity: 1;"/><path class="point" transform="translate(82.29,160.34)" d="M5,0A5,5 0 1,1 0,-5A5,5 0 0,1 5,0Z" style="opacity: 1; stroke-width: 0px; fill: rgb(99, 110, 250); fill-opacity: 1;"/><path class="point" transform="translate(68.37,169.58)" d="M5,0A5,5 0 1,1 0,-5A5,5 0 0,1 5,0Z" style="opacity: 1; stroke-width: 0px; fill: rgb(99, 110, 250); fill-opacity: 1;"/><path class="point" transform="translate(89.55,179.27)" d="M5,0A5,5 0 1,1 0,-5A5,5 0 0,1 5,0Z" style="opacity: 1; stroke-width: 0px; fill: rgb(99, 110, 250); fill-opacity: 1;"/><path class="point" transform="translate(55.2,183.89)" d="M5,0A5,5 0 1,1 0,-5A5,5 0 0,1 5,0Z" style="opacity: 1; stroke-width: 0px; fill: rgb(99, 110, 250); fill-opacity: 1;"/><path class="point" transform="translate(64.42,294.51)" d="M5,0A5,5 0 1,1 0,-5A5,5 0 0,1 5,0Z" style="opacity: 1; stroke-width: 0px; fill: rgb(99, 110, 250); fill-opacity: 1;"/></g></g></g></g><g class="overplot"/><path class="xlines-above crisp" d="M0,0" style="fill: none;"/><path class="ylines-above crisp" d="M0,0" style="fill: none;"/><g class="overlines-above"/><g class="xaxislayer-above"><g class="xtick"><text text-anchor="middle" x="0" y="433" transform="translate(352.5,0)" style="font-family: 'Open Sans', verdana, arial, sans-serif; font-size: 12px; fill: rgb(42, 63, 95); fill-opacity: 1; white-space: pre; opacity: 1;">sim_config_6</text></g></g><g class="yaxislayer-above"><g class="ytick"><text text-anchor="end" x="79" y="4.199999999999999" transform="translate(0,397.19)" style="font-family: 'Open Sans', verdana, arial, sans-serif; font-size: 12px; fill: rgb(42, 63, 95); fill-opacity: 1; white-space: pre; opacity: 1;">9.42</text></g><g class="ytick"><text text-anchor="end" x="79" y="4.199999999999999" style="font-family: 'Open Sans', verdana, arial, sans-serif; font-size: 12px; fill: rgb(42, 63, 95); fill-opacity: 1; white-space: pre; opacity: 1;" transform="translate(0,352.46)">9.4</text></g><g class="ytick"><text text-anchor="end" x="79" y="4.199999999999999" style="font-family: 'Open Sans', verdana, arial, sans-serif; font-size: 12px; fill: rgb(42, 63, 95); fill-opacity: 1; white-space: pre; opacity: 1;" transform="translate(0,307.74)">9.38</text></g><g class="ytick"><text text-anchor="end" x="79" y="4.199999999999999" style="font-family: 'Open Sans', verdana, arial, sans-serif; font-size: 12px; fill: rgb(42, 63, 95); fill-opacity: 1; white-space: pre; opacity: 1;" transform="translate(0,263.01)">9.36</text></g><g class="ytick"><text text-anchor="end" x="79" y="4.199999999999999" style="font-family: 'Open Sans', verdana, arial, sans-serif; font-size: 12px; fill: rgb(42, 63, 95); fill-opacity: 1; white-space: pre; opacity: 1;" transform="translate(0,218.29)">9.34</text></g><g class="ytick"><text text-anchor="end" x="79" y="4.199999999999999" style="font-family: 'Open Sans', verdana, arial, sans-serif; font-size: 12px; fill: rgb(42, 63, 95); fill-opacity: 1; white-space: pre; opacity: 1;" transform="translate(0,173.56)">9.32</text></g><g class="ytick"><text text-anchor="end" x="79" y="4.199999999999999" style="font-family: 'Open Sans', verdana, arial, sans-serif; font-size: 12px; fill: rgb(42, 63, 95); fill-opacity: 1; white-space: pre; opacity: 1;" transform="translate(0,128.84)">9.3</text></g><g class="ytick"><text text-anchor="end" x="79" y="4.199999999999999" style="font-family: 'Open Sans', verdana, arial, sans-serif; font-size: 12px; fill: rgb(42, 63, 95); fill-opacity: 1; white-space: pre; opacity: 1;" transform="translate(0,84.11)">9.28</text></g></g><g class="overaxes-above"/></g></g><g class="polarlayer"/><g class="smithlayer"/><g class="ternarylayer"/><g class="geolayer"/><g class="funnelarealayer"/><g class="pielayer"/><g class="iciclelayer"/><g class="treemaplayer"/><g class="sunburstlayer"/><g class="glimages"/><defs id="topdefs-a13c65"><g class="clips"/></defs><g class="layer-above"><g class="imagelayer"/><g class="shapelayer"/></g><g class="infolayer"><g class="g-gtitle"/><g class="g-xtitle"><text class="xtitle" x="350" y="460.3" text-anchor="middle" style="font-family: 'Open Sans', verdana, arial, sans-serif; font-size: 14px; fill: rgb(42, 63, 95); opacity: 1; white-space: pre;">sim_config</text></g><g class="g-ytitle"><text class="ytitle" transform="rotate(-90,36.240625,240)" x="36.240625" y="240" text-anchor="middle" style="font-family: 'Open Sans', verdana, arial, sans-serif; font-size: 14px; fill: rgb(42, 63, 95); opacity: 1; white-space: pre;">exec_time_minutes</text></g></g></svg>