<svg class="main-svg" xmlns="http://www.w3.org/2000/svg" xmlns:xlink="http://www.w3.org/1999/xlink" width="700" height="500" style="" viewBox="0 0 700 500"><rect x="0" y="0" width="700" height="500" style="fill: rgb(255, 255, 255); fill-opacity: 1;"/><defs id="defs-542656"><g class="clips"><clipPath id="clip542656xyplot" class="plotclip"><rect width="540" height="360"/></clipPath><clipPath class="axesclip" id="clip542656x"><rect x="80" y="0" width="540" height="500"/></clipPath><clipPath class="axesclip" id="clip542656y"><rect x="0" y="60" width="700" height="360"/></clipPath><clipPath class="axesclip" id="clip542656xy"><rect x="80" y="60" width="540" height="360"/></clipPath></g><g class="gradients"/><g class="patterns"/></defs><g class="bglayer"><rect class="bg" x="80" y="60" width="540" height="360" style="fill: rgb(229, 236, 246); fill-opacity: 1; stroke-width: 0;"/></g><g class="layer-below"><g class="imagelayer"/><g class="shapelayer"/></g><g class="cartesianlayer"><g class="subplot xy"><g class="layer-subplot"><g class="shapelayer"/><g class="imagelayer"/></g><g class="minor-gridlayer"><g class="x"/><g class="y"/></g><g class="gridlayer"><g class="x"/><g class="y"><path class="ygrid crisp" transform="translate(0,392.19)" d="M80,0h540" style="stroke: rgb(255, 255, 255); stroke-opacity: 1; stroke-width: 1px;"/><path class="ygrid crisp" transform="translate(0,338.35)" d="M80,0h540" style="stroke: rgb(255, 255, 255); stroke-opacity: 1; stroke-width: 1px;"/><path class="ygrid crisp" transform="translate(0,284.51)" d="M80,0h540" style="stroke: rgb(255, 255, 255); stroke-opacity: 1; stroke-width: 1px;"/><path class="ygrid crisp" transform="translate(0,230.67)" d="M80,0h540" style="stroke: rgb(255, 255, 255); stroke-opacity: 1; stroke-width: 1px;"/><path class="ygrid crisp" transform="translate(0,176.82999999999998)" d="M80,0h540" style="stroke: rgb(255, 255, 255); stroke-opacity: 1; stroke-width: 1px;"/><path class="ygrid crisp" transform="translate(0,122.99000000000001)" d="M80,0h540" style="stroke: rgb(255, 255, 255); stroke-opacity: 1; stroke-width: 1px;"/><path class="ygrid crisp" transform="translate(0,69.14)" d="M80,0h540" style="stroke: rgb(255, 255, 255); stroke-opacity: 1; stroke-width: 1px;"/></g></g><g class="zerolinelayer"/><g class="layer-between"><g class="shapelayer"/><g class="imagelayer"/></g><path class="xlines-below"/><path class="ylines-below"/><g class="overlines-below"/><g class="xaxislayer-below"/><g class="yaxislayer-below"/><g class="overaxes-below"/><g class="plot" transform="translate(80,60)" clip-path="url(#clip542656xyplot)"><g class="violinlayer mlayer"><g class="trace violins" style="opacity: 1;"><path class="violin" d="M275.21,18Q276.64,24.58 277.66,27.82C278.7,31.13 279.97,34.41 281.42,37.64C282.91,40.95 284.67,44.21 286.51,47.45C288.39,50.76 290.53,54.01 292.6,57.27C294.69,60.56 296.93,63.8 299,67.09C301.05,70.35 303.09,73.61 304.95,76.91C306.77,80.15 308.44,83.44 310.06,86.73C311.66,89.99 313.03,93.29 314.62,96.55C316.22,99.84 317.72,103.15 319.63,106.36C321.62,109.7 323.8,113.01 326.4,116.18C329.18,119.57 332.42,122.84 335.92,126C339.68,129.4 343.97,132.63 348.33,135.82C352.91,139.18 357.94,142.38 362.82,145.64C367.75,148.93 372.97,152.11 377.75,155.45C382.35,158.66 387.12,161.82 391.01,165.27C394.53,168.4 398.18,171.57 400.29,175.09C402.14,178.17 403.64,181.65 403.57,184.91C403.5,188.2 401.85,191.67 399.82,194.73C397.46,198.29 393.42,201.43 389.56,204.55C385.27,208.01 379.99,211.12 375.07,214.36C370.05,217.66 364.56,220.81 359.74,224.18C355.19,227.36 350.57,230.53 346.86,234C343.53,237.11 340.5,240.38 338.27,243.82C336.25,246.95 334.93,250.31 333.78,253.64C332.67,256.86 332.28,260.19 331.41,263.45C330.54,266.73 329.87,270.06 328.57,273.27C327.21,276.62 325.46,279.92 323.35,283.09C321.1,286.48 318.23,289.71 315.34,292.91C312.32,296.26 308.82,299.46 305.54,302.73C302.26,306.01 298.77,309.22 295.66,312.55C292.66,315.76 289.7,319 287.19,322.36C284.81,325.55 282.67,328.83 280.92,332.18Q279.25,335.38 276.85,342L268.15,342Q265.75,335.38 264.08,332.18C262.33,328.83 260.19,325.55 257.81,322.36C255.3,319 252.34,315.76 249.34,312.55C246.23,309.22 242.74,306.01 239.46,302.73C236.18,299.46 232.68,296.26 229.66,292.91C226.77,289.71 223.9,286.48 221.65,283.09C219.54,279.92 217.79,276.62 216.43,273.27C215.13,270.06 214.46,266.73 213.59,263.45C212.72,260.19 212.33,256.86 211.22,253.64C210.07,250.31 208.75,246.95 206.73,243.82C204.5,240.38 201.47,237.11 198.14,234C194.43,230.53 189.81,227.36 185.26,224.18C180.44,220.81 174.95,217.66 169.93,214.36C165.01,211.12 159.73,208.01 155.44,204.55C151.58,201.43 147.54,198.29 145.18,194.73C143.15,191.67 141.49,188.2 141.42,184.91C141.35,181.65 142.86,178.17 144.71,175.09C146.82,171.57 150.47,168.4 153.99,165.27C157.88,161.82 162.65,158.66 167.25,155.45C172.03,152.11 177.25,148.93 182.18,145.64C187.06,142.38 192.09,139.18 196.67,135.82C201.03,132.63 205.32,129.4 209.08,126C212.58,122.84 215.82,119.57 218.6,116.18C221.2,113.01 223.38,109.7 225.37,106.36C227.28,103.15 228.78,99.84 230.38,96.55C231.97,93.29 233.34,89.99 234.94,86.73C236.56,83.44 238.23,80.15 240.05,76.91C241.91,73.61 243.95,70.35 246,67.09C248.07,63.8 250.31,60.56 252.4,57.27C254.47,54.01 256.61,50.76 258.49,47.45C260.33,44.21 262.09,40.95 263.58,37.64C265.03,34.41 266.3,31.13 267.34,27.82Q268.36,24.58 269.79,18Z" style="vector-effect: none; stroke-width: 2px; stroke: rgb(99, 110, 250); stroke-opacity: 1; fill: rgb(99, 110, 250); fill-opacity: 0.5;"/><path class="box" d="M239.73,186.06H305.27M239.73,150.81H305.27V216.22H239.73ZM272.5,150.81V77.75M272.5,216.22V282.25" style="vector-effect: non-scaling-stroke; stroke-width: 2px; stroke: rgb(99, 110, 250); stroke-opacity: 1; fill: rgb(99, 110, 250); fill-opacity: 0.5;"/><g class="points"><path class="point" transform="translate(91.28,77.75)" d="M5,0A5,5 0 1,1 0,-5A5,5 0 0,1 5,0Z" style="opacity: 1; stroke-width: 0px; fill: rgb(99, 110, 250); fill-opacity: 1;"/><path class="point" transform="translate(55.73,99.42)" d="M5,0A5,5 0 1,1 0,-5A5,5 0 0,1 5,0Z" style="opacity: 1; stroke-width: 0px; fill: rgb(99, 110, 250); fill-opacity: 1;"/><path class="point" transform="translate(102.18,144.73)" d="M5,0A5,5 0 1,1 0,-5A5,5 0 0,1 5,0Z" style="opacity: 1; stroke-width: 0px; fill: rgb(99, 110, 250); fill-opacity: 1;"/><path class="point" transform="translate(46.49,148.59)" d="M5,0A5,5 0 1,1 0,-5A5,5 0 0,1 5,0Z" style="opacity: 1; stroke-width: 0px; fill: rgb(99, 110, 250); fill-opacity: 1;"/><path class="point" transform="translate(66.86,157.48)" d="M5,0A5,5 0 1,1 0,-5A5,5 0 0,1 5,0Z" style="opacity: 1; stroke-width: 0px; fill: rgb(99, 110, 250); fill-opacity: 1;"/><path class="point" transform="translate(95.58,178.74)" d="M5,0A5,5 0 1,1 0,-5A5,5 0 0,1 5,0Z" style="opacity: 1; stroke-width: 0px; fill: rgb(99, 110, 250); fill-opacity: 1;"/><path class="point" transform="translate(74.46,184.49)" d="M5,0A5,5 0 1,1 0,-5A5,5 0 0,1 5,0Z" style="opacity: 1; stroke-width: 0px; fill: rgb(99, 110, 250); fill-opacity: 1;"/><path class="point" transform="translate(86.95,186.06)" d="M5,0A5,5 0 1,1 0,-5A5,5 0 0,1 5,0Z" style="opacity: 1; stroke-width: 0px; fill: rgb(99, 110, 250); fill-opacity: 1;"/><path class="point" transform="translate(63.91,195.48)" d="M5,0A5,5 0 1,1 0,-5A5,5 0 0,1 5,0Z" style="opacity: 1; stroke-width: 0px; fill: rgb(99, 110, 250); fill-opacity: 1;"/><path class="point" transform="translate(48.21,196.96)" d="M5,0A5,5 0 1,1 0,-5A5,5 0 0,1 5,0Z" style="opacity: 1; stroke-width: 0px; fill: rgb(99, 110, 250); fill-opacity: 1;"/><path class="point" transform="translate(86.4,204.14)" d="M5,0A5,5 0 1,1 0,-5A5,5 0 0,1 5,0Z" style="opacity: 1; stroke-width: 0px; fill: rgb(99, 110, 250); fill-opacity: 1;"/><path class="point" transform="translate(63.33,220.25)" d="M5,0A5,5 0 1,1 0,-5A5,5 0 0,1 5,0Z" style="opacity: 1; stroke-width: 0px; fill: rgb(99, 110, 250); fill-opacity: 1;"/><path class="point" transform="translate(98.7,266.82)" d="M5,0A5,5 0 1,1 0,-5A5,5 0 0,1 5,0Z" style="opacity: 1; stroke-width: 0px; fill: rgb(99, 110, 250); fill-opacity: 1;"/><path class="point" transform="translate(41.75,274.76)" d="M5,0A5,5 0 1,1 0,-5A5,5 0 0,1 5,0Z" style="opacity: 1; stroke-width: 0px; fill: rgb(99, 110, 250); fill-opacity: 1;"/><path class="point" transform="translate(57.21,282.25)" d="M5,0A5,5 0 1,1 0,-5A5,5 0 0,1 5,0Z" style="opacity: 1; stroke-width: 0px; fill: rgb(99, 110, 250); fill-opacity: 1;"/></g></g></g></g><g class="overplot"/><path class="xlines-above crisp" d="M0,0" style="fill: none;"/><path class="ylines-above crisp" d="M0,0" style="fill: none;"/><g class="overlines-above"/><g class="xaxislayer-above"><g class="xtick"><text text-anchor="middle" x="0" y="433" transform="translate(352.5,0)" style="font-family: 'Open Sans', verdana, arial, sans-serif; font-size: 12px; fill: rgb(42, 63, 95); fill-opacity: 1; white-space: pre; opacity: 1;">sim_config_4</text></g></g><g class="yaxislayer-above"><g class="ytick"><text text-anchor="end" x="79" y="4.199999999999999" transform="translate(0,392.19)" style="font-family: 'Open Sans', verdana, arial, sans-serif; font-size: 12px; fill: rgb(42, 63, 95); fill-opacity: 1; white-space: pre; opacity: 1;">9.34</text></g><g class="ytick"><text text-anchor="end" x="79" y="4.199999999999999" style="font-family: 'Open Sans', verdana, arial, sans-serif; font-size: 12px; fill: rgb(42, 63, 95); fill-opacity: 1; white-space: pre; opacity: 1;" transform="translate(0,338.35)">9.32</text></g><g class="ytick"><text text-anchor="end" x="79" y="4.199999999999999" style="font-family: 'Open Sans', verdana, arial, sans-serif; font-size: 12px; fill: rgb(42, 63, 95); fill-opacity: 1; white-space: pre; opacity: 1;" transform="translate(0,284.51)">9.3</text></g><g class="ytick"><text text-anchor="end" x="79" y="4.199999999999999" style="font-family: 'Open Sans', verdana, arial, sans-serif; font-size: 12px; fill: rgb(42, 63, 95); fill-opacity: 1; white-space: pre; opacity: 1;" transform="translate(0,230.67)">9.28</text></g><g class="ytick"><text text-anchor="end" x="79" y="4.199999999999999" style="font-family: 'Open Sans', verdana, arial, sans-serif; font-size: 12px; fill: rgb(42, 63, 95); fill-opacity: 1; white-space: pre; opacity: 1;" transform="translate(0,176.82999999999998)">9.26</text></g><g class="ytick"><text text-anchor="end" x="79" y="4.199999999999999" style="font-family: 'Open Sans', verdana, arial, sans-serif; font-size: 12px; fill: rgb(42, 63, 95); fill-opacity: 1; white-space: pre; opacity: 1;" transform="translate(0,122.99000000000001)">9.24</text></g><g class="ytick"><text text-anchor="end" x="79" y="4.199999999999999" style="font-family: 'Open Sans', verdana, arial, sans-serif; font-size: 12px; fill: rgb(42, 63, 95); fill-opacity: 1; white-space: pre; opacity: 1;" transform="translate(0,69.14)">9.22</text></g></g><g class="overaxes-above"/></g></g><g class="polarlayer"/><g class="smithlayer"/><g class="ternarylayer"/><g class="geolayer"/><g class="funnelarealayer"/><g class="pielayer"/><g class="iciclelayer"/><g class="treemaplayer"/><g class="sunburstlayer"/><g class="glimages"/><defs id="topdefs-542656"><g class="clips"/></defs><g class="layer-above"><g class="imagelayer"/><g class="shapelayer"/></g><g class="infolayer"><g class="g-gtitle"/><g class="g-xtitle"><text class="xtitle" x="350" y="460.3" text-anchor="middle" style="font-family: 'Open Sans', verdana, arial, sans-serif; font-size: 14px; fill: rgb(42, 63, 95); opacity: 1; white-space: pre;">sim_config</text></g><g class="g-ytitle"><text class="ytitle" transform="rotate(-90,36.240625,240)" x="36.240625" y="240" text-anchor="middle" style="font-family: 'Open Sans', verdana, arial, sans-serif; font-size: 14px; fill: rgb(42, 63, 95); opacity: 1; white-space: pre;">exec_time_minutes</text></g></g></svg>