<svg class="main-svg" xmlns="http://www.w3.org/2000/svg" xmlns:xlink="http://www.w3.org/1999/xlink" width="700" height="500" style="" viewBox="0 0 700 500"><rect x="0" y="0" width="700" height="500" style="fill: rgb(255, 255, 255); fill-opacity: 1;"/><defs id="defs-1bddd9"><g class="clips"><clipPath id="clip1bddd9xyplot" class="plotclip"><rect width="540" height="360"/></clipPath><clipPath class="axesclip" id="clip1bddd9x"><rect x="80" y="0" width="540" height="500"/></clipPath><clipPath class="axesclip" id="clip1bddd9y"><rect x="0" y="60" width="700" height="360"/></clipPath><clipPath class="axesclip" id="clip1bddd9xy"><rect x="80" y="60" width="540" height="360"/></clipPath></g><g class="gradients"/><g class="patterns"/></defs><g class="bglayer"><rect class="bg" x="80" y="60" width="540" height="360" style="fill: rgb(229, 236, 246); fill-opacity: 1; stroke-width: 0;"/></g><g class="layer-below"><g class="imagelayer"/><g class="shapelayer"/></g><g class="cartesianlayer"><g class="subplot xy"><g class="layer-subplot"><g class="shapelayer"/><g class="imagelayer"/></g><g class="minor-gridlayer"><g class="x"/><g class="y"/></g><g class="gridlayer"><g class="x"/><g class="y"><path class="ygrid crisp" transform="translate(0,407.22)" d="M80,0h540" style="stroke: rgb(255, 255, 255); stroke-opacity: 1; stroke-width: 1px;"/><path class="ygrid crisp" transform="translate(0,370.74)" d="M80,0h540" style="stroke: rgb(255, 255, 255); stroke-opacity: 1; stroke-width: 1px;"/><path class="ygrid crisp" transform="translate(0,334.25)" d="M80,0h540" style="stroke: rgb(255, 255, 255); stroke-opacity: 1; stroke-width: 1px;"/><path class="ygrid crisp" transform="translate(0,297.77)" d="M80,0h540" style="stroke: rgb(255, 255, 255); stroke-opacity: 1; stroke-width: 1px;"/><path class="ygrid crisp" transform="translate(0,261.28)" d="M80,0h540" style="stroke: rgb(255, 255, 255); stroke-opacity: 1; stroke-width: 1px;"/><path class="ygrid crisp" transform="translate(0,224.8)" d="M80,0h540" style="stroke: rgb(255, 255, 255); stroke-opacity: 1; stroke-width: 1px;"/><path class="ygrid crisp" transform="translate(0,188.31)" d="M80,0h540" style="stroke: rgb(255, 255, 255); stroke-opacity: 1; stroke-width: 1px;"/><path class="ygrid crisp" transform="translate(0,151.82999999999998)" d="M80,0h540" style="stroke: rgb(255, 255, 255); stroke-opacity: 1; stroke-width: 1px;"/><path class="ygrid crisp" transform="translate(0,115.34)" d="M80,0h540" style="stroke: rgb(255, 255, 255); stroke-opacity: 1; stroke-width: 1px;"/><path class="ygrid crisp" transform="translate(0,78.86)" d="M80,0h540" style="stroke: rgb(255, 255, 255); stroke-opacity: 1; stroke-width: 1px;"/></g></g><g class="zerolinelayer"/><g class="layer-between"><g class="shapelayer"/><g class="imagelayer"/></g><path class="xlines-below"/><path class="ylines-below"/><g class="overlines-below"/><g class="xaxislayer-below"/><g class="yaxislayer-below"/><g class="overaxes-below"/><g class="plot" transform="translate(80,60)" clip-path="url(#clip1bddd9xyplot)"><g class="violinlayer mlayer"><g class="trace violins" style="opacity: 1;"><path class="violin" d="M275.13,18Q276.46,22.53 277.34,24.75C278.24,27.03 279.33,29.27 280.47,31.5C281.63,33.77 283,36 284.26,38.25C285.52,40.5 286.92,42.72 288.04,45C289.13,47.22 290.22,49.46 290.9,51.75C291.55,53.96 292.01,56.24 292.09,58.5C292.16,60.74 291.83,63.02 291.36,65.25C290.88,67.52 289.98,69.76 289.23,72C288.48,74.26 287.47,76.48 286.86,78.75C286.26,80.98 285.63,83.25 285.58,85.5C285.53,87.75 285.81,90.06 286.53,92.25C287.29,94.57 288.65,96.84 290.17,99C291.82,101.35 294.03,103.56 296.22,105.75C298.53,108.06 301.19,110.26 303.73,112.5C306.31,114.76 309.01,116.98 311.58,119.25C314.11,121.48 316.58,123.74 319.05,126C321.5,128.24 323.8,130.53 326.33,132.75C328.94,135.04 331.54,137.32 334.46,139.5C337.59,141.83 340.97,144.08 344.56,146.25C348.42,148.59 352.67,150.79 356.9,153C361.28,155.29 365.99,157.47 370.4,159.75C374.7,161.97 379.14,164.14 383.05,166.5C386.63,168.66 390.16,170.84 393.02,173.25C395.55,175.38 397.85,177.61 399.53,180C401.03,182.14 402.19,184.44 402.86,186.75C403.49,188.94 403.76,191.27 403.57,193.5C403.38,195.77 402.75,198.1 401.67,200.25C400.47,202.62 398.61,204.9 396.43,207C393.89,209.45 390.56,211.63 387.04,213.75C383.01,216.18 378.24,218.34 373.41,220.5C368.13,222.86 362.29,225.04 356.53,227.25C350.57,229.54 344.26,231.73 338.23,234C332.3,236.23 326.24,238.42 320.63,240.75C315.38,242.93 310.16,245.11 305.55,247.5C301.42,249.64 297.42,251.81 294.16,254.25C291.34,256.36 288.71,258.57 286.91,261C285.34,263.11 284.16,265.44 283.61,267.75C283.09,269.94 283.22,272.28 283.55,274.5C283.89,276.78 284.83,279.02 285.67,281.25C286.52,283.52 287.72,285.74 288.63,288C289.53,290.24 290.53,292.47 291.09,294.75C291.63,296.97 292.02,299.25 291.98,301.5C291.94,303.75 291.51,306.04 290.87,308.25C290.21,310.54 289.1,312.78 288.02,315C286.91,317.28 285.51,319.5 284.25,321.75C282.99,324 281.63,326.23 280.47,328.5C279.33,330.73 278.24,332.97 277.34,335.25Q276.46,337.47 275.13,342L269.87,342Q268.54,337.47 267.66,335.25C266.76,332.97 265.67,330.73 264.53,328.5C263.37,326.23 262.01,324 260.75,321.75C259.49,319.5 258.09,317.28 256.98,315C255.9,312.78 254.79,310.54 254.13,308.25C253.49,306.04 253.06,303.75 253.02,301.5C252.98,299.25 253.37,296.97 253.91,294.75C254.47,292.47 255.47,290.24 256.37,288C257.28,285.74 258.48,283.52 259.33,281.25C260.17,279.02 261.11,276.78 261.45,274.5C261.78,272.28 261.91,269.94 261.39,267.75C260.84,265.44 259.66,263.11 258.09,261C256.29,258.57 253.66,256.36 250.84,254.25C247.58,251.81 243.58,249.64 239.45,247.5C234.84,245.11 229.62,242.93 224.37,240.75C218.76,238.42 212.7,236.23 206.77,234C200.74,231.73 194.43,229.54 188.47,227.25C182.71,225.04 176.87,222.86 171.59,220.5C166.76,218.34 161.99,216.18 157.96,213.75C154.44,211.63 151.11,209.45 148.57,207C146.39,204.9 144.53,202.62 143.33,200.25C142.24,198.1 141.61,195.77 141.42,193.5C141.23,191.27 141.5,188.94 142.14,186.75C142.81,184.44 143.97,182.14 145.47,180C147.15,177.61 149.45,175.38 151.98,173.25C154.84,170.84 158.37,168.66 161.95,166.5C165.86,164.14 170.3,161.97 174.6,159.75C179.01,157.47 183.72,155.29 188.1,153C192.33,150.79 196.58,148.59 200.44,146.25C204.03,144.08 207.41,141.83 210.54,139.5C213.46,137.32 216.06,135.04 218.67,132.75C221.2,130.53 223.5,128.24 225.95,126C228.42,123.74 230.89,121.48 233.42,119.25C235.99,116.98 238.69,114.76 241.27,112.5C243.81,110.26 246.47,108.06 248.78,105.75C250.97,103.56 253.18,101.35 254.83,99C256.35,96.84 257.71,94.57 258.47,92.25C259.19,90.06 259.47,87.75 259.42,85.5C259.37,83.25 258.74,80.98 258.14,78.75C257.53,76.48 256.52,74.26 255.77,72C255.02,69.76 254.12,67.52 253.64,65.25C253.17,63.02 252.84,60.74 252.91,58.5C252.99,56.24 253.45,53.96 254.1,51.75C254.78,49.46 255.87,47.22 256.96,45C258.08,42.72 259.48,40.5 260.74,38.25C262,36 263.37,33.77 264.53,31.5C265.67,29.27 266.76,27.03 267.66,24.75Q268.54,22.53 269.87,18Z" style="vector-effect: none; stroke-width: 2px; stroke: rgb(99, 110, 250); stroke-opacity: 1; fill: rgb(99, 110, 250); fill-opacity: 0.5;"/><path class="box" d="M239.73,180.85H305.27M239.73,163.99H305.27V208.44H239.73ZM272.5,163.99V122.2M272.5,208.44V231.14" style="vector-effect: non-scaling-stroke; stroke-width: 2px; stroke: rgb(99, 110, 250); stroke-opacity: 1; fill: rgb(99, 110, 250); fill-opacity: 0.5;"/><g class="points"><path class="point" transform="translate(87.18,58.6)" d="M5,0A5,5 0 1,1 0,-5A5,5 0 0,1 5,0Z" style="opacity: 1; stroke-width: 0px; fill: rgb(99, 110, 250); fill-opacity: 1;"/><path class="point" transform="translate(61.03,122.2)" d="M5,0A5,5 0 1,1 0,-5A5,5 0 0,1 5,0Z" style="opacity: 1; stroke-width: 0px; fill: rgb(99, 110, 250); fill-opacity: 1;"/><path class="point" transform="translate(95.01,133.39)" d="M5,0A5,5 0 1,1 0,-5A5,5 0 0,1 5,0Z" style="opacity: 1; stroke-width: 0px; fill: rgb(99, 110, 250); fill-opacity: 1;"/><path class="point" transform="translate(55.17,162.43)" d="M5,0A5,5 0 1,1 0,-5A5,5 0 0,1 5,0Z" style="opacity: 1; stroke-width: 0px; fill: rgb(99, 110, 250); fill-opacity: 1;"/><path class="point" transform="translate(69.58,168.69)" d="M5,0A5,5 0 1,1 0,-5A5,5 0 0,1 5,0Z" style="opacity: 1; stroke-width: 0px; fill: rgb(99, 110, 250); fill-opacity: 1;"/><path class="point" transform="translate(89.96,170.85)" d="M5,0A5,5 0 1,1 0,-5A5,5 0 0,1 5,0Z" style="opacity: 1; stroke-width: 0px; fill: rgb(99, 110, 250); fill-opacity: 1;"/><path class="point" transform="translate(74.59,175.87)" d="M5,0A5,5 0 1,1 0,-5A5,5 0 0,1 5,0Z" style="opacity: 1; stroke-width: 0px; fill: rgb(99, 110, 250); fill-opacity: 1;"/><path class="point" transform="translate(85.89,180.85)" d="M5,0A5,5 0 1,1 0,-5A5,5 0 0,1 5,0Z" style="opacity: 1; stroke-width: 0px; fill: rgb(99, 110, 250); fill-opacity: 1;"/><path class="point" transform="translate(63.34,200.28)" d="M5,0A5,5 0 1,1 0,-5A5,5 0 0,1 5,0Z" style="opacity: 1; stroke-width: 0px; fill: rgb(99, 110, 250); fill-opacity: 1;"/><path class="point" transform="translate(55.15,204.54)" d="M5,0A5,5 0 1,1 0,-5A5,5 0 0,1 5,0Z" style="opacity: 1; stroke-width: 0px; fill: rgb(99, 110, 250); fill-opacity: 1;"/><path class="point" transform="translate(83.12,206.54)" d="M5,0A5,5 0 1,1 0,-5A5,5 0 0,1 5,0Z" style="opacity: 1; stroke-width: 0px; fill: rgb(99, 110, 250); fill-opacity: 1;"/><path class="point" transform="translate(67.32,209.07)" d="M5,0A5,5 0 1,1 0,-5A5,5 0 0,1 5,0Z" style="opacity: 1; stroke-width: 0px; fill: rgb(99, 110, 250); fill-opacity: 1;"/><path class="point" transform="translate(91.64,222.6)" d="M5,0A5,5 0 1,1 0,-5A5,5 0 0,1 5,0Z" style="opacity: 1; stroke-width: 0px; fill: rgb(99, 110, 250); fill-opacity: 1;"/><path class="point" transform="translate(51.45,231.14)" d="M5,0A5,5 0 1,1 0,-5A5,5 0 0,1 5,0Z" style="opacity: 1; stroke-width: 0px; fill: rgb(99, 110, 250); fill-opacity: 1;"/><path class="point" transform="translate(62.34,301.4)" d="M5,0A5,5 0 1,1 0,-5A5,5 0 0,1 5,0Z" style="opacity: 1; stroke-width: 0px; fill: rgb(99, 110, 250); fill-opacity: 1;"/></g></g></g></g><g class="overplot"/><path class="xlines-above crisp" d="M0,0" style="fill: none;"/><path class="ylines-above crisp" d="M0,0" style="fill: none;"/><g class="overlines-above"/><g class="xaxislayer-above"><g class="xtick"><text text-anchor="middle" x="0" y="433" transform="translate(352.5,0)" style="font-family: 'Open Sans', verdana, arial, sans-serif; font-size: 12px; fill: rgb(42, 63, 95); fill-opacity: 1; white-space: pre; opacity: 1;">sim_config_9</text></g></g><g class="yaxislayer-above"><g class="ytick"><text text-anchor="end" x="79" y="4.199999999999999" transform="translate(0,407.22)" style="font-family: 'Open Sans', verdana, arial, sans-serif; font-size: 12px; fill: rgb(42, 63, 95); fill-opacity: 1; white-space: pre; opacity: 1;">7.58</text></g><g class="ytick"><text text-anchor="end" x="79" y="4.199999999999999" style="font-family: 'Open Sans', verdana, arial, sans-serif; font-size: 12px; fill: rgb(42, 63, 95); fill-opacity: 1; white-space: pre; opacity: 1;" transform="translate(0,370.74)">7.56</text></g><g class="ytick"><text text-anchor="end" x="79" y="4.199999999999999" style="font-family: 'Open Sans', verdana, arial, sans-serif; font-size: 12px; fill: rgb(42, 63, 95); fill-opacity: 1; white-space: pre; opacity: 1;" transform="translate(0,334.25)">7.54</text></g><g class="ytick"><text text-anchor="end" x="79" y="4.199999999999999" style="font-family: 'Open Sans', verdana, arial, sans-serif; font-size: 12px; fill: rgb(42, 63, 95); fill-opacity: 1; white-space: pre; opacity: 1;" transform="translate(0,297.77)">7.52</text></g><g class="ytick"><text text-anchor="end" x="79" y="4.199999999999999" style="font-family: 'Open Sans', verdana, arial, sans-serif; font-size: 12px; fill: rgb(42, 63, 95); fill-opacity: 1; white-space: pre; opacity: 1;" transform="translate(0,261.28)">7.5</text></g><g class="ytick"><text text-anchor="end" x="79" y="4.199999999999999" style="font-family: 'Open Sans', verdana, arial, sans-serif; font-size: 12px; fill: rgb(42, 63, 95); fill-opacity: 1; white-space: pre; opacity: 1;" transform="translate(0,224.8)">7.48</text></g><g class="ytick"><text text-anchor="end" x="79" y="4.199999999999999" style="font-family: 'Open Sans', verdana, arial, sans-serif; font-size: 12px; fill: rgb(42, 63, 95); fill-opacity: 1; white-space: pre; opacity: 1;" transform="translate(0,188.31)">7.46</text></g><g class="ytick"><text text-anchor="end" x="79" y="4.199999999999999" style="font-family: 'Open Sans', verdana, arial, sans-serif; font-size: 12px; fill: rgb(42, 63, 95); fill-opacity: 1; white-space: pre; opacity: 1;" transform="translate(0,151.82999999999998)">7.44</text></g><g class="ytick"><text text-anchor="end" x="79" y="4.199999999999999" style="font-family: 'Open Sans', verdana, arial, sans-serif; font-size: 12px; fill: rgb(42, 63, 95); fill-opacity: 1; white-space: pre; opacity: 1;" transform="translate(0,115.34)">7.42</text></g><g class="ytick"><text text-anchor="end" x="79" y="4.199999999999999" style="font-family: 'Open Sans', verdana, arial, sans-serif; font-size: 12px; fill: rgb(42, 63, 95); fill-opacity: 1; white-space: pre; opacity: 1;" transform="translate(0,78.86)">7.4</text></g></g><g class="overaxes-above"/></g></g><g class="polarlayer"/><g class="smithlayer"/><g class="ternarylayer"/><g class="geolayer"/><g class="funnelarealayer"/><g class="pielayer"/><g class="iciclelayer"/><g class="treemaplayer"/><g class="sunburstlayer"/><g class="glimages"/><defs id="topdefs-1bddd9"><g class="clips"/></defs><g class="layer-above"><g class="imagelayer"/><g class="shapelayer"/></g><g class="infolayer"><g class="g-gtitle"/><g class="g-xtitle"><text class="xtitle" x="350" y="460.3" text-anchor="middle" style="font-family: 'Open Sans', verdana, arial, sans-serif; font-size: 14px; fill: rgb(42, 63, 95); opacity: 1; white-space: pre;">sim_config</text></g><g class="g-ytitle"><text class="ytitle" transform="rotate(-90,36.240625,240)" x="36.240625" y="240" text-anchor="middle" style="font-family: 'Open Sans', verdana, arial, sans-serif; font-size: 14px; fill: rgb(42, 63, 95); opacity: 1; white-space: pre;">exec_time_minutes</text></g></g></svg>