<svg class="main-svg" xmlns="http://www.w3.org/2000/svg" xmlns:xlink="http://www.w3.org/1999/xlink" width="700" height="500" style="" viewBox="0 0 700 500"><rect x="0" y="0" width="700" height="500" style="fill: rgb(255, 255, 255); fill-opacity: 1;"/><defs id="defs-d941f0"><g class="clips"><clipPath id="clipd941f0xyplot" class="plotclip"><rect width="540" height="360"/></clipPath><clipPath class="axesclip" id="clipd941f0x"><rect x="80" y="0" width="540" height="500"/></clipPath><clipPath class="axesclip" id="clipd941f0y"><rect x="0" y="60" width="700" height="360"/></clipPath><clipPath class="axesclip" id="clipd941f0xy"><rect x="80" y="60" width="540" height="360"/></clipPath></g><g class="gradients"/><g class="patterns"/></defs><g class="bglayer"><rect class="bg" x="80" y="60" width="540" height="360" style="fill: rgb(229, 236, 246); fill-opacity: 1; stroke-width: 0;"/></g><g class="layer-below"><g class="imagelayer"/><g class="shapelayer"/></g><g class="cartesianlayer"><g class="subplot xy"><g class="layer-subplot"><g class="shapelayer"/><g class="imagelayer"/></g><g class="minor-gridlayer"><g class="x"/><g class="y"/></g><g class="gridlayer"><g class="x"/><g class="y"><path class="ygrid crisp" transform="translate(0,396.35)" d="M80,0h540" style="stroke: rgb(255, 255, 255); stroke-opacity: 1; stroke-width: 1px;"/><path class="ygrid crisp" transform="translate(0,353.47)" d="M80,0h540" style="stroke: rgb(255, 255, 255); stroke-opacity: 1; stroke-width: 1px;"/><path class="ygrid crisp" transform="translate(0,310.59000000000003)" d="M80,0h540" style="stroke: rgb(255, 255, 255); stroke-opacity: 1; stroke-width: 1px;"/><path class="ygrid crisp" transform="translate(0,267.71000000000004)" d="M80,0h540" style="stroke: rgb(255, 255, 255); stroke-opacity: 1; stroke-width: 1px;"/><path class="ygrid crisp" transform="translate(0,224.83)" d="M80,0h540" style="stroke: rgb(255, 255, 255); stroke-opacity: 1; stroke-width: 1px;"/><path class="ygrid crisp" transform="translate(0,181.95)" d="M80,0h540" style="stroke: rgb(255, 255, 255); stroke-opacity: 1; stroke-width: 1px;"/><path class="ygrid crisp" transform="translate(0,139.07)" d="M80,0h540" style="stroke: rgb(255, 255, 255); stroke-opacity: 1; stroke-width: 1px;"/><path class="ygrid crisp" transform="translate(0,96.19)" d="M80,0h540" style="stroke: rgb(255, 255, 255); stroke-opacity: 1; stroke-width: 1px;"/></g></g><g class="zerolinelayer"/><g class="layer-between"><g class="shapelayer"/><g class="imagelayer"/></g><path class="xlines-below"/><path class="ylines-below"/><g class="overlines-below"/><g class="xaxislayer-below"/><g class="yaxislayer-below"/><g class="overaxes-below"/><g class="plot" transform="translate(80,60)" clip-path="url(#clipd941f0xyplot)"><g class="violinlayer mlayer"><g class="trace violins" style="opacity: 1;"><path class="violin" d="M276.7,18Q278.83,22.96 280.2,25.36C281.63,27.87 283.37,30.32 285.18,32.73C287.05,35.23 289.21,37.64 291.26,40.09C293.33,42.55 295.59,44.95 297.54,47.45C299.42,49.87 301.35,52.29 302.79,54.82C304.15,57.21 305.31,59.68 306.03,62.18C306.72,64.59 306.97,67.09 307.09,69.55C307.21,72 306.89,74.46 306.74,76.91C306.59,79.36 306.25,81.81 306.2,84.27C306.15,86.72 306.21,89.19 306.44,91.64C306.67,94.1 307.15,96.55 307.59,99C308.04,101.46 308.61,103.9 309.11,106.36C309.6,108.81 310.02,111.28 310.56,113.73C311.1,116.19 311.48,118.68 312.35,121.09C313.25,123.59 314.3,126.12 315.95,128.45C317.8,131.06 320.32,133.52 323.18,135.82C326.5,138.49 330.71,140.84 334.99,143.18C339.74,145.78 345.23,148.13 350.51,150.55C355.95,153.04 361.83,155.39 367.19,157.91C372.3,160.31 377.51,162.66 381.98,165.27C385.96,167.6 389.78,169.99 392.83,172.64C395.48,174.95 397.78,177.41 399.48,180C401.01,182.34 402.13,184.85 402.81,187.36C403.46,189.76 403.77,192.29 403.57,194.73C403.37,197.2 402.73,199.75 401.55,202.09C400.25,204.68 398.18,207.15 395.81,209.45C393.07,212.11 389.48,214.49 385.77,216.82C381.61,219.43 376.75,221.79 371.92,224.18C366.8,226.71 361.23,229.1 355.84,231.55C350.42,234.01 344.79,236.41 339.5,238.91C334.42,241.32 329.3,243.7 324.7,246.27C320.47,248.63 316.31,251.01 312.85,253.64C309.8,255.96 306.87,258.36 304.84,261C303.06,263.31 301.64,265.83 300.96,268.36C300.32,270.75 300.41,273.29 300.65,275.73C300.89,278.2 301.81,280.64 302.42,283.09C303.03,285.55 303.96,287.98 304.3,290.45C304.63,292.89 304.83,295.4 304.47,297.82C304.1,300.31 303.17,302.8 302.02,305.18C300.79,307.72 298.98,310.14 297.21,312.55C295.37,315.06 293.16,317.45 291.14,319.91C289.13,322.36 286.98,324.77 285.13,327.27C283.34,329.68 281.62,332.13 280.19,334.64Q278.82,337.04 276.7,342L268.3,342Q266.18,337.04 264.81,334.64C263.38,332.13 261.66,329.68 259.87,327.27C258.02,324.77 255.87,322.36 253.86,319.91C251.84,317.45 249.63,315.06 247.79,312.55C246.02,310.14 244.21,307.72 242.98,305.18C241.83,302.8 240.9,300.31 240.53,297.82C240.17,295.4 240.37,292.89 240.7,290.45C241.04,287.98 241.97,285.55 242.58,283.09C243.19,280.64 244.11,278.2 244.35,275.73C244.59,273.29 244.68,270.75 244.04,268.36C243.36,265.83 241.94,263.31 240.16,261C238.13,258.36 235.2,255.96 232.15,253.64C228.69,251.01 224.53,248.63 220.3,246.27C215.7,243.7 210.58,241.32 205.5,238.91C200.21,236.41 194.58,234.01 189.16,231.55C183.77,229.1 178.2,226.71 173.08,224.18C168.25,221.79 163.39,219.43 159.23,216.82C155.52,214.49 151.93,212.11 149.19,209.45C146.82,207.15 144.75,204.68 143.45,202.09C142.27,199.75 141.63,197.2 141.43,194.73C141.23,192.29 141.54,189.76 142.19,187.36C142.87,184.85 143.99,182.34 145.52,180C147.22,177.41 149.52,174.95 152.17,172.64C155.22,169.99 159.04,167.6 163.02,165.27C167.49,162.66 172.7,160.31 177.81,157.91C183.17,155.39 189.05,153.04 194.49,150.55C199.77,148.13 205.26,145.78 210.01,143.18C214.29,140.84 218.5,138.49 221.82,135.82C224.68,133.52 227.2,131.06 229.05,128.45C230.7,126.12 231.75,123.59 232.65,121.09C233.52,118.68 233.9,116.19 234.44,113.73C234.98,111.28 235.4,108.81 235.89,106.36C236.39,103.9 236.96,101.46 237.41,99C237.85,96.55 238.33,94.1 238.56,91.64C238.79,89.19 238.85,86.72 238.8,84.27C238.75,81.81 238.41,79.36 238.26,76.91C238.11,74.46 237.79,72 237.91,69.55C238.03,67.09 238.28,64.59 238.97,62.18C239.69,59.68 240.85,57.21 242.21,54.82C243.65,52.29 245.58,49.87 247.46,47.45C249.41,44.95 251.67,42.55 253.74,40.09C255.79,37.64 257.95,35.23 259.82,32.73C261.63,30.32 263.37,27.87 264.8,25.36Q266.17,22.96 268.3,18Z" style="vector-effect: none; stroke-width: 2px; stroke: rgb(99, 110, 250); stroke-opacity: 1; fill: rgb(99, 110, 250); fill-opacity: 0.5;"/><path class="box" d="M239.73,187.95H305.27M239.73,164.55H305.27V209.68H239.73ZM272.5,164.55V112.3M272.5,209.68V238.55" style="vector-effect: non-scaling-stroke; stroke-width: 2px; stroke: rgb(99, 110, 250); stroke-opacity: 1; fill: rgb(99, 110, 250); fill-opacity: 0.5;"/><g class="points"><path class="point" transform="translate(92.6,62.71)" d="M5,0A5,5 0 1,1 0,-5A5,5 0 0,1 5,0Z" style="opacity: 1; stroke-width: 0px; fill: rgb(99, 110, 250); fill-opacity: 1;"/><path class="point" transform="translate(53.7,112.3)" d="M5,0A5,5 0 1,1 0,-5A5,5 0 0,1 5,0Z" style="opacity: 1; stroke-width: 0px; fill: rgb(99, 110, 250); fill-opacity: 1;"/><path class="point" transform="translate(104.87,164.55)" d="M5,0A5,5 0 1,1 0,-5A5,5 0 0,1 5,0Z" style="opacity: 1; stroke-width: 0px; fill: rgb(99, 110, 250); fill-opacity: 1;"/><path class="point" transform="translate(44.99,169.44)" d="M5,0A5,5 0 1,1 0,-5A5,5 0 0,1 5,0Z" style="opacity: 1; stroke-width: 0px; fill: rgb(99, 110, 250); fill-opacity: 1;"/><path class="point" transform="translate(67.63,171.8)" d="M5,0A5,5 0 1,1 0,-5A5,5 0 0,1 5,0Z" style="opacity: 1; stroke-width: 0px; fill: rgb(99, 110, 250); fill-opacity: 1;"/><path class="point" transform="translate(93.5,204.1)" d="M5,0A5,5 0 1,1 0,-5A5,5 0 0,1 5,0Z" style="opacity: 1; stroke-width: 0px; fill: rgb(99, 110, 250); fill-opacity: 1;"/><path class="point" transform="translate(74.56,207.85)" d="M5,0A5,5 0 1,1 0,-5A5,5 0 0,1 5,0Z" style="opacity: 1; stroke-width: 0px; fill: rgb(99, 110, 250); fill-opacity: 1;"/><path class="point" transform="translate(87.29,209.68)" d="M5,0A5,5 0 1,1 0,-5A5,5 0 0,1 5,0Z" style="opacity: 1; stroke-width: 0px; fill: rgb(99, 110, 250); fill-opacity: 1;"/><path class="point" transform="translate(64.05,238.55)" d="M5,0A5,5 0 1,1 0,-5A5,5 0 0,1 5,0Z" style="opacity: 1; stroke-width: 0px; fill: rgb(99, 110, 250); fill-opacity: 1;"/><path class="point" transform="translate(50.83,297.29)" d="M5,0A5,5 0 1,1 0,-5A5,5 0 0,1 5,0Z" style="opacity: 1; stroke-width: 0px; fill: rgb(99, 110, 250); fill-opacity: 1;"/></g></g></g></g><g class="overplot"/><path class="xlines-above crisp" d="M0,0" style="fill: none;"/><path class="ylines-above crisp" d="M0,0" style="fill: none;"/><g class="overlines-above"/><g class="xaxislayer-above"><g class="xtick"><text text-anchor="middle" x="0" y="433" transform="translate(352.5,0)" style="font-family: 'Open Sans', verdana, arial, sans-serif; font-size: 12px; fill: rgb(42, 63, 95); fill-opacity: 1; white-space: pre; opacity: 1;">sim_config_2</text></g></g><g class="yaxislayer-above"><g class="ytick"><text text-anchor="end" x="79" y="4.199999999999999" transform="translate(0,396.35)" style="font-family: 'Open Sans', verdana, arial, sans-serif; font-size: 12px; fill: rgb(42, 63, 95); fill-opacity: 1; white-space: pre; opacity: 1;">6.48</text></g><g class="ytick"><text text-anchor="end" x="79" y="4.199999999999999" style="font-family: 'Open Sans', verdana, arial, sans-serif; font-size: 12px; fill: rgb(42, 63, 95); fill-opacity: 1; white-space: pre; opacity: 1;" transform="translate(0,353.47)">6.46</text></g><g class="ytick"><text text-anchor="end" x="79" y="4.199999999999999" style="font-family: 'Open Sans', verdana, arial, sans-serif; font-size: 12px; fill: rgb(42, 63, 95); fill-opacity: 1; white-space: pre; opacity: 1;" transform="translate(0,310.59000000000003)">6.44</text></g><g class="ytick"><text text-anchor="end" x="79" y="4.199999999999999" style="font-family: 'Open Sans', verdana, arial, sans-serif; font-size: 12px; fill: rgb(42, 63, 95); fill-opacity: 1; white-space: pre; opacity: 1;" transform="translate(0,267.71000000000004)">6.42</text></g><g class="ytick"><text text-anchor="end" x="79" y="4.199999999999999" style="font-family: 'Open Sans', verdana, arial, sans-serif; font-size: 12px; fill: rgb(42, 63, 95); fill-opacity: 1; white-space: pre; opacity: 1;" transform="translate(0,224.83)">6.4</text></g><g class="ytick"><text text-anchor="end" x="79" y="4.199999999999999" style="font-family: 'Open Sans', verdana, arial, sans-serif; font-size: 12px; fill: rgb(42, 63, 95); fill-opacity: 1; white-space: pre; opacity: 1;" transform="translate(0,181.95)">6.38</text></g><g class="ytick"><text text-anchor="end" x="79" y="4.199999999999999" style="font-family: 'Open Sans', verdana, arial, sans-serif; font-size: 12px; fill: rgb(42, 63, 95); fill-opacity: 1; white-space: pre; opacity: 1;" transform="translate(0,139.07)">6.36</text></g><g class="ytick"><text text-anchor="end" x="79" y="4.199999999999999" style="font-family: 'Open Sans', verdana, arial, sans-serif; font-size: 12px; fill: rgb(42, 63, 95); fill-opacity: 1; white-space: pre; opacity: 1;" transform="translate(0,96.19)">6.34</text></g></g><g class="overaxes-above"/></g></g><g class="polarlayer"/><g class="smithlayer"/><g class="ternarylayer"/><g class="geolayer"/><g class="funnelarealayer"/><g class="pielayer"/><g class="iciclelayer"/><g class="treemaplayer"/><g class="sunburstlayer"/><g class="glimages"/><defs id="topdefs-d941f0"><g class="clips"/></defs><g class="layer-above"><g class="imagelayer"/><g class="shapelayer"/></g><g class="infolayer"><g class="g-gtitle"/><g class="g-xtitle"><text class="xtitle" x="350" y="460.3" text-anchor="middle" style="font-family: 'Open Sans', verdana, arial, sans-serif; font-size: 14px; fill: rgb(42, 63, 95); opacity: 1; white-space: pre;">sim_config</text></g><g class="g-ytitle"><text class="ytitle" transform="rotate(-90,36.240625,240)" x="36.240625" y="240" text-anchor="middle" style="font-family: 'Open Sans', verdana, arial, sans-serif; font-size: 14px; fill: rgb(42, 63, 95); opacity: 1; white-space: pre;">exec_time_minutes</text></g></g></svg>