<svg class="main-svg" xmlns="http://www.w3.org/2000/svg" xmlns:xlink="http://www.w3.org/1999/xlink" width="700" height="500" style="" viewBox="0 0 700 500"><rect x="0" y="0" width="700" height="500" style="fill: rgb(255, 255, 255); fill-opacity: 1;"/><defs id="defs-5a1208"><g class="clips"><clipPath id="clip5a1208xyplot" class="plotclip"><rect width="540" height="360"/></clipPath><clipPath class="axesclip" id="clip5a1208x"><rect x="80" y="0" width="540" height="500"/></clipPath><clipPath class="axesclip" id="clip5a1208y"><rect x="0" y="60" width="700" height="360"/></clipPath><clipPath class="axesclip" id="clip5a1208xy"><rect x="80" y="60" width="540" height="360"/></clipPath></g><g class="gradients"/><g class="patterns"/></defs><g class="bglayer"><rect class="bg" x="80" y="60" width="540" height="360" style="fill: rgb(229, 236, 246); fill-opacity: 1; stroke-width: 0;"/></g><g class="layer-below"><g class="imagelayer"/><g class="shapelayer"/></g><g class="cartesianlayer"><g class="subplot xy"><g class="layer-subplot"><g class="shapelayer"/><g class="imagelayer"/></g><g class="minor-gridlayer"><g class="x"/><g class="y"/></g><g class="gridlayer"><g class="x"/><g class="y"><path class="ygrid crisp" transform="translate(0,343.26)" d="M80,0h540" style="stroke: rgb(255, 255, 255); stroke-opacity: 1; stroke-width: 1px;"/><path class="ygrid crisp" transform="translate(0,264.2)" d="M80,0h540" style="stroke: rgb(255, 255, 255); stroke-opacity: 1; stroke-width: 1px;"/><path class="ygrid crisp" transform="translate(0,185.15)" d="M80,0h540" style="stroke: rgb(255, 255, 255); stroke-opacity: 1; stroke-width: 1px;"/><path class="ygrid crisp" transform="translate(0,106.09)" d="M80,0h540" style="stroke: rgb(255, 255, 255); stroke-opacity: 1; stroke-width: 1px;"/></g></g><g class="zerolinelayer"/><g class="layer-between"><g class="shapelayer"/><g class="imagelayer"/></g><path class="xlines-below"/><path class="ylines-below"/><g class="overlines-below"/><g class="xaxislayer-below"/><g class="yaxislayer-below"/><g class="overaxes-below"/><g class="plot" transform="translate(80,60)" clip-path="url(#clip5a1208xyplot)"><g class="violinlayer mlayer"><g class="trace violins" style="opacity: 1;"><path class="violin" d="M277.12,18Q279.86,24.11 281.84,27C283.98,30.13 286.66,33.14 289.7,36C293.08,39.18 297.12,42.13 301.39,45C306.1,48.16 311.47,51.09 316.91,54C322.72,57.1 329.05,60.03 335.25,63C341.56,66.03 348.2,68.95 354.45,72C360.5,74.95 366.66,77.87 372.19,81C377.29,83.89 382.3,86.81 386.52,90C390.28,92.85 393.81,95.8 396.48,99C398.85,101.84 400.87,104.88 402.05,108C403.14,110.9 403.71,114.02 403.57,117C403.43,120.02 402.55,123.13 401.16,126C399.64,129.15 397.21,132.17 394.47,135C391.36,138.22 387.34,141.15 383.16,144C378.5,147.18 373.07,150.09 367.64,153C361.87,156.1 355.55,159 349.49,162C343.43,165 337.06,167.9 331.28,171C325.84,173.91 320.33,176.8 315.73,180C311.65,182.84 307.67,185.75 304.86,189C302.43,191.81 300.4,194.88 299.38,198C298.43,200.89 298.36,204.02 298.61,207C298.86,210.02 299.98,213.02 300.91,216C301.86,219.03 303.25,221.98 304.26,225C305.26,227.98 306.31,230.97 306.94,234C307.55,236.97 307.95,240 308.01,243C308.07,246 307.76,249.02 307.32,252C306.87,255.02 306.12,258.02 305.34,261C304.55,264.02 303.59,267.01 302.61,270C301.62,273.01 300.56,276.01 299.44,279C298.31,282.01 297.12,285.01 295.86,288C294.59,291.01 293.23,294.01 291.85,297C290.46,300.01 288.97,303 287.55,306C286.13,309 284.66,311.98 283.33,315C282.02,317.98 280.73,320.98 279.63,324C278.55,326.98 277.57,329.98 276.76,333Q275.96,335.98 274.8,342L270.2,342Q269.04,335.98 268.24,333C267.43,329.98 266.45,326.98 265.37,324C264.27,320.98 262.98,317.98 261.67,315C260.34,311.98 258.87,309 257.45,306C256.03,303 254.54,300.01 253.15,297C251.77,294.01 250.41,291.01 249.14,288C247.88,285.01 246.69,282.01 245.56,279C244.44,276.01 243.38,273.01 242.39,270C241.41,267.01 240.45,264.02 239.66,261C238.88,258.02 238.13,255.02 237.68,252C237.24,249.02 236.93,246 236.99,243C237.05,240 237.45,236.97 238.06,234C238.69,230.97 239.74,227.98 240.74,225C241.75,221.98 243.14,219.03 244.09,216C245.02,213.02 246.14,210.02 246.39,207C246.64,204.02 246.57,200.89 245.62,198C244.6,194.88 242.57,191.81 240.14,189C237.33,185.75 233.35,182.84 229.27,180C224.67,176.8 219.16,173.91 213.72,171C207.94,167.9 201.57,165 195.51,162C189.45,159 183.13,156.1 177.36,153C171.93,150.09 166.5,147.18 161.84,144C157.66,141.15 153.64,138.22 150.53,135C147.79,132.17 145.37,129.15 143.84,126C142.45,123.13 141.56,120.02 141.42,117C141.28,114.02 141.86,110.9 142.95,108C144.13,104.88 146.15,101.84 148.52,99C151.19,95.8 154.72,92.85 158.48,90C162.7,86.81 167.71,83.89 172.81,81C178.34,77.87 184.5,74.95 190.55,72C196.8,68.95 203.44,66.03 209.75,63C215.95,60.03 222.28,57.1 228.09,54C233.53,51.09 238.9,48.16 243.61,45C247.88,42.13 251.92,39.18 255.3,36C258.34,33.14 261.02,30.13 263.16,27Q265.14,24.11 267.88,18Z" style="vector-effect: none; stroke-width: 2px; stroke: rgb(99, 110, 250); stroke-opacity: 1; fill: rgb(99, 110, 250); fill-opacity: 0.5;"/><path class="box" d="M239.73,134.5H305.27M239.73,94.93H305.27V154.79H239.73ZM272.5,94.93V72.68M272.5,154.79V227.34" style="vector-effect: non-scaling-stroke; stroke-width: 2px; stroke: rgb(99, 110, 250); stroke-opacity: 1; fill: rgb(99, 110, 250); fill-opacity: 0.5;"/><g class="points"><path class="point" transform="translate(96.29,72.68)" d="M5,0A5,5 0 1,1 0,-5A5,5 0 0,1 5,0Z" style="opacity: 1; stroke-width: 0px; fill: rgb(99, 110, 250); fill-opacity: 1;"/><path class="point" transform="translate(52.31,82.98)" d="M5,0A5,5 0 1,1 0,-5A5,5 0 0,1 5,0Z" style="opacity: 1; stroke-width: 0px; fill: rgb(99, 110, 250); fill-opacity: 1;"/><path class="point" transform="translate(103.27,86.59)" d="M5,0A5,5 0 1,1 0,-5A5,5 0 0,1 5,0Z" style="opacity: 1; stroke-width: 0px; fill: rgb(99, 110, 250); fill-opacity: 1;"/><path class="point" transform="translate(44,92.34)" d="M5,0A5,5 0 1,1 0,-5A5,5 0 0,1 5,0Z" style="opacity: 1; stroke-width: 0px; fill: rgb(99, 110, 250); fill-opacity: 1;"/><path class="point" transform="translate(66.81,102.7)" d="M5,0A5,5 0 1,1 0,-5A5,5 0 0,1 5,0Z" style="opacity: 1; stroke-width: 0px; fill: rgb(99, 110, 250); fill-opacity: 1;"/><path class="point" transform="translate(96.09,108.28)" d="M5,0A5,5 0 1,1 0,-5A5,5 0 0,1 5,0Z" style="opacity: 1; stroke-width: 0px; fill: rgb(99, 110, 250); fill-opacity: 1;"/><path class="point" transform="translate(74.46,120.96)" d="M5,0A5,5 0 1,1 0,-5A5,5 0 0,1 5,0Z" style="opacity: 1; stroke-width: 0px; fill: rgb(99, 110, 250); fill-opacity: 1;"/><path class="point" transform="translate(84,134.5)" d="M5,0A5,5 0 1,1 0,-5A5,5 0 0,1 5,0Z" style="opacity: 1; stroke-width: 0px; fill: rgb(99, 110, 250); fill-opacity: 1;"/><path class="point" transform="translate(67.35,134.66)" d="M5,0A5,5 0 1,1 0,-5A5,5 0 0,1 5,0Z" style="opacity: 1; stroke-width: 0px; fill: rgb(99, 110, 250); fill-opacity: 1;"/><path class="point" transform="translate(57.99,145.57)" d="M5,0A5,5 0 1,1 0,-5A5,5 0 0,1 5,0Z" style="opacity: 1; stroke-width: 0px; fill: rgb(99, 110, 250); fill-opacity: 1;"/><path class="point" transform="translate(82.17,147.02)" d="M5,0A5,5 0 1,1 0,-5A5,5 0 0,1 5,0Z" style="opacity: 1; stroke-width: 0px; fill: rgb(99, 110, 250); fill-opacity: 1;"/><path class="point" transform="translate(68.32,157.38)" d="M5,0A5,5 0 1,1 0,-5A5,5 0 0,1 5,0Z" style="opacity: 1; stroke-width: 0px; fill: rgb(99, 110, 250); fill-opacity: 1;"/><path class="point" transform="translate(90.13,227.34)" d="M5,0A5,5 0 1,1 0,-5A5,5 0 0,1 5,0Z" style="opacity: 1; stroke-width: 0px; fill: rgb(99, 110, 250); fill-opacity: 1;"/><path class="point" transform="translate(55.64,246.24)" d="M5,0A5,5 0 1,1 0,-5A5,5 0 0,1 5,0Z" style="opacity: 1; stroke-width: 0px; fill: rgb(99, 110, 250); fill-opacity: 1;"/><path class="point" transform="translate(64.49,287.32)" d="M5,0A5,5 0 1,1 0,-5A5,5 0 0,1 5,0Z" style="opacity: 1; stroke-width: 0px; fill: rgb(99, 110, 250); fill-opacity: 1;"/></g></g></g></g><g class="overplot"/><path class="xlines-above crisp" d="M0,0" style="fill: none;"/><path class="ylines-above crisp" d="M0,0" style="fill: none;"/><g class="overlines-above"/><g class="xaxislayer-above"><g class="xtick"><text text-anchor="middle" x="0" y="433" transform="translate(352.5,0)" style="font-family: 'Open Sans', verdana, arial, sans-serif; font-size: 12px; fill: rgb(42, 63, 95); fill-opacity: 1; white-space: pre; opacity: 1;">sim_config_5</text></g></g><g class="yaxislayer-above"><g class="ytick"><text text-anchor="end" x="79" y="4.199999999999999" transform="translate(0,343.26)" style="font-family: 'Open Sans', verdana, arial, sans-serif; font-size: 12px; fill: rgb(42, 63, 95); fill-opacity: 1; white-space: pre; opacity: 1;">9.3</text></g><g class="ytick"><text text-anchor="end" x="79" y="4.199999999999999" style="font-family: 'Open Sans', verdana, arial, sans-serif; font-size: 12px; fill: rgb(42, 63, 95); fill-opacity: 1; white-space: pre; opacity: 1;" transform="translate(0,264.2)">9.25</text></g><g class="ytick"><text text-anchor="end" x="79" y="4.199999999999999" style="font-family: 'Open Sans', verdana, arial, sans-serif; font-size: 12px; fill: rgb(42, 63, 95); fill-opacity: 1; white-space: pre; opacity: 1;" transform="translate(0,185.15)">9.2</text></g><g class="ytick"><text text-anchor="end" x="79" y="4.199999999999999" style="font-family: 'Open Sans', verdana, arial, sans-serif; font-size: 12px; fill: rgb(42, 63, 95); fill-opacity: 1; white-space: pre; opacity: 1;" transform="translate(0,106.09)">9.15</text></g></g><g class="overaxes-above"/></g></g><g class="polarlayer"/><g class="smithlayer"/><g class="ternarylayer"/><g class="geolayer"/><g class="funnelarealayer"/><g class="pielayer"/><g class="iciclelayer"/><g class="treemaplayer"/><g class="sunburstlayer"/><g class="glimages"/><defs id="topdefs-5a1208"><g class="clips"/></defs><g class="layer-above"><g class="imagelayer"/><g class="shapelayer"/></g><g class="infolayer"><g class="g-gtitle"/><g class="g-xtitle"><text class="xtitle" x="350" y="460.3" text-anchor="middle" style="font-family: 'Open Sans', verdana, arial, sans-serif; font-size: 14px; fill: rgb(42, 63, 95); opacity: 1; white-space: pre;">sim_config</text></g><g class="g-ytitle"><text class="ytitle" transform="rotate(-90,36.240625,240)" x="36.240625" y="240" text-anchor="middle" style="font-family: 'Open Sans', verdana, arial, sans-serif; font-size: 14px; fill: rgb(42, 63, 95); opacity: 1; white-space: pre;">exec_time_minutes</text></g></g></svg>