<svg class="main-svg" xmlns="http://www.w3.org/2000/svg" xmlns:xlink="http://www.w3.org/1999/xlink" width="700" height="500" style="" viewBox="0 0 700 500"><rect x="0" y="0" width="700" height="500" style="fill: rgb(255, 255, 255); fill-opacity: 1;"/><defs id="defs-133fef"><g class="clips"><clipPath id="clip133fefxyplot" class="plotclip"><rect width="540" height="360"/></clipPath><clipPath class="axesclip" id="clip133fefx"><rect x="80" y="0" width="540" height="500"/></clipPath><clipPath class="axesclip" id="clip133fefy"><rect x="0" y="60" width="700" height="360"/></clipPath><clipPath class="axesclip" id="clip133fefxy"><rect x="80" y="60" width="540" height="360"/></clipPath></g><g class="gradients"/><g class="patterns"/></defs><g class="bglayer"><rect class="bg" x="80" y="60" width="540" height="360" style="fill: rgb(229, 236, 246); fill-opacity: 1; stroke-width: 0;"/></g><g class="layer-below"><g class="imagelayer"/><g class="shapelayer"/></g><g class="cartesianlayer"><g class="subplot xy"><g class="layer-subplot"><g class="shapelayer"/><g class="imagelayer"/></g><g class="minor-gridlayer"><g class="x"/><g class="y"/></g><g class="gridlayer"><g class="x"/><g class="y"><path class="ygrid crisp" transform="translate(0,412.65)" d="M80,0h540" style="stroke: rgb(255, 255, 255); stroke-opacity: 1; stroke-width: 1px;"/><path class="ygrid crisp" transform="translate(0,345.29)" d="M80,0h540" style="stroke: rgb(255, 255, 255); stroke-opacity: 1; stroke-width: 1px;"/><path class="ygrid crisp" transform="translate(0,277.94)" d="M80,0h540" style="stroke: rgb(255, 255, 255); stroke-opacity: 1; stroke-width: 1px;"/><path class="ygrid crisp" transform="translate(0,210.59)" d="M80,0h540" style="stroke: rgb(255, 255, 255); stroke-opacity: 1; stroke-width: 1px;"/><path class="ygrid crisp" transform="translate(0,143.24)" d="M80,0h540" style="stroke: rgb(255, 255, 255); stroke-opacity: 1; stroke-width: 1px;"/><path class="ygrid crisp" transform="translate(0,75.89)" d="M80,0h540" style="stroke: rgb(255, 255, 255); stroke-opacity: 1; stroke-width: 1px;"/></g></g><g class="zerolinelayer"/><g class="layer-between"><g class="shapelayer"/><g class="imagelayer"/></g><path class="xlines-below"/><path class="ylines-below"/><g class="overlines-below"/><g class="xaxislayer-below"/><g class="yaxislayer-below"/><g class="overaxes-below"/><g class="plot" transform="translate(80,60)" clip-path="url(#clip133fefxyplot)"><g class="violinlayer mlayer"><g class="trace violins" style="opacity: 1;"><path class="violin" d="M275.54,18Q277.04,25.47 278.05,29.17C279.08,32.92 280.31,36.64 281.68,40.34C283.07,44.09 284.7,47.81 286.34,51.52C288,55.26 289.84,58.97 291.59,62.69C293.34,66.41 295.18,70.12 296.86,73.86C298.53,77.57 300.15,81.29 301.66,85.03C303.16,88.74 304.51,92.48 305.9,96.21C307.28,99.93 308.53,103.67 309.97,107.38C311.42,111.12 312.84,114.87 314.57,118.55C316.34,122.32 318.25,126.06 320.47,129.72C322.78,133.52 325.37,137.26 328.23,140.9C331.22,144.71 334.56,148.43 338.09,152.07C341.78,155.88 345.82,159.57 349.94,163.24C354.19,167.02 358.76,170.7 363.23,174.41C367.74,178.15 372.48,181.81 376.88,185.59C381.17,189.27 385.58,192.9 389.33,196.76C392.83,200.37 396.36,204.02 398.78,207.93C400.98,211.5 402.96,215.3 403.57,219.1C404.15,222.75 403.8,226.7 402.58,230.28C401.26,234.17 398.49,237.93 395.48,241.45C392.09,245.43 387.5,249.05 382.87,252.62C377.82,256.52 371.97,260.14 366.19,263.79C360.16,267.6 353.66,271.24 347.4,274.97C341.14,278.69 334.68,282.34 328.64,286.14C322.82,289.79 317.03,293.46 311.78,297.31C306.87,300.92 302.13,304.59 298.02,308.48C294.22,312.07 290.74,315.79 287.84,319.66C285.14,323.26 282.86,327.02 281,330.83Q279.22,334.47 276.82,342L268.18,342Q265.78,334.47 264,330.83C262.14,327.02 259.86,323.26 257.16,319.66C254.26,315.79 250.78,312.07 246.98,308.48C242.87,304.59 238.13,300.92 233.22,297.31C227.97,293.46 222.18,289.79 216.36,286.14C210.32,282.34 203.86,278.69 197.6,274.97C191.34,271.24 184.84,267.6 178.81,263.79C173.03,260.14 167.18,256.52 162.13,252.62C157.5,249.05 152.91,245.43 149.52,241.45C146.51,237.93 143.74,234.17 142.42,230.28C141.2,226.7 140.84,222.75 141.42,219.1C142.03,215.3 144.01,211.5 146.22,207.93C148.64,204.02 152.17,200.37 155.67,196.76C159.42,192.9 163.83,189.27 168.12,185.59C172.52,181.81 177.26,178.15 181.77,174.41C186.24,170.7 190.81,167.02 195.06,163.24C199.18,159.57 203.22,155.88 206.91,152.07C210.44,148.43 213.78,144.71 216.77,140.9C219.63,137.26 222.22,133.52 224.53,129.72C226.75,126.06 228.66,122.32 230.43,118.55C232.16,114.87 233.58,111.12 235.03,107.38C236.47,103.67 237.72,99.93 239.1,96.21C240.49,92.48 241.84,88.74 243.34,85.03C244.85,81.29 246.47,77.57 248.14,73.86C249.82,70.12 251.66,66.41 253.41,62.69C255.16,58.97 257,55.26 258.66,51.52C260.3,47.81 261.93,44.09 263.32,40.34C264.69,36.64 265.92,32.92 266.95,29.17Q267.96,25.47 269.46,18Z" style="vector-effect: none; stroke-width: 2px; stroke: rgb(99, 110, 250); stroke-opacity: 1; fill: rgb(99, 110, 250); fill-opacity: 0.5;"/><path class="box" d="M239.73,211.82H305.27M239.73,173.71H305.27V243.65H239.73ZM272.5,173.71V87.28M272.5,243.65V272.72" style="vector-effect: non-scaling-stroke; stroke-width: 2px; stroke: rgb(99, 110, 250); stroke-opacity: 1; fill: rgb(99, 110, 250); fill-opacity: 0.5;"/><g class="points"><path class="point" transform="translate(89.52,87.28)" d="M5,0A5,5 0 1,1 0,-5A5,5 0 0,1 5,0Z" style="opacity: 1; stroke-width: 0px; fill: rgb(99, 110, 250); fill-opacity: 1;"/><path class="point" transform="translate(57.83,140.82)" d="M5,0A5,5 0 1,1 0,-5A5,5 0 0,1 5,0Z" style="opacity: 1; stroke-width: 0px; fill: rgb(99, 110, 250); fill-opacity: 1;"/><path class="point" transform="translate(98.3,173.71)" d="M5,0A5,5 0 1,1 0,-5A5,5 0 0,1 5,0Z" style="opacity: 1; stroke-width: 0px; fill: rgb(99, 110, 250); fill-opacity: 1;"/><path class="point" transform="translate(50.45,200.32)" d="M5,0A5,5 0 1,1 0,-5A5,5 0 0,1 5,0Z" style="opacity: 1; stroke-width: 0px; fill: rgb(99, 110, 250); fill-opacity: 1;"/><path class="point" transform="translate(68.48,201.1)" d="M5,0A5,5 0 1,1 0,-5A5,5 0 0,1 5,0Z" style="opacity: 1; stroke-width: 0px; fill: rgb(99, 110, 250); fill-opacity: 1;"/><path class="point" transform="translate(91.69,222.54)" d="M5,0A5,5 0 1,1 0,-5A5,5 0 0,1 5,0Z" style="opacity: 1; stroke-width: 0px; fill: rgb(99, 110, 250); fill-opacity: 1;"/><path class="point" transform="translate(74.63,226.81)" d="M5,0A5,5 0 1,1 0,-5A5,5 0 0,1 5,0Z" style="opacity: 1; stroke-width: 0px; fill: rgb(99, 110, 250); fill-opacity: 1;"/><path class="point" transform="translate(86.42,243.65)" d="M5,0A5,5 0 1,1 0,-5A5,5 0 0,1 5,0Z" style="opacity: 1; stroke-width: 0px; fill: rgb(99, 110, 250); fill-opacity: 1;"/><path class="point" transform="translate(63.34,252.29)" d="M5,0A5,5 0 1,1 0,-5A5,5 0 0,1 5,0Z" style="opacity: 1; stroke-width: 0px; fill: rgb(99, 110, 250); fill-opacity: 1;"/><path class="point" transform="translate(49.43,272.72)" d="M5,0A5,5 0 1,1 0,-5A5,5 0 0,1 5,0Z" style="opacity: 1; stroke-width: 0px; fill: rgb(99, 110, 250); fill-opacity: 1;"/></g></g></g></g><g class="overplot"/><path class="xlines-above crisp" d="M0,0" style="fill: none;"/><path class="ylines-above crisp" d="M0,0" style="fill: none;"/><g class="overlines-above"/><g class="xaxislayer-above"><g class="xtick"><text text-anchor="middle" x="0" y="433" transform="translate(352.5,0)" style="font-family: 'Open Sans', verdana, arial, sans-serif; font-size: 12px; fill: rgb(42, 63, 95); fill-opacity: 1; white-space: pre; opacity: 1;">sim_config_12</text></g></g><g class="yaxislayer-above"><g class="ytick"><text text-anchor="end" x="79" y="4.199999999999999" transform="translate(0,412.65)" style="font-family: 'Open Sans', verdana, arial, sans-serif; font-size: 12px; fill: rgb(42, 63, 95); fill-opacity: 1; white-space: pre; opacity: 1;">3.8</text></g><g class="ytick"><text text-anchor="end" x="79" y="4.199999999999999" style="font-family: 'Open Sans', verdana, arial, sans-serif; font-size: 12px; fill: rgb(42, 63, 95); fill-opacity: 1; white-space: pre; opacity: 1;" transform="translate(0,345.29)">3.79</text></g><g class="ytick"><text text-anchor="end" x="79" y="4.199999999999999" style="font-family: 'Open Sans', verdana, arial, sans-serif; font-size: 12px; fill: rgb(42, 63, 95); fill-opacity: 1; white-space: pre; opacity: 1;" transform="translate(0,277.94)">3.78</text></g><g class="ytick"><text text-anchor="end" x="79" y="4.199999999999999" style="font-family: 'Open Sans', verdana, arial, sans-serif; font-size: 12px; fill: rgb(42, 63, 95); fill-opacity: 1; white-space: pre; opacity: 1;" transform="translate(0,210.59)">3.77</text></g><g class="ytick"><text text-anchor="end" x="79" y="4.199999999999999" style="font-family: 'Open Sans', verdana, arial, sans-serif; font-size: 12px; fill: rgb(42, 63, 95); fill-opacity: 1; white-space: pre; opacity: 1;" transform="translate(0,143.24)">3.76</text></g><g class="ytick"><text text-anchor="end" x="79" y="4.199999999999999" style="font-family: 'Open Sans', verdana, arial, sans-serif; font-size: 12px; fill: rgb(42, 63, 95); fill-opacity: 1; white-space: pre; opacity: 1;" transform="translate(0,75.89)">3.75</text></g></g><g class="overaxes-above"/></g></g><g class="polarlayer"/><g class="smithlayer"/><g class="ternarylayer"/><g class="geolayer"/><g class="funnelarealayer"/><g class="pielayer"/><g class="iciclelayer"/><g class="treemaplayer"/><g class="sunburstlayer"/><g class="glimages"/><defs id="topdefs-133fef"><g class="clips"/></defs><g class="layer-above"><g class="imagelayer"/><g class="shapelayer"/></g><g class="infolayer"><g class="g-gtitle"/><g class="g-xtitle"><text class="xtitle" x="350" y="460.3" text-anchor="middle" style="font-family: 'Open Sans', verdana, arial, sans-serif; font-size: 14px; fill: rgb(42, 63, 95); opacity: 1; white-space: pre;">sim_config</text></g><g class="g-ytitle"><text class="ytitle" transform="rotate(-90,36.240625,240)" x="36.240625" y="240" text-anchor="middle" style="font-family: 'Open Sans', verdana, arial, sans-serif; font-size: 14px; fill: rgb(42, 63, 95); opacity: 1; white-space: pre;">exec_time_minutes</text></g></g></svg>