<svg class="main-svg" xmlns="http://www.w3.org/2000/svg" xmlns:xlink="http://www.w3.org/1999/xlink" width="700" height="500" style="" viewBox="0 0 700 500"><rect x="0" y="0" width="700" height="500" style="fill: rgb(255, 255, 255); fill-opacity: 1;"/><defs id="defs-982712"><g class="clips"><clipPath id="clip982712xyplot" class="plotclip"><rect width="540" height="360"/></clipPath><clipPath class="axesclip" id="clip982712x"><rect x="80" y="0" width="540" height="500"/></clipPath><clipPath class="axesclip" id="clip982712y"><rect x="0" y="60" width="700" height="360"/></clipPath><clipPath class="axesclip" id="clip982712xy"><rect x="80" y="60" width="540" height="360"/></clipPath></g><g class="gradients"/><g class="patterns"/></defs><g class="bglayer"><rect class="bg" x="80" y="60" width="540" height="360" style="fill: rgb(229, 236, 246); fill-opacity: 1; stroke-width: 0;"/></g><g class="layer-below"><g class="imagelayer"/><g class="shapelayer"/></g><g class="cartesianlayer"><g class="subplot xy"><g class="layer-subplot"><g class="shapelayer"/><g class="imagelayer"/></g><g class="minor-gridlayer"><g class="x"/><g class="y"/></g><g class="gridlayer"><g class="x"/><g class="y"><path class="ygrid crisp" transform="translate(0,396.87)" d="M80,0h540" style="stroke: rgb(255, 255, 255); stroke-opacity: 1; stroke-width: 1px;"/><path class="ygrid crisp" transform="translate(0,346.1)" d="M80,0h540" style="stroke: rgb(255, 255, 255); stroke-opacity: 1; stroke-width: 1px;"/><path class="ygrid crisp" transform="translate(0,295.32)" d="M80,0h540" style="stroke: rgb(255, 255, 255); stroke-opacity: 1; stroke-width: 1px;"/><path class="ygrid crisp" transform="translate(0,244.55)" d="M80,0h540" style="stroke: rgb(255, 255, 255); stroke-opacity: 1; stroke-width: 1px;"/><path class="ygrid crisp" transform="translate(0,193.77)" d="M80,0h540" style="stroke: rgb(255, 255, 255); stroke-opacity: 1; stroke-width: 1px;"/><path class="ygrid crisp" transform="translate(0,143)" d="M80,0h540" style="stroke: rgb(255, 255, 255); stroke-opacity: 1; stroke-width: 1px;"/><path class="ygrid crisp" transform="translate(0,92.22)" d="M80,0h540" style="stroke: rgb(255, 255, 255); stroke-opacity: 1; stroke-width: 1px;"/></g></g><g class="zerolinelayer"/><g class="layer-between"><g class="shapelayer"/><g class="imagelayer"/></g><path class="xlines-below"/><path class="ylines-below"/><g class="overlines-below"/><g class="xaxislayer-below"/><g class="yaxislayer-below"/><g class="overaxes-below"/><g class="plot" transform="translate(80,60)" clip-path="url(#clip982712xyplot)"><g class="violinlayer mlayer"><g class="trace violins" style="opacity: 1;"><path class="violin" d="M275.12,18Q276.45,23.57 277.38,26.31C278.33,29.11 279.47,31.89 280.76,34.62C282.08,37.42 283.64,40.18 285.25,42.92C286.89,45.72 288.73,48.47 290.53,51.23C292.34,54.01 294.27,56.76 296.07,59.54C297.85,62.3 299.64,65.05 301.26,67.85C302.84,70.59 304.34,73.35 305.69,76.15C307.01,78.89 308.16,81.67 309.27,84.46C310.37,87.21 311.3,90 312.32,92.77C313.35,95.54 314.26,98.34 315.42,101.08C316.6,103.87 317.82,106.67 319.36,109.38C320.96,112.21 322.78,115 324.9,117.69C327.15,120.55 329.76,123.32 332.58,126C335.59,128.87 339,131.61 342.5,134.31C346.19,137.16 350.22,139.89 354.23,142.62C358.34,145.42 362.68,148.14 366.86,150.92C371.01,153.68 375.28,156.4 379.24,159.23C383.03,161.94 386.85,164.66 390.15,167.54C393.21,170.21 396.24,172.92 398.48,175.85C400.5,178.49 402.38,181.28 403.21,184.15C403.98,186.83 404.16,189.77 403.57,192.46C402.94,195.32 401.23,198.15 399.28,200.77C397.08,203.73 393.9,206.44 390.68,209.08C387.12,212 382.91,214.69 378.71,217.38C374.26,220.23 369.42,222.95 364.66,225.69C359.8,228.49 354.73,231.21 349.83,234C344.99,236.75 340.08,239.48 335.46,242.31C331.03,245.02 326.63,247.75 322.66,250.62C318.96,253.3 315.39,256.02 312.34,258.92C309.54,261.58 307.01,264.35 304.92,267.23C302.98,269.9 301.44,272.71 300.1,275.54C298.81,278.26 297.92,281.07 296.95,283.85C295.99,286.6 295.23,289.39 294.29,292.15C293.34,294.93 292.37,297.71 291.27,300.46C290.15,303.25 288.89,306.01 287.63,308.77C286.36,311.55 284.97,314.3 283.7,317.08C282.44,319.84 281.13,322.59 280.02,325.38C278.92,328.13 277.91,330.9 277.07,333.69Q276.24,336.44 275,342L270,342Q268.76,336.44 267.93,333.69C267.09,330.9 266.08,328.13 264.98,325.38C263.87,322.59 262.56,319.84 261.3,317.08C260.03,314.3 258.64,311.55 257.37,308.77C256.11,306.01 254.85,303.25 253.73,300.46C252.63,297.71 251.66,294.93 250.71,292.15C249.77,289.39 249.01,286.6 248.05,283.85C247.08,281.07 246.19,278.26 244.9,275.54C243.56,272.71 242.02,269.9 240.08,267.23C237.99,264.35 235.46,261.58 232.66,258.92C229.61,256.02 226.04,253.3 222.34,250.62C218.37,247.75 213.97,245.02 209.54,242.31C204.92,239.48 200.01,236.75 195.17,234C190.27,231.21 185.2,228.49 180.34,225.69C175.58,222.95 170.74,220.23 166.29,217.38C162.09,214.69 157.88,212 154.32,209.08C151.1,206.44 147.93,203.73 145.72,200.77C143.77,198.15 142.05,195.32 141.42,192.46C140.83,189.77 141.02,186.83 141.79,184.15C142.62,181.28 144.5,178.49 146.52,175.85C148.76,172.92 151.79,170.21 154.85,167.54C158.15,164.66 161.97,161.94 165.76,159.23C169.72,156.4 173.99,153.68 178.14,150.92C182.32,148.14 186.66,145.42 190.77,142.62C194.78,139.89 198.81,137.16 202.5,134.31C206,131.61 209.41,128.87 212.42,126C215.24,123.32 217.85,120.55 220.1,117.69C222.22,115 224.04,112.21 225.64,109.38C227.18,106.67 228.4,103.87 229.58,101.08C230.74,98.34 231.65,95.54 232.68,92.77C233.7,90 234.63,87.21 235.73,84.46C236.84,81.67 237.99,78.89 239.31,76.15C240.66,73.35 242.16,70.59 243.74,67.85C245.36,65.05 247.15,62.3 248.93,59.54C250.73,56.76 252.66,54.01 254.47,51.23C256.27,48.47 258.11,45.72 259.75,42.92C261.36,40.18 262.92,37.42 264.24,34.62C265.53,31.89 266.67,29.11 267.62,26.31Q268.55,23.57 269.88,18Z" style="vector-effect: none; stroke-width: 2px; stroke: rgb(99, 110, 250); stroke-opacity: 1; fill: rgb(99, 110, 250); fill-opacity: 0.5;"/><path class="box" d="M239.73,184.72H305.27M239.73,153.5H305.27V209.05H239.73ZM272.5,153.5V98.32M272.5,209.05V291.26" style="vector-effect: non-scaling-stroke; stroke-width: 2px; stroke: rgb(99, 110, 250); stroke-opacity: 1; fill: rgb(99, 110, 250); fill-opacity: 0.5;"/><g class="points"><path class="point" transform="translate(89.55,68.74)" d="M5,0A5,5 0 1,1 0,-5A5,5 0 0,1 5,0Z" style="opacity: 1; stroke-width: 0px; fill: rgb(99, 110, 250); fill-opacity: 1;"/><path class="point" transform="translate(58.94,98.32)" d="M5,0A5,5 0 1,1 0,-5A5,5 0 0,1 5,0Z" style="opacity: 1; stroke-width: 0px; fill: rgb(99, 110, 250); fill-opacity: 1;"/><path class="point" transform="translate(97.72,126.28)" d="M5,0A5,5 0 1,1 0,-5A5,5 0 0,1 5,0Z" style="opacity: 1; stroke-width: 0px; fill: rgb(99, 110, 250); fill-opacity: 1;"/><path class="point" transform="translate(51.16,152.56)" d="M5,0A5,5 0 1,1 0,-5A5,5 0 0,1 5,0Z" style="opacity: 1; stroke-width: 0px; fill: rgb(99, 110, 250); fill-opacity: 1;"/><path class="point" transform="translate(68.52,156.33)" d="M5,0A5,5 0 1,1 0,-5A5,5 0 0,1 5,0Z" style="opacity: 1; stroke-width: 0px; fill: rgb(99, 110, 250); fill-opacity: 1;"/><path class="point" transform="translate(92.2,163.43)" d="M5,0A5,5 0 1,1 0,-5A5,5 0 0,1 5,0Z" style="opacity: 1; stroke-width: 0px; fill: rgb(99, 110, 250); fill-opacity: 1;"/><path class="point" transform="translate(74.61,180.19)" d="M5,0A5,5 0 1,1 0,-5A5,5 0 0,1 5,0Z" style="opacity: 1; stroke-width: 0px; fill: rgb(99, 110, 250); fill-opacity: 1;"/><path class="point" transform="translate(85.99,184.72)" d="M5,0A5,5 0 1,1 0,-5A5,5 0 0,1 5,0Z" style="opacity: 1; stroke-width: 0px; fill: rgb(99, 110, 250); fill-opacity: 1;"/><path class="point" transform="translate(63.34,191.7)" d="M5,0A5,5 0 1,1 0,-5A5,5 0 0,1 5,0Z" style="opacity: 1; stroke-width: 0px; fill: rgb(99, 110, 250); fill-opacity: 1;"/><path class="point" transform="translate(53.02,200.8)" d="M5,0A5,5 0 1,1 0,-5A5,5 0 0,1 5,0Z" style="opacity: 1; stroke-width: 0px; fill: rgb(99, 110, 250); fill-opacity: 1;"/><path class="point" transform="translate(84.02,204.86)" d="M5,0A5,5 0 1,1 0,-5A5,5 0 0,1 5,0Z" style="opacity: 1; stroke-width: 0px; fill: rgb(99, 110, 250); fill-opacity: 1;"/><path class="point" transform="translate(65.76,210.44)" d="M5,0A5,5 0 1,1 0,-5A5,5 0 0,1 5,0Z" style="opacity: 1; stroke-width: 0px; fill: rgb(99, 110, 250); fill-opacity: 1;"/><path class="point" transform="translate(94.51,234.56)" d="M5,0A5,5 0 1,1 0,-5A5,5 0 0,1 5,0Z" style="opacity: 1; stroke-width: 0px; fill: rgb(99, 110, 250); fill-opacity: 1;"/><path class="point" transform="translate(48.5,237.52)" d="M5,0A5,5 0 1,1 0,-5A5,5 0 0,1 5,0Z" style="opacity: 1; stroke-width: 0px; fill: rgb(99, 110, 250); fill-opacity: 1;"/><path class="point" transform="translate(60.3,291.26)" d="M5,0A5,5 0 1,1 0,-5A5,5 0 0,1 5,0Z" style="opacity: 1; stroke-width: 0px; fill: rgb(99, 110, 250); fill-opacity: 1;"/></g></g></g></g><g class="overplot"/><path class="xlines-above crisp" d="M0,0" style="fill: none;"/><path class="ylines-above crisp" d="M0,0" style="fill: none;"/><g class="overlines-above"/><g class="xaxislayer-above"><g class="xtick"><text text-anchor="middle" x="0" y="433" transform="translate(352.5,0)" style="font-family: 'Open Sans', verdana, arial, sans-serif; font-size: 12px; fill: rgb(42, 63, 95); fill-opacity: 1; white-space: pre; opacity: 1;">sim_config_11</text></g></g><g class="yaxislayer-above"><g class="ytick"><text text-anchor="end" x="79" y="4.199999999999999" transform="translate(0,396.87)" style="font-family: 'Open Sans', verdana, arial, sans-serif; font-size: 12px; fill: rgb(42, 63, 95); fill-opacity: 1; white-space: pre; opacity: 1;">6</text></g><g class="ytick"><text text-anchor="end" x="79" y="4.199999999999999" style="font-family: 'Open Sans', verdana, arial, sans-serif; font-size: 12px; fill: rgb(42, 63, 95); fill-opacity: 1; white-space: pre; opacity: 1;" transform="translate(0,346.1)">5.98</text></g><g class="ytick"><text text-anchor="end" x="79" y="4.199999999999999" style="font-family: 'Open Sans', verdana, arial, sans-serif; font-size: 12px; fill: rgb(42, 63, 95); fill-opacity: 1; white-space: pre; opacity: 1;" transform="translate(0,295.32)">5.96</text></g><g class="ytick"><text text-anchor="end" x="79" y="4.199999999999999" style="font-family: 'Open Sans', verdana, arial, sans-serif; font-size: 12px; fill: rgb(42, 63, 95); fill-opacity: 1; white-space: pre; opacity: 1;" transform="translate(0,244.55)">5.94</text></g><g class="ytick"><text text-anchor="end" x="79" y="4.199999999999999" style="font-family: 'Open Sans', verdana, arial, sans-serif; font-size: 12px; fill: rgb(42, 63, 95); fill-opacity: 1; white-space: pre; opacity: 1;" transform="translate(0,193.77)">5.92</text></g><g class="ytick"><text text-anchor="end" x="79" y="4.199999999999999" style="font-family: 'Open Sans', verdana, arial, sans-serif; font-size: 12px; fill: rgb(42, 63, 95); fill-opacity: 1; white-space: pre; opacity: 1;" transform="translate(0,143)">5.9</text></g><g class="ytick"><text text-anchor="end" x="79" y="4.199999999999999" style="font-family: 'Open Sans', verdana, arial, sans-serif; font-size: 12px; fill: rgb(42, 63, 95); fill-opacity: 1; white-space: pre; opacity: 1;" transform="translate(0,92.22)">5.88</text></g></g><g class="overaxes-above"/></g></g><g class="polarlayer"/><g class="smithlayer"/><g class="ternarylayer"/><g class="geolayer"/><g class="funnelarealayer"/><g class="pielayer"/><g class="iciclelayer"/><g class="treemaplayer"/><g class="sunburstlayer"/><g class="glimages"/><defs id="topdefs-982712"><g class="clips"/></defs><g class="layer-above"><g class="imagelayer"/><g class="shapelayer"/></g><g class="infolayer"><g class="g-gtitle"/><g class="g-xtitle"><text class="xtitle" x="350" y="460.3" text-anchor="middle" style="font-family: 'Open Sans', verdana, arial, sans-serif; font-size: 14px; fill: rgb(42, 63, 95); opacity: 1; white-space: pre;">sim_config</text></g><g class="g-ytitle"><text class="ytitle" transform="rotate(-90,36.240625,240)" x="36.240625" y="240" text-anchor="middle" style="font-family: 'Open Sans', verdana, arial, sans-serif; font-size: 14px; fill: rgb(42, 63, 95); opacity: 1; white-space: pre;">exec_time_minutes</text></g></g></svg>